<?xml version="1.0" encoding="utf-8"?>
<!-- Generator: Adobe Illustrator 21.1.0, SVG Export Plug-In . SVG Version: 6.00 Build 0)  -->
<svg version="1.1" id="Layer_1" xmlns="http://www.w3.org/2000/svg" xmlns:xlink="http://www.w3.org/1999/xlink" x="0px" y="0px"
	 viewBox="0 0 15 15" style="enable-background:new 0 0 15 15;" xml:space="preserve">
<style type="text/css">
	.st0{fill:#FFFFFF;}
</style>
<g>
	<path class="st0" d="M0,5c0.7,0,1.3,0,2,0c3.4,0,6.9,0,10.3,0c0,0,0.1,0,0.2,0c0,0.9,0,1.7,0,2.5C10.7,6,8.9,5.8,6.9,7
		C6,7.6,5.4,8.5,5.2,9.5c-0.3,1-0.2,2,0.3,3c-0.1,0-0.1,0-0.2,0c-1.5,0-3,0-4.4,0c-0.4,0-0.7-0.1-0.8-0.5C0,9.7,0,7.3,0,5z"/>
	<path class="st0" d="M5.6,0c0,1.2,0,2.5,0,3.7c-1.8,0-3.5,0-5.3,0c0-0.1,0.1-0.1,0.1-0.1c0.7-1.1,1.4-2.1,2.1-3.2
		C2.6,0.2,2.8,0.1,3,0C3.9,0,4.8,0,5.6,0z"/>
	<path class="st0" d="M9.5,0C9.7,0.1,9.9,0.2,10,0.4c0.7,1.1,1.4,2.1,2.1,3.2c0,0,0.1,0.1,0.1,0.1c-1.8,0-3.5,0-5.3,0
		c0,0,0-0.1,0-0.1c0-1.2,0-2.4,0-3.6c0,0,0-0.1,0-0.1C7.8,0,8.6,0,9.5,0z"/>
	<path class="st0" d="M8.4,11.3c0.5,0.5,1,1,1.4,1.4c-0.3,0.3-0.6,0.6-0.9,0.9c-1-1-1.9-1.9-2.9-2.9c1-1,1.9-1.9,2.9-2.9
		C9.2,8,9.5,8.3,9.8,8.6C9.4,9.1,8.9,9.5,8.4,10c0.1,0,0.1,0,0.2,0c0.9,0,1.7,0,2.6,0c0.7,0,1.4,0.2,2,0.5c1.1,0.7,1.8,1.8,1.8,3.1
		c0,0.4,0,0.9,0,1.4c-0.4,0-0.8,0-1.2,0c0-0.1,0-0.1,0-0.2c0-0.5,0-1,0-1.5c-0.1-1.1-1-1.9-2.1-2.1c-0.1,0-0.3,0-0.4,0
		c-0.9,0-1.8,0-2.7,0C8.5,11.3,8.5,11.3,8.4,11.3z"/>
</g>
</svg>
