<?xml version="1.0" encoding="utf-8"?>
<!-- Generator: Adobe Illustrator 21.0.0, SVG Export Plug-In . SVG Version: 6.00 Build 0)  -->
<svg version="1.1" id="Layer_1" xmlns="http://www.w3.org/2000/svg" xmlns:xlink="http://www.w3.org/1999/xlink" x="0px" y="0px"
	 viewBox="0 0 47.5 40.4" style="enable-background:new 0 0 47.5 40.4;" xml:space="preserve">
<style type="text/css">
	.st0{fill:#565656;}
</style>
<title>Asset 5</title>
<g>
	<g>
		<g>
			<path class="st0" d="M27.8,22.9c3.3-1.4,5.5-4.6,5.5-8.2c0-5-4.3-9-9.6-9s-9.6,4-9.6,9c-0.1,3.6,2.1,6.9,5.5,8.2l0.1,0l0.5,0.8
				c-0.9,0.5-1.2,1.7-0.7,2.6c0.1,0.1,0.2,0.2,0.2,0.3c-0.7,0.8-0.7,2,0.1,2.7c0.4,0.3,0.8,0.5,1.3,0.5h5.1c1.1,0,1.9-0.8,1.9-1.9
				c0-0.5-0.2-0.9-0.5-1.3c0.7-0.8,0.7-2-0.1-2.7c-0.1-0.1-0.2-0.2-0.3-0.2L27.8,22.9L27.8,22.9z M26.3,28.6h-5.1
				c-0.4,0-0.6-0.3-0.6-0.6s0.3-0.6,0.6-0.6h5.1c0.4,0,0.6,0.3,0.6,0.6S26.6,28.6,26.3,28.6z M26.3,26.1h-5.1
				c-0.4,0-0.6-0.3-0.6-0.6s0.3-0.6,0.6-0.6h5.1c0.4,0,0.6,0.3,0.6,0.6S26.6,26.1,26.3,26.1z M27.3,21.8L27,21.9
				c-0.1,0.1-0.2,0.1-0.2,0.2l-0.8,1.4h-0.3v-4.8l3-3l-0.9-0.9L24.6,18c-0.1,0.1-0.2,0.3-0.2,0.5v5.1h-1.3v-5.1
				c0-0.2-0.1-0.3-0.2-0.5l-3.2-3.2l-0.9,0.9l3,3v4.8h-0.3l-0.8-1.4c-0.1-0.1-0.1-0.2-0.2-0.2l-0.3-0.1c0,0,0,0-0.1,0
				c-2.9-1.2-4.7-4-4.7-7.1c0-4.3,3.7-7.7,8.3-7.7s8.3,3.5,8.3,7.7C32.1,17.8,30.2,20.6,27.3,21.8C27.3,21.8,27.3,21.8,27.3,21.8z"
				/>
		</g>
	</g>
	<g>
		<g>
			<rect x="11.7" y="5.1" transform="matrix(0.4472 -0.8944 0.8944 0.4472 0.2899 15.0108)" class="st0" width="1.3" height="4.3"/>
		</g>
	</g>
	<g>
		<g>
			<rect x="33" y="6.6" transform="matrix(0.9486 -0.3164 0.3164 0.9486 -0.4977 11.4766)" class="st0" width="4.3" height="1.3"/>
		</g>
	</g>
	<g>
		<g>
			<rect x="7.8" y="14" class="st0" width="3.8" height="1.3"/>
		</g>
	</g>
	<g>
		<g>
			<rect x="35.8" y="14" class="st0" width="3.8" height="1.3"/>
		</g>
	</g>
	<g>
		<g>
			
				<rect x="10.2" y="22.6" transform="matrix(0.8944 -0.4472 0.4472 0.8944 -9.0722 7.9437)" class="st0" width="4.3" height="1.3"/>
		</g>
	</g>
	<g>
		<g>
			
				<rect x="34.6" y="21.1" transform="matrix(0.4472 -0.8944 0.8944 0.4472 -1.2779 44.311)" class="st0" width="1.3" height="4.3"/>
		</g>
	</g>
	<g>
		<g>
			<rect x="23.1" y="1.2" class="st0" width="1.3" height="3.2"/>
		</g>
	</g>
</g>
<g>
	<g>
		<g>
			<path class="st0" d="M47.3,32.5v-1.6c-10.6,0-21.8,2.6-21.9,7.3h-3.2c-0.1-4.7-11.3-7.3-21.9-7.3v1.6c11.9,0,20.2,3,20.3,5.7H0.2
				v1.6h47.1v-1.6H27C27.1,35.5,35.4,32.5,47.3,32.5z"/>
		</g>
	</g>
	<g>
		<g>
			
				<rect x="7.3" y="28.3" transform="matrix(5.260082e-02 -0.9986 0.9986 5.260082e-02 -28.2638 42.163)" class="st0" width="1.6" height="15.4"/>
		</g>
	</g>
	<g>
		<g>
			
				<rect x="32" y="35.2" transform="matrix(0.9986 -5.270055e-02 5.270055e-02 0.9986 -1.8408 2.1446)" class="st0" width="15.4" height="1.6"/>
		</g>
	</g>
</g>
</svg>
