<?xml version="1.0" encoding="utf-8"?>
<!-- Generator: Adobe Illustrator 21.1.0, SVG Export Plug-In . SVG Version: 6.00 Build 0)  -->
<svg version="1.1" id="Layer_1" xmlns="http://www.w3.org/2000/svg" xmlns:xlink="http://www.w3.org/1999/xlink" x="0px" y="0px"
	 viewBox="0 0 17 17" style="enable-background:new 0 0 17 17;" xml:space="preserve">
<style type="text/css">
	.st0{fill:#FFFFFF;}
	.st1{fill:#3D8DC9;}
</style>
<path class="st0" d="M15.4,6.5l0.5-2.2l-2.2-0.7c-0.1,0-0.2-0.1-0.2-0.2l-0.7-2.2l-2.2,0.5c-0.1,0-0.2,0-0.3-0.1L8.5,0L6.8,1.5
	C6.7,1.6,6.6,1.6,6.5,1.6L4.2,1.1L3.6,3.3c0,0.1-0.1,0.2-0.2,0.2L1.1,4.2l0.5,2.2c0,0.1,0,0.2-0.1,0.3L0,8.5l1.5,1.7
	c0.1,0.1,0.1,0.2,0.1,0.3l-0.5,2.2l2.2,0.7c0.1,0,0.2,0.1,0.2,0.2l0.7,2.2l2.2-0.5c0,0,0.1,0,0.1,0c0.1,0,0.2,0,0.3,0.1L8.5,17
	l1.7-1.5c0.1-0.1,0.2-0.1,0.3-0.1l2.2,0.5l0.7-2.2c0-0.1,0.1-0.2,0.2-0.2l2.2-0.7l-0.5-2.2c0-0.1,0-0.2,0.1-0.3L17,8.5l-1.5-1.7
	C15.4,6.7,15.4,6.6,15.4,6.5z M3.6,11.7c-0.2,0-0.3-0.1-0.4-0.3c0-0.2,0-0.3,0.2-0.4l0.6-0.4c0.1-0.1,0.3-0.1,0.4,0
	c0.1,0.1,0.2,0.2,0.2,0.3c0,0.1-0.1,0.3-0.2,0.3l-0.6,0.4C3.8,11.7,3.7,11.7,3.6,11.7z M4.5,12.9c-0.2,0-0.3-0.1-0.3-0.2
	c-0.1-0.1,0-0.3,0.1-0.4l0.5-0.5c0.1-0.1,0.4-0.1,0.5,0c0.1,0.1,0.1,0.4,0,0.5l-0.5,0.5C4.7,12.8,4.6,12.9,4.5,12.9z M6.4,12.9
	L6,13.6c-0.1,0.1-0.2,0.2-0.3,0.2c-0.1,0-0.3-0.1-0.3-0.2c-0.1-0.1-0.1-0.3,0-0.4l0.4-0.6c0.1-0.2,0.3-0.2,0.5-0.1
	C6.4,12.5,6.5,12.7,6.4,12.9z M7.6,13.3L7.4,14c0,0.2-0.2,0.3-0.4,0.3c0,0-0.1,0-0.1,0c-0.2-0.1-0.3-0.3-0.3-0.5l0.2-0.7
	c0.1-0.2,0.3-0.3,0.5-0.3C7.5,12.9,7.7,13.1,7.6,13.3L7.6,13.3z M8.9,14.1c0,0.2-0.2,0.4-0.4,0.4c-0.2,0-0.4-0.2-0.4-0.4v-0.8
	c0-0.2,0.2-0.4,0.4-0.4c0.2,0,0.4,0.2,0.4,0.4V14.1z M10.1,14.3C10,14.3,10,14.3,10.1,14.3c-0.3,0-0.4-0.1-0.5-0.3l-0.2-0.7
	c0-0.2,0.1-0.4,0.3-0.4c0.2-0.1,0.4,0.1,0.5,0.2l0.2,0.7C10.4,14,10.3,14.2,10.1,14.3z M8.1,6.4 M11.5,13.7c-0.2,0.1-0.4,0-0.5-0.1
	l-0.4-0.6c-0.1-0.1-0.1-0.3,0-0.4c0.1-0.1,0.2-0.2,0.3-0.2c0.1,0,0.3,0.1,0.3,0.2l0.4,0.6C11.7,13.4,11.7,13.6,11.5,13.7z
	 M12.7,12.7c-0.1,0.1-0.4,0.1-0.5,0l-0.5-0.5c-0.1-0.1-0.1-0.4,0-0.5c0.1-0.1,0.4-0.1,0.5,0l0.5,0.5C12.9,12.4,12.9,12.6,12.7,12.7z
	 M13.7,11.5c-0.1,0.2-0.3,0.2-0.5,0.1l-0.6-0.4c-0.2-0.1-0.2-0.3-0.1-0.5c0.1-0.2,0.3-0.2,0.5-0.1l0.6,0.4
	C13.7,11.1,13.8,11.3,13.7,11.5z M14.3,10.1c-0.1,0.2-0.3,0.3-0.5,0.3c-0.2-0.1-0.3-0.3-0.3-0.5c0.6-2.1-0.2-4.4-2-5.7
	s-4.3-1.3-6.1,0c-1.8,1.3-2.6,3.6-2,5.7c0.1,0.2-0.1,0.4-0.3,0.5c0,0-0.1,0-0.1,0c-0.2,0-0.3-0.1-0.4-0.3C2,7.7,2.9,5.1,5,3.6
	c2.1-1.5,4.9-1.5,6.9,0C14,5.1,15,7.7,14.3,10.1z"/>
<g>
	<path class="st1" d="M9.2,11H7.9V6.8H6.7V5.9l2.5-0.4V11z"/>
</g>
</svg>
