<svg xmlns="http://www.w3.org/2000/svg" viewBox="0 0 45.78 43.63"><defs><style>.cls-1{fill:#565656;}</style></defs><title>Asset 9</title><g id="Layer_2" data-name="Layer 2"><g id="Layer_1-2" data-name="Layer 1"><path class="cls-1" d="M15.77,12.14a.67.67,0,1,0,.67-.67A.67.67,0,0,0,15.77,12.14Z"/><path class="cls-1" d="M10.38,3.08a11.42,11.42,0,0,1,12.12,0,.64.64,0,0,0,.35.1.66.66,0,0,0,.57-.31.68.68,0,0,0-.21-.93,12.78,12.78,0,0,0-13.54,0,.67.67,0,1,0,.71,1.14Z"/><path class="cls-1" d="M21.44,5.84a.67.67,0,0,0-.23-.92,9.18,9.18,0,0,0-9.55,0A.67.67,0,0,0,12,6.16a.73.73,0,0,0,.35-.09,7.81,7.81,0,0,1,8.16,0A.67.67,0,0,0,21.44,5.84Z"/><path class="cls-1" d="M19.46,8.81a.67.67,0,0,0-.26-.91,5.6,5.6,0,0,0-5.53,0A.68.68,0,0,0,14,9.16a.66.66,0,0,0,.33-.09,4.26,4.26,0,0,1,4.22,0A.66.66,0,0,0,19.46,8.81Z"/><path class="cls-1" d="M45.11,42.28h-.77V28l.21.3a.66.66,0,1,0,1.11-.73L33.84,9.62a.67.67,0,0,0-1.12,0l-5.48,8.3H23.56v-.77a1.38,1.38,0,0,0-1.39-1.38H10.7a1.38,1.38,0,0,0-1.38,1.38v.77H7.12a.66.66,0,0,0-.55.29L.12,27.52a.68.68,0,0,0,0,.7.66.66,0,0,0,.59.36h.76v13.7H.67a.68.68,0,0,0,0,1.35H45.11a.68.68,0,0,0,0-1.35Zm-2.11,0H41.48V31.49a.67.67,0,0,0-.67-.67H25.75a.67.67,0,0,0-.67.67V42.28H23.56V25.93l1.52-2.31v2.85a.67.67,0,0,0,.67.67H40.81a.67.67,0,0,0,.67-.67V23.62L43,25.93V42.28Zm-7.21-7.16a.67.67,0,0,0-.67.67v6.49H31.44V32.16h3.68v.76a.67.67,0,0,0,1.34,0v-.76h3.67V42.28H36.46V35.79A.67.67,0,0,0,35.79,35.12ZM30.1,42.28H26.43V32.16H30.1Zm10-20.15V25.8H36.46V22.13Zm-5,3.67H31.44V22.13h3.68Zm-5,0H26.43V22.13H30.1Zm3.18-14.6,6.32,9.58H27ZM22.22,17.15V20a0,0,0,0,1,0,.05H19.26v-3h2.91A0,0,0,0,1,22.22,17.15ZM15,20.07v-3h3v3Zm-4.3-2.92a0,0,0,0,1,0,0h2.92v3H10.7a0,0,0,0,1,0-.05ZM2.77,28.58h.77a.68.68,0,0,0,0-1.35H2l5.52-8H9.32V20a1.38,1.38,0,0,0,1.38,1.39h.77v1.48a.67.67,0,1,0,1.34,0V21.41h7.26v1.48a.67.67,0,1,0,1.34,0V21.41h.76A1.39,1.39,0,0,0,23.56,20v-.76h2.8l-5.27,8H6.4a.68.68,0,0,0,0,1.35H22.22v13.7H20.69V31.49a.67.67,0,0,0-.67-.67H5a.67.67,0,0,0-.67.67V42.28H2.77Zm7.89,3.58h3.67V42.28H10.66ZM9.32,42.28H5.64V32.16H9.32Zm6.36-10.12h3.67V42.28H15.68Z"/></g></g></svg>