<svg xmlns="http://www.w3.org/2000/svg" viewBox="0 0 42.87 42.91"><defs><style>.cls-1{fill:#565656;}</style></defs><title>Asset 2</title><g id="Layer_2" data-name="Layer 2"><g id="Layer_1-2" data-name="Layer 1"><path class="cls-1" d="M42.87,36.58c0,2.33-1.65,4.08-4.88,5.18a21.11,21.11,0,0,1-7.1,1.15c-.82,0-1.68,0-2.55-.12-3.63-.34-6.26-1.25-8-2.73L19,39l1.57-.6c3.76-1.51,5.58-3.7,5.58-6.73A26,26,0,0,0,24.81,23l-.28-.76.7-.44a10.23,10.23,0,0,1,5.46-1.57,10.87,10.87,0,0,1,8.72,4.4C41.7,27.54,42.87,31.54,42.87,36.58Z"/><path class="cls-1" d="M38.39,12.33a7.11,7.11,0,0,1-2.21,5.19,7.14,7.14,0,0,1-10.35,0,7.14,7.14,0,0,1,0-10.33,7.14,7.14,0,0,1,10.35,0A7.11,7.11,0,0,1,38.39,12.33Z"/><path class="cls-1" d="M24.35,31.64c0,2.69-2.13,4.6-6.35,5.64a24.12,24.12,0,0,1-5.83.73,23.12,23.12,0,0,1-5.82-.75C2.13,36.22,0,34.33,0,31.64c0-5,1.16-9,3.45-11.91a10.88,10.88,0,0,1,17.46,0v0C23.2,22.58,24.35,26.58,24.35,31.64Z"/><path class="cls-1" d="M19.89,7.39a7.06,7.06,0,0,1-2.21,5.16,7.14,7.14,0,0,1-10.37,0A7.06,7.06,0,0,1,5.12,7.39,7.09,7.09,0,0,1,7.33,2.21,7.06,7.06,0,0,1,12.49,0a7.23,7.23,0,0,1,5.19,2.19A7.3,7.3,0,0,1,19.89,7.39Z"/></g></g></svg>