<svg xmlns="http://www.w3.org/2000/svg" viewBox="0 0 47.11 39.74"><defs><style>.cls-1{fill:#565656;}</style></defs><title>Asset 4</title><g id="Layer_2" data-name="Layer 2"><g id="Layer_1-2" data-name="Layer 1"><path class="cls-1" d="M14.31,33.29l-1.9-10.64A.92.92,0,1,0,10.6,23l1.9,10.64a.92.92,0,0,0,.91.76h.16A.92.92,0,0,0,14.31,33.29Z"/><path class="cls-1" d="M27.25,25.49a.92.92,0,0,0-.92.92v7a.92.92,0,0,0,1.84,0v-7A.92.92,0,0,0,27.25,25.49Z"/><path class="cls-1" d="M27.9,22.16a.91.91,0,0,0-.65-.27.92.92,0,0,0,0,1.84.91.91,0,0,0,.65-.27.92.92,0,0,0,0-1.3Z"/><path class="cls-1" d="M19.86,21.89a.92.92,0,0,0-.92.92V33.45a.92.92,0,0,0,1.84,0V22.81A.92.92,0,0,0,19.86,21.89Z"/><path class="cls-1" d="M35.77,21.9a.92.92,0,0,0-1.07.75L32.79,33.29a.93.93,0,0,0,.75,1.07h.16a.92.92,0,0,0,.91-.76L36.51,23A.92.92,0,0,0,35.77,21.9Z"/><path class="cls-1" d="M24,38.17a.92.92,0,1,0,.27.65A.93.93,0,0,0,24,38.17Z"/><path class="cls-1" d="M44.35,9.93H42.17a.92.92,0,0,0,0,1.84h2.18a.92.92,0,0,1,.92.92v2.94a.92.92,0,0,1-.92.92H2.76a.92.92,0,0,1-.92-.92V12.69a.92.92,0,0,1,.92-.92H4.63a.92.92,0,1,0,0-1.84H2.76A2.77,2.77,0,0,0,0,12.69v2.94a2.77,2.77,0,0,0,2.17,2.7L5.47,35.4a5.36,5.36,0,0,0,5.26,4.34h8.5a.92.92,0,1,0,0-1.84h-8.5a3.51,3.51,0,0,1-3.45-2.85L4.06,18.39h39L39.83,35.05a3.51,3.51,0,0,1-3.45,2.85H27.25a.92.92,0,1,0,0,1.84h9.13a5.36,5.36,0,0,0,5.26-4.34l3.3-17.07a2.77,2.77,0,0,0,2.17-2.7V12.69A2.77,2.77,0,0,0,44.35,9.93Z"/><path class="cls-1" d="M38.77,10.15,29.47.84a2.89,2.89,0,1,0-4.09,4.09l5,5H16.73l5-5A2.89,2.89,0,1,0,17.64.84L8.33,10.15a2.89,2.89,0,0,0,4.09,4.09l2.47-2.47H32.21l2.48,2.48a2.89,2.89,0,1,0,4.08-4.09ZM11.12,12.93a1,1,0,0,1-.74.31,1,1,0,0,1-.74-.31,1,1,0,0,1,0-1.48l9.3-9.3a1,1,0,0,1,.74-.31,1,1,0,0,1,.74.31,1,1,0,0,1,0,1.48Zm26.35,0a1,1,0,0,1-.74.31,1,1,0,0,1-.74-.31l-9.31-9.3a1.06,1.06,0,0,1,0-1.48,1.05,1.05,0,0,1,1.49,0l9.3,9.3A1,1,0,0,1,37.47,12.93Z"/></g></g></svg>