<svg xmlns="http://www.w3.org/2000/svg" viewBox="0 0 44.74 33.8"><defs><style>.cls-1{fill:#565656;}</style></defs><title>Asset 1</title><g id="Layer_2" data-name="Layer 2"><g id="Layer_1-2" data-name="Layer 1"><path class="cls-1" d="M38.4,29.68a3,3,0,0,0-3.92,0,2.13,2.13,0,0,0,0,3.39,3,3,0,0,0,3.92,0,2.13,2.13,0,0,0,0-3.39Zm-25.17,0a3,3,0,0,0-3.92,0,2.15,2.15,0,0,0,0,3.39,3,3,0,0,0,3.92,0,2.13,2.13,0,0,0,0-3.39Z"/><path class="cls-1" d="M10.83,21.64l-.61,2.49h30a1.43,1.43,0,0,1,1,.35,1.09,1.09,0,0,1,.39.86,1.06,1.06,0,0,1-.39.86,1.43,1.43,0,0,1-1,.35H8.48a1.36,1.36,0,0,1-1.1-.46,1.12,1.12,0,0,1-.31-1l1.49-5.59a.45.45,0,0,1-.08-.22L6,8.83,4.27,2.42H1.39a1.4,1.4,0,0,1-1-.35A1.06,1.06,0,0,1,0,1.21V.68L.4.35a1.4,1.4,0,0,1,1-.35h4A1.31,1.31,0,0,1,6.83.9l1,4c.35,0,.55-.09.62-.09H42a3.12,3.12,0,0,1,2.18.79,1.88,1.88,0,0,1,.27,2.32L40,19.9a3.26,3.26,0,0,1-1.32,1.48,4.51,4.51,0,0,1-1.92.35H11.27a1.15,1.15,0,0,1-.22,0A1,1,0,0,0,10.83,21.64Z"/></g></g></svg>