<svg xmlns="http://www.w3.org/2000/svg" viewBox="0 0 48.41 42.28"><defs><style>.cls-1{fill:#565656;}</style></defs><title>Asset 7</title><g id="Layer_2" data-name="Layer 2"><g id="Layer_1-2" data-name="Layer 1"><path class="cls-1" d="M.4,20.55a1.37,1.37,0,0,1,.23-2.12l8.48-6.79V3.06A2.91,2.91,0,0,1,10,.94a3,3,0,0,1,4.24,0,2.91,2.91,0,0,1,.9,2.12V6.83l8.1-6.5a1.52,1.52,0,0,1,1.89,0l22.62,18.1a1.45,1.45,0,0,1,.29,2.17,1.56,1.56,0,0,1-1.23.56,1.5,1.5,0,0,1-.94-.28L42.3,18v21.3a3.07,3.07,0,0,1-3,3h-9a3.07,3.07,0,0,1-3-3V27.2h-6V39.26a3.06,3.06,0,0,1-3,3h-9a3.06,3.06,0,0,1-3-3V18L2.52,20.88A1.38,1.38,0,0,1,.4,20.55Zm8.71-5V39.26h9.05V24.18H30.23V39.26h9.05V15.51L24.2,3.44Z"/></g></g></svg>