<svg xmlns="http://www.w3.org/2000/svg" viewBox="0 0 30.32 46.72"><defs><style>.cls-1{fill:#565656;}</style></defs><title>Asset 10</title><g id="Layer_2" data-name="Layer 2"><g id="Layer_1-2" data-name="Layer 1"><path class="cls-1" d="M28,44H24.19L22.5,36.79,10.6,44H2.29a1.37,1.37,0,1,0,0,2.74H28A1.37,1.37,0,0,0,28,44Z"/><path class="cls-1" d="M7.39,16.22a1.34,1.34,0,0,0,1.09.55,1.31,1.31,0,0,0,.82-.28,1.35,1.35,0,0,0,.27-1.91,7.09,7.09,0,0,1-1.4-4.2A7,7,0,0,1,9.75,6,1.37,1.37,0,1,0,7.64,4.21a9.7,9.7,0,0,0-.25,12Z"/><path class="cls-1" d="M4.46,20.44a1.39,1.39,0,0,0,.86-.3,1.37,1.37,0,0,0,.2-1.93A12.44,12.44,0,0,1,5.75,2.26,1.37,1.37,0,1,0,3.68.48,15.15,15.15,0,0,0,3.4,19.94,1.36,1.36,0,0,0,4.46,20.44Z"/><path class="cls-1" d="M22.15,10.38a7.09,7.09,0,0,1-1.4,4.2,1.37,1.37,0,0,0,1.09,2.19,1.37,1.37,0,0,0,1.1-.55,9.74,9.74,0,0,0-.25-12A1.37,1.37,0,0,0,20.57,6,7,7,0,0,1,22.15,10.38Z"/><path class="cls-1" d="M27.58,10.38a12.48,12.48,0,0,1-2.78,7.83,1.37,1.37,0,0,0,.2,1.93,1.39,1.39,0,0,0,1.93-.2A15.17,15.17,0,0,0,26.64.48a1.37,1.37,0,1,0-2.07,1.78A12.47,12.47,0,0,1,27.58,10.38Z"/><path class="cls-1" d="M6.26,43.4l12.83-7.75-10-4.47Z"/><path class="cls-1" d="M21.82,33.87,20,26l-7.2,3.79Z"/><path class="cls-1" d="M15.16,14.67a4.3,4.3,0,1,0-4.3-4.29A4.3,4.3,0,0,0,15.16,14.67Z"/><path class="cls-1" d="M17.83,16.88a7,7,0,0,1-5.34,0L9.81,28.28l9.52-5Z"/></g></g></svg>