<svg xmlns="http://www.w3.org/2000/svg" viewBox="0 0 47.68 44.5"><defs><style>.cls-1{fill:#565656;}</style></defs><title>Asset 11</title><g id="Layer_2" data-name="Layer 2"><g id="Layer_1-2" data-name="Layer 1"><path class="cls-1" d="M23.84,15.89a1.59,1.59,0,1,1-1.59,1.59A1.59,1.59,0,0,1,23.84,15.89Z"/><path class="cls-1" d="M23.84,29.58A5.39,5.39,0,1,0,29.22,35,5.38,5.38,0,0,0,23.84,29.58Zm0,9a.9.9,0,1,1,0-1.79A1.8,1.8,0,1,0,22,35a.9.9,0,1,1-1.79,0,3.59,3.59,0,1,1,3.59,3.59Z"/><path class="cls-1" d="M23.84,27a9.54,9.54,0,0,1-9.5-8.75h-4V31a13.51,13.51,0,0,0,27,0V18.28h-4A9.52,9.52,0,0,1,23.84,27Zm0,15A7.11,7.11,0,1,1,30.94,35,7.1,7.1,0,0,1,23.84,42.07Z"/><path class="cls-1" d="M23.84,0A13.51,13.51,0,0,0,10.33,13.51v3.18H15.1a.79.79,0,0,1,.79.79,8,8,0,0,0,15.9,0,.79.79,0,0,1,.79-.79h4.77V13.51A13.51,13.51,0,0,0,23.84,0Zm0,24.45a7,7,0,1,1,7-7A7,7,0,0,1,23.84,24.45Z"/><path class="cls-1" d="M23.84,12.26a5.23,5.23,0,1,0,5.22,5.22A5.23,5.23,0,0,0,23.84,12.26Zm0,8.7a3.48,3.48,0,1,1,3.48-3.48A3.48,3.48,0,0,1,23.84,21Z"/><path class="cls-1" d="M6.36,29.4a4.77,4.77,0,0,1-4.77-4.77.8.8,0,0,0-1.59,0A6.36,6.36,0,0,0,6.36,31a.8.8,0,0,0,0-1.59Z"/><path class="cls-1" d="M6.36,26.22a1.59,1.59,0,0,1-1.59-1.59.79.79,0,0,0-.8-.79.79.79,0,0,0-.79.79,3.18,3.18,0,0,0,3.18,3.18A.79.79,0,0,0,7.15,27,.79.79,0,0,0,6.36,26.22Z"/><path class="cls-1" d="M6.36,6.36A6.35,6.35,0,0,0,0,12.71a.81.81,0,0,0,.23.57.83.83,0,0,0,.56.23.8.8,0,0,0,.8-.8A4.76,4.76,0,0,1,6.36,8a.79.79,0,0,0,.79-.8A.79.79,0,0,0,6.36,6.36Z"/><path class="cls-1" d="M6.36,9.54a3.17,3.17,0,0,0-3.18,3.17.79.79,0,0,0,.79.8.8.8,0,0,0,.8-.8,1.59,1.59,0,0,1,1.59-1.59.79.79,0,1,0,0-1.58Z"/><path class="cls-1" d="M46.88,23.84a.79.79,0,0,0-.79.79,4.77,4.77,0,0,1-4.77,4.77.8.8,0,0,0,0,1.59,6.37,6.37,0,0,0,6.36-6.36A.79.79,0,0,0,46.88,23.84Z"/><path class="cls-1" d="M41.32,27.81a3.18,3.18,0,0,0,3.18-3.18.8.8,0,0,0-1.59,0,1.59,1.59,0,0,1-1.59,1.59.79.79,0,0,0-.79.8A.79.79,0,0,0,41.32,27.81Z"/><path class="cls-1" d="M41.32,8a4.77,4.77,0,0,1,4.77,4.76.79.79,0,0,0,.79.8.8.8,0,0,0,.8-.8,6.36,6.36,0,0,0-6.36-6.35.79.79,0,0,0-.79.79A.79.79,0,0,0,41.32,8Z"/><path class="cls-1" d="M41.32,11.12a1.59,1.59,0,0,1,1.59,1.59.8.8,0,1,0,1.59,0,3.17,3.17,0,0,0-3.18-3.17.79.79,0,0,0,0,1.58Z"/></g></g></svg>