<?xml version="1.0" encoding="utf-8"?>
<!-- Generator: Adobe Illustrator 21.0.0, SVG Export Plug-In . SVG Version: 6.00 Build 0)  -->
<svg version="1.1" id="Layer_1" xmlns="http://www.w3.org/2000/svg" xmlns:xlink="http://www.w3.org/1999/xlink" x="0px" y="0px"
	 viewBox="0 0 13.7 15.5" enable-background="new 0 0 13.7 15.5" xml:space="preserve">
<g>
	<g>
		<path fill="#3D8ECA" d="M13.2,8.2H9.6c-0.3,0-0.5,0.2-0.5,0.5v6.4c0,0.3,0.2,0.5,0.5,0.5h3.6c0.3,0,0.5-0.2,0.5-0.5V8.7
			C13.7,8.4,13.5,8.2,13.2,8.2z M10,11h2.7v1.8H10V11z M12.8,9.1v0.9H10V9.1H12.8z M10,14.6v-0.9h2.7v0.9H10z"/>
		<path fill="#3D8ECA" d="M10.5,5.5c0.8,0,1.4-0.6,1.4-1.4s-0.6-1.4-1.4-1.4H8.2V0.5C8.2,0.2,8,0,7.7,0H0.5C0.2,0,0,0.2,0,0.5v14.6
			c0,0.3,0.2,0.5,0.5,0.5h7.3c0.3,0,0.5-0.2,0.5-0.5V5.5H10.5z M10.9,4.1c0,0.3-0.2,0.5-0.5,0.5H5.7c-0.2,0-0.3,0.1-0.4,0.2
			C5,5.2,4.6,5.5,4.1,5.5c-0.8,0-1.4-0.6-1.4-1.4s0.6-1.4,1.4-1.4C4.6,2.8,5,3,5.3,3.4c0.1,0.1,0.2,0.2,0.4,0.2h4.8
			C10.7,3.7,10.9,3.9,10.9,4.1z M7.3,14.6H0.9V0.9h6.4v1.9H5.9C5.5,2.2,4.8,1.9,4.1,1.9c-1.3,0-2.3,1-2.3,2.3s1,2.3,2.3,2.3
			c0.7,0,1.4-0.3,1.8-0.9h1.4V14.6z"/>
		<circle fill="#3D8ECA" cx="4.1" cy="4.1" r="0.5"/>
		<path fill="#3D8ECA" d="M4.1,8.2c-0.8,0-1.4,0.6-1.4,1.4c0,0.6,0.4,1.1,0.9,1.3v1.4c0,0.3,0.2,0.5,0.5,0.5c0.3,0,0.5-0.2,0.5-0.5
			v-1.4c0.5-0.2,0.9-0.7,0.9-1.3C5.5,8.8,4.9,8.2,4.1,8.2z M4.1,10.1c-0.3,0-0.5-0.2-0.5-0.5s0.2-0.5,0.5-0.5c0.3,0,0.5,0.2,0.5,0.5
			S4.4,10.1,4.1,10.1z"/>
	</g>
</g>
</svg>
