<?xml version="1.0" encoding="utf-8"?>
<!-- Generator: Adobe Illustrator 21.0.0, SVG Export Plug-In . SVG Version: 6.00 Build 0)  -->
<svg version="1.1" id="Layer_1" xmlns="http://www.w3.org/2000/svg" xmlns:xlink="http://www.w3.org/1999/xlink" x="0px" y="0px"
	 viewBox="0 0 15.7 15.6" enable-background="new 0 0 15.7 15.6" xml:space="preserve">
<g>
	<path fill="#3D8ECA" d="M15.7,3.5h-3.3V0h-9v3.5H0v9.3h3.1l-0.4,2.8h10.5l-0.4-2.8h3.1L15.7,3.5L15.7,3.5z M3.8,0.5h8v4.3h-8V0.5z
		 M3.3,4v0.8H2.5v0.5h10.8V4.8h-0.9V4h2.8v2.2H0.5V4L3.3,4L3.3,4z M3.3,11.4H2.1v-0.3h1.2L3.3,11.4z M3.2,15.1l0.6-3.9h8.1l0.6,3.9
		H3.2z M12.4,11.1h1.2v0.3h-1.1L12.4,11.1z M12.6,12.2l0-0.3h1.6v-1.3H1.6v1.3h1.6l0,0.3H0.5V6.6h14.7v5.6H12.6z"/>
	<path fill="#3D8ECA" d="M1.6,7.1c-0.4,0-0.8,0.3-0.8,0.8s0.3,0.8,0.8,0.8s0.8-0.3,0.8-0.8S2,7.1,1.6,7.1z M1.6,8.1
		C1.5,8.1,1.4,8,1.4,7.8s0.1-0.3,0.3-0.3c0.1,0,0.3,0.1,0.3,0.3S1.8,8.1,1.6,8.1z"/>
	<path fill="#3D8ECA" d="M3.3,7.1c-0.4,0-0.8,0.3-0.8,0.8s0.3,0.8,0.8,0.8s0.8-0.3,0.8-0.8S3.7,7.1,3.3,7.1z M3.3,8.1
		C3.2,8.1,3,8,3,7.8s0.1-0.3,0.3-0.3s0.3,0.1,0.3,0.3S3.4,8.1,3.3,8.1z"/>
</g>
</svg>
