<?xml version="1.0" encoding="utf-8"?>
<!-- Generator: Adobe Illustrator 19.0.0, SVG Export Plug-In . SVG Version: 6.00 Build 0)  -->
<svg version="1.1" id="Layer_1" xmlns="http://www.w3.org/2000/svg" xmlns:xlink="http://www.w3.org/1999/xlink" x="0px" y="0px"
	 viewBox="0 0 19.1 21.1" style="enable-background:new 0 0 19.1 21.1;" xml:space="preserve">
<style type="text/css">
	.st0{fill:#FFFFFF;stroke:#FFFFFF;stroke-width:9.556448e-002;stroke-miterlimit:10;}
</style>
<g>
	<path class="st0" d="M14.7,10.5h-0.3V5.5c0-2.7-2.2-4.9-4.9-4.9S4.6,2.8,4.6,5.5v4.9H4.3c-0.6,0-1,0.5-1,1v1.7
		c0,0.2,0.1,0.3,0.3,0.3h4.2v1.4L7,15.7c-0.1,0-0.2-0.1-0.4-0.1c-0.5,0-0.9,0.4-0.9,0.9s0.4,0.9,0.9,0.9s0.9-0.4,0.9-0.9
		c0-0.1,0-0.2-0.1-0.3l0.9-0.9c0.1-0.1,0.1-0.1,0.1-0.2v-1.5h0.7v5.4c-0.3,0.1-0.5,0.4-0.5,0.8c0,0.5,0.4,0.9,0.9,0.9
		c0.5,0,0.9-0.4,0.9-0.9c0-0.4-0.2-0.7-0.5-0.8v-5.4h0.7v2.7c0,0.1,0,0.2,0.1,0.2l0.9,0.9c0,0.1-0.1,0.2-0.1,0.3
		c0,0.5,0.4,0.9,0.9,0.9s0.9-0.4,0.9-0.9c0-0.5-0.4-0.9-0.9-0.9c-0.1,0-0.2,0-0.4,0.1L11.2,16v-2.6h4.2c0.2,0,0.3-0.1,0.3-0.3v-1.7
		C15.8,10.9,15.3,10.5,14.7,10.5L14.7,10.5z M6.7,16.7c-0.1,0-0.2-0.1-0.2-0.2s0.1-0.2,0.2-0.2s0.2,0.1,0.2,0.2S6.8,16.7,6.7,16.7z
		 M9.5,19.9c-0.1,0-0.2-0.1-0.2-0.2s0.1-0.2,0.2-0.2s0.2,0.1,0.2,0.2S9.7,19.9,9.5,19.9z M12.6,17.7c0,0.1-0.1,0.2-0.2,0.2
		c-0.1,0-0.2-0.1-0.2-0.2s0.1-0.2,0.2-0.2C12.5,17.4,12.6,17.5,12.6,17.7z M5.2,5.5c0-2.4,1.9-4.3,4.3-4.3s4.3,1.9,4.3,4.3v4.9H5.2
		V5.5z M15.1,12.8H3.9v-1.3c0-0.2,0.2-0.4,0.4-0.4h10.4c0.2,0,0.4,0.2,0.4,0.4V12.8z"/>
	<path id="XMLID_30_" class="st0" d="M6.2,5.2c-0.2,0-0.3,0.1-0.3,0.3v0.6c0,0.2,0.1,0.3,0.3,0.3c0.2,0,0.3-0.1,0.3-0.3V5.5
		C6.6,5.3,6.4,5.2,6.2,5.2z"/>
	<path id="XMLID_29_" class="st0" d="M6.2,6.9C6.1,6.9,5.9,7,5.9,7.2v2.3c0,0.2,0.1,0.3,0.3,0.3c0.2,0,0.3-0.1,0.3-0.3V7.2
		C6.6,7,6.4,6.9,6.2,6.9L6.2,6.9z"/>
	<path id="XMLID_28_" class="st0" d="M12.8,8.6c-0.2,0-0.3,0.1-0.3,0.3v0.6c0,0.2,0.1,0.3,0.3,0.3c0.2,0,0.3-0.1,0.3-0.3V8.9
		C13.2,8.7,13,8.6,12.8,8.6z"/>
	<path id="XMLID_27_" class="st0" d="M9.5,1.9C9.4,1.9,9.2,2,9.2,2.2c0,0.2,0.1,0.3,0.3,0.3c1.6,0,3,1.3,3,3v2.3
		c0,0.2,0.1,0.3,0.3,0.3c0.2,0,0.3-0.1,0.3-0.3V5.5C13.2,3.5,11.5,1.9,9.5,1.9L9.5,1.9z"/>
</g>
</svg>
