<?xml version="1.0" encoding="utf-8"?>
<!-- Generator: Adobe Illustrator 21.0.0, SVG Export Plug-In . SVG Version: 6.00 Build 0)  -->
<svg version="1.1" id="Layer_1" xmlns="http://www.w3.org/2000/svg" xmlns:xlink="http://www.w3.org/1999/xlink" x="0px" y="0px"
	 viewBox="0 0 18.6 11.5" enable-background="new 0 0 18.6 11.5" xml:space="preserve">
<g>
	<path fill="#3D8ECA" d="M17.2,0H1.4C0.6,0,0,0.6,0,1.4v8.6c0,0.8,0.6,1.4,1.4,1.4h15.8c0.8,0,1.4-0.6,1.4-1.4V1.4
		C18.6,0.6,18,0,17.2,0L17.2,0z M18,10.1c0,0.5-0.4,0.8-0.8,0.8H1.4c-0.5,0-0.8-0.4-0.8-0.8V1.4C0.6,1,1,0.6,1.4,0.6h15.8
		C17.7,0.6,18,1,18,1.4V10.1z"/>
	<path fill="#3D8ECA" d="M7.9,2.4H3c-0.3,0-0.6,0.2-0.6,0.6v5.6c0,0.3,0.2,0.6,0.6,0.6h4.9c0.3,0,0.6-0.2,0.6-0.6V2.9
		C8.4,2.6,8.2,2.4,7.9,2.4L7.9,2.4z M7.8,8.5H3V3h4.8V8.5z"/>
	<path fill="#3D8ECA" d="M11.9,2.2h-1.5c-0.2,0-0.3,0.1-0.3,0.3V4c0,0.2,0.1,0.3,0.3,0.3h1.5c0.2,0,0.3-0.1,0.3-0.3V2.5
		C12.2,2.4,12,2.2,11.9,2.2z"/>
	<path fill="#3D8ECA" d="M14.2,2.2h-1.5c-0.2,0-0.3,0.1-0.3,0.3V4c0,0.2,0.1,0.3,0.3,0.3h1.5c0.2,0,0.3-0.1,0.3-0.3V2.5
		C14.5,2.4,14.4,2.2,14.2,2.2z"/>
	<path fill="#3D8ECA" d="M16.7,2.2h-1.5c-0.2,0-0.3,0.1-0.3,0.3V4c0,0.2,0.1,0.3,0.3,0.3h1.5C16.8,4.3,17,4.2,17,4V2.5
		C17,2.4,16.8,2.2,16.7,2.2z"/>
	<path fill="#3D8ECA" d="M11.9,4.7h-1.5c-0.2,0-0.3,0.1-0.3,0.3v1.5c0,0.2,0.1,0.3,0.3,0.3h1.5c0.2,0,0.3-0.1,0.3-0.3V5
		C12.2,4.8,12,4.7,11.9,4.7L11.9,4.7z"/>
	<path fill="#3D8ECA" d="M14.4,4.7h-1.5c-0.2,0-0.3,0.1-0.3,0.3v1.5c0,0.2,0.1,0.3,0.3,0.3h1.5c0.2,0,0.3-0.1,0.3-0.3V5
		C14.7,4.8,14.5,4.7,14.4,4.7L14.4,4.7z"/>
	<path fill="#3D8ECA" d="M16.8,4.7h-1.5c-0.2,0-0.3,0.1-0.3,0.3v1.5c0,0.2,0.1,0.3,0.3,0.3h1.5c0.2,0,0.3-0.1,0.3-0.3V5
		C17.1,4.8,17,4.7,16.8,4.7L16.8,4.7z"/>
	<path fill="#3D8ECA" d="M11.9,7.2h-1.5c-0.2,0-0.3,0.1-0.3,0.3V9c0,0.2,0.1,0.3,0.3,0.3h1.5c0.2,0,0.3-0.1,0.3-0.3V7.5
		C12.2,7.3,12,7.2,11.9,7.2z"/>
	<path fill="#3D8ECA" d="M14.4,7.2h-1.5c-0.2,0-0.3,0.1-0.3,0.3V9c0,0.2,0.1,0.3,0.3,0.3h1.5c0.2,0,0.3-0.1,0.3-0.3V7.5
		C14.7,7.3,14.5,7.2,14.4,7.2z"/>
	<path fill="#3D8ECA" d="M16.8,7.2h-1.5c-0.2,0-0.3,0.1-0.3,0.3V9c0,0.2,0.1,0.3,0.3,0.3h1.5c0.2,0,0.3-0.1,0.3-0.3V7.5
		C17.1,7.3,17,7.2,16.8,7.2z"/>
	<path fill="#3D8ECA" d="M3.9,5.8H4v1.5c0,0.2,0.1,0.3,0.3,0.3h2.2c0.2,0,0.3-0.1,0.3-0.3V5.8H7c0.1,0,0.2-0.1,0.3-0.2
		c0-0.1,0-0.2-0.1-0.3L5.6,3.9c-0.1-0.1-0.3-0.1-0.4,0L3.7,5.3C3.6,5.4,3.6,5.5,3.6,5.6C3.7,5.7,3.8,5.8,3.9,5.8z M4.6,7.1V5.8h1.6
		v1.2H4.6z M5.4,4.5l0.8,0.7H4.7L5.4,4.5z"/>
</g>
</svg>
