<?xml version="1.0" encoding="utf-8"?>
<!-- Generator: Adobe Illustrator 19.0.0, SVG Export Plug-In . SVG Version: 6.00 Build 0)  -->
<svg version="1.1" id="Layer_1" xmlns="http://www.w3.org/2000/svg" xmlns:xlink="http://www.w3.org/1999/xlink" x="0px" y="0px"
	 viewBox="0 0 19.1 18.4" style="enable-background:new 0 0 19.1 18.4;" xml:space="preserve">
<style type="text/css">
	.st0{fill:#FFFFFF;}
</style>
<g>
	<g id="XMLID_123_">
		<path id="XMLID_132_" class="st0" d="M15.9,9.7h-3.6c-0.3,0-0.5,0.2-0.5,0.5v6.4c0,0.3,0.2,0.5,0.5,0.5h3.6c0.3,0,0.5-0.2,0.5-0.5
			v-6.4C16.4,9.9,16.2,9.7,15.9,9.7z M12.7,12.4h2.7v1.8h-2.7V12.4z M15.5,10.6v0.9h-2.7v-0.9H15.5z M12.7,16.1v-0.9h2.7v0.9H12.7z"
			/>
		<path id="XMLID_128_" class="st0" d="M13.2,6.9c0.8,0,1.4-0.6,1.4-1.4s-0.6-1.4-1.4-1.4h-2.3V1.9c0-0.3-0.2-0.5-0.5-0.5H3.2
			c-0.3,0-0.5,0.2-0.5,0.5v14.6c0,0.3,0.2,0.5,0.5,0.5h7.3c0.3,0,0.5-0.2,0.5-0.5V6.9H13.2z M13.6,5.6c0,0.3-0.2,0.5-0.5,0.5H8.4
			C8.2,6,8.1,6.1,8,6.2C7.7,6.7,7.3,6.9,6.8,6.9C6,6.9,5.4,6.3,5.4,5.6S6,4.2,6.8,4.2c0.5,0,0.9,0.3,1.2,0.7C8.1,5,8.2,5.1,8.4,5.1
			h4.8C13.4,5.1,13.6,5.3,13.6,5.6z M10,16.1H3.6V2.3H10v1.9H8.6C8.2,3.6,7.5,3.3,6.8,3.3c-1.3,0-2.3,1-2.3,2.3s1,2.3,2.3,2.3
			c0.7,0,1.4-0.3,1.8-0.9H10V16.1z"/>
		<circle id="XMLID_127_" class="st0" cx="6.8" cy="5.6" r="0.5"/>
		<path id="XMLID_124_" class="st0" d="M6.8,9.7C6,9.7,5.4,10.3,5.4,11c0,0.6,0.4,1.1,0.9,1.3v1.4c0,0.3,0.2,0.5,0.5,0.5
			c0.3,0,0.5-0.2,0.5-0.5v-1.4c0.5-0.2,0.9-0.7,0.9-1.3C8.2,10.3,7.6,9.7,6.8,9.7z M6.8,11.5c-0.3,0-0.5-0.2-0.5-0.5
			s0.2-0.5,0.5-0.5c0.3,0,0.5,0.2,0.5,0.5S7.1,11.5,6.8,11.5z"/>
	</g>
</g>
</svg>
