<?xml version="1.0" encoding="utf-8"?>
<!-- Generator: Adobe Illustrator 21.0.0, SVG Export Plug-In . SVG Version: 6.00 Build 0)  -->
<svg version="1.1" id="Layer_1" xmlns="http://www.w3.org/2000/svg" xmlns:xlink="http://www.w3.org/1999/xlink" x="0px" y="0px"
	 viewBox="0 0 14.9 16.3" enable-background="new 0 0 14.9 16.3" xml:space="preserve">
<g>
	<path fill="#3D8ECA" d="M0,16.3c0.4-0.9,0.9-1.8,1.3-2.7c0.1-0.2,0.2-0.2,0.3-0.2c0.5,0,1,0,1.5,0c0-0.1,0-0.1,0-0.2
		c0-1.4,0-2.7,0-4.1c0-2,1.3-3.6,3.2-4.2c2.4-0.7,4.9,0.9,5.3,3.4c0.1,0.3,0.1,0.7,0.1,1c0,1.3,0,2.5,0,3.8c0,0.1,0,0.1,0,0.2
		c0.2,0,0.4,0,0.7,0c0.3,0,0.6,0,1,0c0.1,0,0.1,0,0.1,0.1c0.5,0.9,0.9,1.8,1.4,2.7c0,0,0,0,0,0C9.9,16.3,5,16.3,0,16.3z M6.9,11.5
		C7,11.5,7,11.4,6.9,11.5c0-0.6,0-1.2,0-1.8c0-0.1,0-0.2-0.1-0.2c-0.6-0.3-0.9-1-0.8-1.6c0.2-0.7,0.7-1.1,1.4-1.1
		c0.7,0,1.2,0.5,1.4,1.1C9,8.5,8.7,9.2,8,9.4c-0.1,0-0.1,0.1-0.1,0.2c0,0.6,0,1.1,0,1.7c0,0.1,0,0.1,0,0.2c1,0,1.9,0,2.8,0
		c0-0.9,0-1.8,0-2.7c0-0.1,0-0.1,0-0.2c-0.2-1.8-2-3.1-3.8-2.8C5.2,6.1,4.1,7.5,4.1,9.2c0,0.7,0,1.4,0,2.1c0,0.1,0,0.1,0,0.2
		C5.1,11.5,6,11.5,6.9,11.5z M13.3,15.3c-0.1-0.3-0.3-0.5-0.4-0.8c-0.1-0.1-0.1-0.2-0.3-0.2c-3.4,0-6.9,0-10.3,0
		c-0.3,0-0.4,0.1-0.5,0.3c-0.1,0.2-0.2,0.4-0.3,0.6C5.5,15.3,9.4,15.3,13.3,15.3z M4.1,13.4c2.2,0,4.4,0,6.7,0c0-0.3,0-0.6,0-0.9
		c-2.2,0-4.4,0-6.7,0C4.1,12.8,4.1,13.1,4.1,13.4z M7.9,8.2c0-0.3-0.2-0.5-0.5-0.5C7.2,7.7,7,7.9,7,8.1c0,0.3,0.2,0.5,0.5,0.5
		C7.7,8.6,7.9,8.4,7.9,8.2z"/>
	<path fill="#3D8ECA" d="M7,2.9C7,1.9,7,1,7,0c0.3,0,0.6,0,0.9,0c0,1,0,1.9,0,2.9C7.6,2.9,7.3,2.9,7,2.9z"/>
	<path fill="#3D8ECA" d="M0.2,4.5C0.3,4.2,0.5,4,0.7,3.7c0.8,0.5,1.6,1,2.5,1.4C3,5.4,2.8,5.7,2.7,5.9C1.8,5.5,1,5,0.2,4.5z"/>
	<path fill="#3D8ECA" d="M3,1.4c0.3-0.2,0.5-0.3,0.8-0.5c0.5,0.8,0.9,1.6,1.4,2.5C5,3.5,4.7,3.7,4.4,3.9C3.9,3,3.5,2.2,3,1.4z"/>
	<path fill="#3D8ECA" d="M11.7,5.1c0.8-0.5,1.6-1,2.5-1.4c0.2,0.3,0.3,0.5,0.5,0.8c-0.8,0.5-1.6,1-2.5,1.4
		C12.1,5.7,11.9,5.4,11.7,5.1z"/>
	<path fill="#3D8ECA" d="M11.1,0.9c0.3,0.2,0.5,0.3,0.8,0.5C11.4,2.2,11,3,10.5,3.9c-0.3-0.2-0.5-0.3-0.8-0.5
		C10.1,2.6,10.6,1.7,11.1,0.9z"/>
</g>
</svg>
