<?xml version="1.0" encoding="utf-8"?>
<!-- Generator: Adobe Illustrator 21.0.0, SVG Export Plug-In . SVG Version: 6.00 Build 0)  -->
<svg version="1.1" id="Layer_1" xmlns="http://www.w3.org/2000/svg" xmlns:xlink="http://www.w3.org/1999/xlink" x="0px" y="0px"
	 viewBox="0 0 17.7 17.1" enable-background="new 0 0 17.7 17.1" xml:space="preserve">
<path fill="#3D8DC9" d="M0,7.1c0.1-0.3,0.3-0.7,0.6-0.8c0.2-0.1,0.4-0.1,0.6-0.1c0.3,0,0.5-0.1,0.8-0.1c0.1,0,0.1-0.1,0.2-0.1
	c0.2-0.3,0.2-0.6-0.1-0.8C2,4.9,1.8,4.7,1.7,4.4C1.3,4,1.4,3.4,1.8,3C2.2,2.6,2.6,2.2,3,1.8c0.5-0.4,1-0.5,1.5-0.1
	c0.3,0.2,0.6,0.4,0.9,0.6c0.1,0,0.1,0,0.2,0c0.3-0.1,0.5-0.3,0.5-0.6c0-0.3,0.1-0.5,0.1-0.8c0.1-0.6,0.5-1,1.1-1C7.8,0,8.4,0,9,0
	c0.6,0,1.1,0.4,1.1,1c0,0.3,0.1,0.7,0.1,1c0,0.1,0.1,0.2,0.2,0.2c0.1,0,0.2,0.1,0.3,0.1c0.2-0.4,0.4-0.7,0.7-0.9
	c0.7-0.5,1.4-0.6,2.2-0.2c0.8,0.3,1.2,1,1.3,1.8c0.1,1.2-0.7,2.3-1.9,2.5c-1.2,0.2-2.3-0.5-2.6-1.7c0-0.2,0-0.3-0.1-0.5
	c0-0.1-0.1-0.1-0.1-0.1C10.2,3.1,10,3,9.8,2.9C9.6,2.9,9.5,2.7,9.4,2.5c0-0.4-0.1-0.9-0.2-1.3c0-0.3-0.1-0.4-0.4-0.4
	c-0.5,0-1,0-1.5,0C7.1,0.8,7,0.9,7,1.1C6.9,1.6,6.9,2,6.8,2.5c0,0.3-0.1,0.4-0.4,0.5C6.2,3,5.9,3.2,5.6,3.3C5.4,3.4,5.2,3.4,5.1,3.2
	C4.7,2.9,4.3,2.7,4,2.4c-0.2-0.1-0.3-0.1-0.4,0C3.1,2.8,2.8,3.1,2.4,3.5C2.2,3.7,2.2,3.8,2.4,4c0.3,0.4,0.6,0.7,0.8,1.1
	c0.1,0.2,0.2,0.4,0.1,0.6C3.1,5.9,3,6.2,2.9,6.5C2.8,6.7,2.7,6.8,2.5,6.8C2.1,6.9,1.6,6.9,1.1,7C0.9,7,0.8,7.1,0.8,7.4
	c0,0.5,0,1,0,1.5c0,0.3,0.1,0.3,0.3,0.4c0.5,0.1,0.9,0.1,1.4,0.2c0.2,0,0.3,0.1,0.4,0.3c0.1,0.3,0.2,0.6,0.4,0.9
	c0.1,0.2,0.1,0.4-0.1,0.6c-0.3,0.4-0.6,0.7-0.8,1.1c-0.1,0.2-0.1,0.3,0,0.4c0.4,0.4,0.8,0.8,1.2,1.1c0.2,0.2,0.2,0.2,0.4,0
	c0.4-0.3,0.7-0.6,1.1-0.8c0.2-0.1,0.4-0.2,0.6-0.1c0.3,0.1,0.5,0.2,0.8,0.3c0.2,0.1,0.3,0.2,0.3,0.4c0.1,0.5,0.1,0.9,0.2,1.4
	c0,0.2,0.1,0.3,0.3,0.3c0.8,0,1.7,0,2.5,0c0,0,0,0,0.1,0c0-0.2,0-0.4,0-0.6C9.6,14.9,9.3,15,9,14.9c-0.6-0.1-1-0.6-1.1-1.2
	c-0.3-1.9-0.3-3.7,0-5.6c0.2-1.3,1.3-2.2,2.6-2.2c0.6,0,1.1,0.2,1.6,0.6c0.2,0.2,0.4,0.4,0.6,0.6c0.2-0.2,0.4-0.4,0.7-0.5
	C14,6,14.7,5.8,15.5,5.9c1.1,0.2,1.9,1,2.1,2c0.2,1.1,0.3,2.3,0.2,3.5c0,0.7-0.1,1.5-0.2,2.2c-0.1,1-1.1,1.5-1.9,1.2c0,0,0,0-0.1,0
	c0,0,0,0.1,0,0.1c0,0.6,0,1.1-0.1,1.7c0,0.3-0.3,0.5-0.6,0.4c-0.2-0.1-0.3-0.3-0.3-0.5c0-0.4,0-0.8,0-1.2c0-2,0.1-4,0.2-6
	c0-0.1,0-0.2,0-0.2c0-0.2,0.2-0.3,0.4-0.3c0.2,0,0.4,0.1,0.4,0.3c0,0.1,0,0.2,0,0.3c0,1.3-0.1,2.7-0.1,4c0,0.2,0,0.4,0.2,0.5
	c0.2,0.1,0.3,0.2,0.5,0.1c0.2-0.1,0.3-0.2,0.3-0.4c0.2-1.4,0.3-2.8,0.2-4.2c0-0.5-0.1-0.9-0.1-1.4c-0.2-1.2-1.6-1.8-2.7-1
	c-0.3,0.3-0.7,0.6-1,0.8c-0.2,0.2-0.4,0.2-0.6,0c-0.3-0.2-0.6-0.5-0.9-0.8C11,6.7,10.4,6.6,9.8,6.9c-0.6,0.3-1,0.7-1.1,1.4
	C8.5,9.6,8.5,11,8.6,12.4c0,0.4,0.1,0.8,0.1,1.2c0,0.4,0.3,0.6,0.6,0.5c0.3,0,0.5-0.3,0.5-0.6c0-1.1,0-2.2-0.1-3.3
	c0-0.3,0-0.6,0-0.9c0-0.3,0.2-0.5,0.4-0.5c0.3,0,0.4,0.2,0.4,0.5c0.1,2,0.1,4,0.2,6c0,0.6-0.3,1-0.9,1c-0.8,0-1.7,0-2.5,0
	c-0.7,0-1.1-0.4-1.2-1c0-0.4-0.1-0.7-0.1-1.1C6,14.1,6,14,6,14c-0.2-0.1-0.3-0.1-0.5-0.2c0,0-0.1,0-0.1,0.1
	c-0.3,0.2-0.6,0.4-0.9,0.7c-0.5,0.4-1,0.3-1.4-0.1c-0.4-0.4-0.9-0.9-1.3-1.3c-0.4-0.4-0.4-1-0.1-1.4c0.2-0.3,0.4-0.6,0.7-0.9
	c0.1-0.1,0.1-0.1,0-0.2c-0.1-0.3-0.3-0.5-0.6-0.5c-0.2,0-0.5,0-0.7-0.1C0.5,10,0.2,9.8,0,9.3c0,0,0,0,0,0C0,8.5,0,7.8,0,7.1z
	 M12.7,1.9c-0.8,0-1.4,0.6-1.4,1.4c0,0.8,0.6,1.4,1.4,1.4c0.8,0,1.4-0.6,1.4-1.4C14.1,2.6,13.5,2,12.7,1.9z M5.8,10.5
	c0.3,0.3,0.6,0.5,1.1,0.7c0.2,0.1,0.3,0,0.4-0.2c0.1-0.1,0.1-0.3,0-0.5c-0.1-0.1-0.2-0.2-0.3-0.2C6.2,9.9,5.7,9.2,5.6,8.2
	c-0.1-1.3,1-2.5,2.2-2.6c0.4,0,0.7,0,1.1,0.1c0.3,0.1,0.5,0,0.6-0.3C9.6,5.3,9.4,5.1,9.2,5c-0.5-0.2-1-0.2-1.5-0.1
	C6,5.1,4.8,6.5,4.8,8.1C4.8,9,5.2,9.9,5.8,10.5z"/>
</svg>
