<?xml version="1.0" encoding="utf-8"?>
<!-- Generator: Adobe Illustrator 19.0.0, SVG Export Plug-In . SVG Version: 6.00 Build 0)  -->
<svg version="1.1" id="Layer_1" xmlns="http://www.w3.org/2000/svg" xmlns:xlink="http://www.w3.org/1999/xlink" x="0px" y="0px"
	 viewBox="0 0 18.3 18.3" style="enable-background:new 0 0 18.3 18.3;" xml:space="preserve">
<style type="text/css">
	.st0{fill:#3E8ECB;}
</style>
<g>
	<path class="st0" d="M5.4,8.3h1.4v0.6H5.4V8.3z"/>
	<path class="st0" d="M7.4,8.3H8v0.6H7.4V8.3z"/>
	<path class="st0" d="M5.4,12.3h1.4v0.6H5.4V12.3z"/>
	<path class="st0" d="M7.4,12.3H8v0.6H7.4V12.3z"/>
	<path class="st0" d="M5.4,16.3h1.4v0.6H5.4V16.3z"/>
	<path class="st0" d="M7.4,16.3H8v0.6H7.4V16.3z"/>
	<path class="st0" d="M16,5.2c-0.1-1.1-0.8-2.1-1.8-2.6c-1-0.5-2.2-0.4-3.1,0.2C10.3,0.9,8.3-0.3,6.2,0C4.1,0.4,2.5,2,2.3,4.1
		C0.8,4.5-0.2,6,0,7.6c0.2,1.6,1.5,2.7,3.1,2.7h2v0.6H4.3v3.4h0.9v0.6H4.3v3.4H14v-3.4h-0.9v-0.6H14v-3.4h-0.9v-0.6h2.6
		c1.4,0,2.5-1.1,2.6-2.4C18.4,6.5,17.4,5.3,16,5.2z M13.4,15.4v2.3H4.9v-2.3H13.4z M5.7,14.9v-0.6h6.9v0.6H5.7z M13.4,11.4v2.3H4.9
		v-2.3H13.4z M5.7,10.9v-0.6h6.9v0.6H5.7z M13.4,9.7H4.9V7.4h8.6V9.7z M15.7,9.7H14V6.9h-2.3V6.2l0.9-0.5c0.4,0.4,1.1,0.5,1.6,0.1
		c0.5-0.4,0.6-1,0.3-1.6s-1-0.7-1.5-0.5c-0.6,0.2-0.9,0.9-0.7,1.5l-1.2,0.7v1H9.4V5L8.3,4.1V3.7C8.8,3.5,9.2,3,9.1,2.4
		c-0.1-0.6-0.6-1-1.1-1c-0.6,0-1.1,0.4-1.1,1C6.8,3,7.2,3.5,7.7,3.7v0.8l1.1,0.9v1.6H7.1V5.7H5.9L5.5,4.9C6,4.6,6.1,4,5.9,3.5
		C5.6,3,5.1,2.7,4.5,2.9C4,3.1,3.6,3.6,3.7,4.2c0.1,0.6,0.6,1,1.1,1c0,0,0.1,0,0.1,0l0.6,1.2h1v0.6H4.3v2.9H3.1
		c-1.3,0-2.4-1-2.6-2.3C0.5,6.1,1.3,4.9,2.6,4.6l0.2,0l0-0.2C3,2.4,4.4,0.8,6.4,0.6c1.9-0.2,3.7,0.9,4.3,2.8l0.1,0.4l0.3-0.3
		c0.8-0.7,1.8-0.8,2.8-0.4c0.9,0.4,1.5,1.3,1.5,2.3v0.3h0.3c1.1,0,2,0.9,2,2C17.7,8.8,16.8,9.7,15.7,9.7z M12.9,4.9
		c0-0.3,0.3-0.6,0.6-0.6c0.3,0,0.6,0.3,0.6,0.6c0,0.3-0.3,0.6-0.6,0.6C13.1,5.4,12.9,5.2,12.9,4.9z M8,3.1c-0.3,0-0.6-0.3-0.6-0.6
		C7.4,2.3,7.7,2,8,2c0.3,0,0.6,0.3,0.6,0.6C8.6,2.9,8.3,3.1,8,3.1z M5.4,4c0,0.3-0.3,0.6-0.6,0.6C4.5,4.6,4.3,4.3,4.3,4
		c0-0.3,0.3-0.6,0.6-0.6C5.2,3.4,5.4,3.7,5.4,4z"/>
</g>
<g>
	<path class="st0" d="M5.4,8.3h1.4v0.6H5.4V8.3z"/>
	<path class="st0" d="M7.4,8.3H8v0.6H7.4V8.3z"/>
	<path class="st0" d="M5.4,12.3h1.4v0.6H5.4V12.3z"/>
	<path class="st0" d="M7.4,12.3H8v0.6H7.4V12.3z"/>
	<path class="st0" d="M5.4,16.3h1.4v0.6H5.4V16.3z"/>
	<path class="st0" d="M7.4,16.3H8v0.6H7.4V16.3z"/>
	<path class="st0" d="M16,5.2c-0.1-1.1-0.8-2.1-1.8-2.6c-1-0.5-2.2-0.4-3.1,0.2C10.3,0.9,8.3-0.3,6.2,0C4.1,0.4,2.5,2,2.3,4.1
		C0.8,4.5-0.2,6,0,7.6c0.2,1.6,1.5,2.7,3.1,2.7h2v0.6H4.3v3.4h0.9v0.6H4.3v3.4H14v-3.4h-0.9v-0.6H14v-3.4h-0.9v-0.6h2.6
		c1.4,0,2.5-1.1,2.6-2.4C18.4,6.5,17.4,5.3,16,5.2z M13.4,15.4v2.3H4.9v-2.3H13.4z M5.7,14.9v-0.6h6.9v0.6H5.7z M13.4,11.4v2.3H4.9
		v-2.3H13.4z M5.7,10.9v-0.6h6.9v0.6H5.7z M13.4,9.7H4.9V7.4h8.6V9.7z M15.7,9.7H14V6.9h-2.3V6.2l0.9-0.5c0.4,0.4,1.1,0.5,1.6,0.1
		c0.5-0.4,0.6-1,0.3-1.6s-1-0.7-1.5-0.5c-0.6,0.2-0.9,0.9-0.7,1.5l-1.2,0.7v1H9.4V5L8.3,4.1V3.7C8.8,3.5,9.2,3,9.1,2.4
		c-0.1-0.6-0.6-1-1.1-1c-0.6,0-1.1,0.4-1.1,1C6.8,3,7.2,3.5,7.7,3.7v0.8l1.1,0.9v1.6H7.1V5.7H5.9L5.5,4.9C6,4.6,6.1,4,5.9,3.5
		C5.6,3,5.1,2.7,4.5,2.9C4,3.1,3.6,3.6,3.7,4.2c0.1,0.6,0.6,1,1.1,1c0,0,0.1,0,0.1,0l0.6,1.2h1v0.6H4.3v2.9H3.1
		c-1.3,0-2.4-1-2.6-2.3C0.5,6.1,1.3,4.9,2.6,4.6l0.2,0l0-0.2C3,2.4,4.4,0.8,6.4,0.6c1.9-0.2,3.7,0.9,4.3,2.8l0.1,0.4l0.3-0.3
		c0.8-0.7,1.8-0.8,2.8-0.4c0.9,0.4,1.5,1.3,1.5,2.3v0.3h0.3c1.1,0,2,0.9,2,2C17.7,8.8,16.8,9.7,15.7,9.7z M12.9,4.9
		c0-0.3,0.3-0.6,0.6-0.6c0.3,0,0.6,0.3,0.6,0.6c0,0.3-0.3,0.6-0.6,0.6C13.1,5.4,12.9,5.2,12.9,4.9z M8,3.1c-0.3,0-0.6-0.3-0.6-0.6
		C7.4,2.3,7.7,2,8,2c0.3,0,0.6,0.3,0.6,0.6C8.6,2.9,8.3,3.1,8,3.1z M5.4,4c0,0.3-0.3,0.6-0.6,0.6C4.5,4.6,4.3,4.3,4.3,4
		c0-0.3,0.3-0.6,0.6-0.6C5.2,3.4,5.4,3.7,5.4,4z"/>
</g>
</svg>
