<?xml version="1.0" encoding="utf-8"?>
<!-- Generator: Adobe Illustrator 19.0.0, SVG Export Plug-In . SVG Version: 6.00 Build 0)  -->
<svg version="1.1" id="Layer_1" xmlns="http://www.w3.org/2000/svg" xmlns:xlink="http://www.w3.org/1999/xlink" x="0px" y="0px"
	 viewBox="0 0 19.1 18.4" style="enable-background:new 0 0 19.1 18.4;" xml:space="preserve">
<style type="text/css">
	.st0{fill:#FFFFFF;}
</style>
<g>
	<path class="st0" d="M17.4,3.5H1.6c-0.8,0-1.4,0.6-1.4,1.4v8.6c0,0.8,0.6,1.4,1.4,1.4h15.8c0.8,0,1.4-0.6,1.4-1.4V4.9
		C18.8,4.1,18.2,3.5,17.4,3.5L17.4,3.5z M18.2,13.5c0,0.5-0.4,0.8-0.8,0.8H1.6c-0.5,0-0.8-0.4-0.8-0.8V4.9c0-0.5,0.4-0.8,0.8-0.8
		h15.8c0.5,0,0.8,0.4,0.8,0.8V13.5z"/>
	<path class="st0" d="M8.1,5.8H3.2c-0.3,0-0.6,0.2-0.6,0.6V12c0,0.3,0.2,0.6,0.6,0.6h4.9c0.3,0,0.6-0.2,0.6-0.6V6.4
		C8.7,6.1,8.4,5.8,8.1,5.8L8.1,5.8z M8.1,12H3.3V6.4h4.8V12z"/>
	<path id="XMLID_38_" class="st0" d="M12.1,5.7h-1.5c-0.2,0-0.3,0.1-0.3,0.3v1.5c0,0.2,0.1,0.3,0.3,0.3h1.5c0.2,0,0.3-0.1,0.3-0.3V6
		C12.4,5.8,12.3,5.7,12.1,5.7z"/>
	<path id="XMLID_37_" class="st0" d="M14.4,5.7h-1.5c-0.2,0-0.3,0.1-0.3,0.3v1.5c0,0.2,0.1,0.3,0.3,0.3h1.5c0.2,0,0.3-0.1,0.3-0.3V6
		C14.7,5.8,14.6,5.7,14.4,5.7z"/>
	<path id="XMLID_36_" class="st0" d="M16.9,5.7h-1.5c-0.2,0-0.3,0.1-0.3,0.3v1.5c0,0.2,0.1,0.3,0.3,0.3h1.5c0.2,0,0.3-0.1,0.3-0.3V6
		C17.2,5.8,17.1,5.7,16.9,5.7z"/>
	<path id="XMLID_35_" class="st0" d="M12.1,8.2h-1.5c-0.2,0-0.3,0.1-0.3,0.3v1.5c0,0.2,0.1,0.3,0.3,0.3h1.5c0.2,0,0.3-0.1,0.3-0.3
		V8.5C12.4,8.3,12.3,8.2,12.1,8.2L12.1,8.2z"/>
	<path id="XMLID_34_" class="st0" d="M14.6,8.2h-1.5c-0.2,0-0.3,0.1-0.3,0.3v1.5c0,0.2,0.1,0.3,0.3,0.3h1.5c0.2,0,0.3-0.1,0.3-0.3
		V8.5C14.9,8.3,14.7,8.2,14.6,8.2L14.6,8.2z"/>
	<path id="XMLID_33_" class="st0" d="M17.1,8.2h-1.5c-0.2,0-0.3,0.1-0.3,0.3v1.5c0,0.2,0.1,0.3,0.3,0.3h1.5c0.2,0,0.3-0.1,0.3-0.3
		V8.5C17.4,8.3,17.2,8.2,17.1,8.2L17.1,8.2z"/>
	<path id="XMLID_32_" class="st0" d="M12.1,10.7h-1.5c-0.2,0-0.3,0.1-0.3,0.3v1.5c0,0.2,0.1,0.3,0.3,0.3h1.5c0.2,0,0.3-0.1,0.3-0.3
		v-1.5C12.4,10.8,12.3,10.7,12.1,10.7z"/>
	<path id="XMLID_31_" class="st0" d="M14.6,10.7h-1.5c-0.2,0-0.3,0.1-0.3,0.3v1.5c0,0.2,0.1,0.3,0.3,0.3h1.5c0.2,0,0.3-0.1,0.3-0.3
		v-1.5C14.9,10.8,14.7,10.7,14.6,10.7z"/>
	<path id="XMLID_30_" class="st0" d="M17.1,10.7h-1.5c-0.2,0-0.3,0.1-0.3,0.3v1.5c0,0.2,0.1,0.3,0.3,0.3h1.5c0.2,0,0.3-0.1,0.3-0.3
		v-1.5C17.4,10.8,17.2,10.7,17.1,10.7z"/>
	<path class="st0" d="M4.1,9.3h0.1v1.5c0,0.2,0.1,0.3,0.3,0.3h2.2c0.2,0,0.3-0.1,0.3-0.3V9.3h0.1c0.1,0,0.2-0.1,0.3-0.2
		c0-0.1,0-0.2-0.1-0.3L5.9,7.4c-0.1-0.1-0.3-0.1-0.4,0L3.9,8.8C3.8,8.8,3.8,9,3.9,9.1C3.9,9.2,4,9.3,4.1,9.3z M4.8,10.5V9.3h1.6v1.2
		H4.8z M5.7,8l0.8,0.7H4.9L5.7,8z"/>
</g>
</svg>
