<?xml version="1.0" encoding="utf-8"?>
<!-- Generator: Adobe Illustrator 21.1.0, SVG Export Plug-In . SVG Version: 6.00 Build 0)  -->
<svg version="1.1" id="Layer_1" xmlns="http://www.w3.org/2000/svg" xmlns:xlink="http://www.w3.org/1999/xlink" x="0px" y="0px"
	 viewBox="0 0 10 12.1" style="enable-background:new 0 0 10 12.1;" xml:space="preserve">
<style type="text/css">
	.st0{fill:#555555;}
</style>
<g>
	<g>
		<g>
			<path class="st0" d="M9.9,5.6C9.8,5.4,9.6,5.3,9.4,5.3v-1C9.4,1.9,7.4,0,5,0S0.6,1.9,0.6,4.2v1c-0.2,0-0.4,0.2-0.5,0.3
				C0,5.8,0,5.9,0,6.1v2.3c0,0.2,0,0.3,0.1,0.5c0.2,0.3,0.4,0.4,0.7,0.4h0.4c0,0.2,0.2,0.4,0.5,0.4H2c0.2,0,0.5-0.2,0.5-0.5v-4
				C2.5,5,2.3,4.8,2,4.8H1.6C1.4,4.8,1.2,5,1.2,5.2v0H1v-1c0-2.1,1.8-3.8,4-3.8c2.2,0,4,1.7,4,3.8v1H8.8v0c0-0.2-0.2-0.5-0.5-0.5H8
				C7.7,4.8,7.5,5,7.5,5.2v4c0,0.2,0.2,0.4,0.4,0.4c0,0.3-0.2,0.6-0.4,0.8c-0.4,0.4-0.9,0.6-1.7,0.7V11c0-0.3-0.2-0.5-0.5-0.5h-1
				c-0.3,0-0.5,0.2-0.5,0.5v0.7c0,0.3,0.2,0.5,0.5,0.5h1c0.3,0,0.5-0.2,0.5-0.5v-0.1c0.9-0.1,1.6-0.3,2-0.8c0.3-0.3,0.4-0.7,0.5-1.1
				c0.2,0,0.4-0.2,0.4-0.4h0.4c0.3,0,0.6-0.1,0.7-0.4C10,8.7,10,8.6,10,8.4V6.1C10,5.9,10,5.8,9.9,5.6z M1.6,8.8V5.7
				c0,0,0-0.1,0-0.1V5.2l0.4,0v4H1.6V8.8z M1.2,5.7v3.1H0.8c-0.3,0-0.3-0.1-0.3-0.1c0-0.1-0.1-0.2,0-0.2V6.1c0-0.1,0-0.2,0-0.2
				c0,0,0.1-0.1,0.3-0.1L1.2,5.7z M5.4,11.3v0.3c0,0,0,0,0,0h-1c0,0,0,0,0,0V11c0,0,0,0,0,0h1c0,0,0,0,0,0V11.3L5.4,11.3z M8.4,5.7
				v3.5H8.2h0h0H8v-4h0.4L8.4,5.7z M9.5,8.6c0,0-0.1,0.1-0.3,0.1H8.8V5.7h0.3c0.3,0,0.3,0.1,0.3,0.1c0,0.1,0.1,0.2,0,0.2v2.3
				C9.5,8.5,9.5,8.6,9.5,8.6z"/>
		</g>
	</g>
</g>
</svg>
