<?xml version="1.0" encoding="utf-8"?>
<!-- Generator: Adobe Illustrator 21.1.0, SVG Export Plug-In . SVG Version: 6.00 Build 0)  -->
<svg version="1.1" id="Layer_1" xmlns="http://www.w3.org/2000/svg" xmlns:xlink="http://www.w3.org/1999/xlink" x="0px" y="0px"
	 viewBox="0 0 10.6 11.5" style="enable-background:new 0 0 10.6 11.5;" xml:space="preserve">
<style type="text/css">
	.st0{fill:#555555;}
</style>
<g>
	<g>
		<g>
			<g>
				<path class="st0" d="M10.2,2.6L5.7,0.1C5.4,0,5.2,0,4.9,0.1c0,0,0,0,0,0L0.4,2.6C0.2,2.7,0,3,0,3.3v5c0,0.3,0.2,0.5,0.4,0.7
					l4.5,2.5c0.1,0.1,0.2,0.1,0.4,0.1c0.1,0,0.3,0,0.4-0.1l4.5-2.5c0.2-0.1,0.4-0.4,0.4-0.7v-5C10.6,3,10.4,2.7,10.2,2.6z M5.2,0.6
					c0,0,0.1,0,0.1,0l1.8,1L2.8,4.1L1,3L5.2,0.6z M5,10.8L0.7,8.4c0,0-0.1-0.1-0.1-0.1V3.5l2,1.2c0,0,0,0,0,0L5,6V10.8L5,10.8z
					 M3.4,4.4L7.8,2l1.9,1L5.3,5.5L3.4,4.4z M10,8.3c0,0,0,0.1-0.1,0.1l-4.3,2.4V6L10,3.6V8.3z"/>
			</g>
		</g>
		<g>
			<g>
				<path class="st0" d="M3.1,5.7L1.5,4.8c-0.1-0.1-0.2-0.1-0.3,0C1.1,4.9,1,5,1,5.1v1.3c0,0.1,0.1,0.2,0.2,0.3l1.7,0.9
					c0,0,0.1,0,0.2,0c0.1,0,0.1,0,0.2,0c0.1-0.1,0.2-0.2,0.2-0.3V6C3.3,5.9,3.2,5.8,3.1,5.7z M2.6,6.8l-1-0.6V5.6l1,0.6V6.8L2.6,6.8
					z"/>
			</g>
		</g>
		<g>
			<g>
				<path class="st0" d="M4.4,9L3.6,8.6c-0.2-0.1-0.3,0-0.4,0.1C3.1,8.8,3.1,9,3.3,9.1l0.8,0.5c0,0,0.1,0,0.2,0
					c0.1,0,0.2-0.1,0.3-0.2C4.6,9.3,4.6,9.1,4.4,9z"/>
			</g>
		</g>
	</g>
</g>
</svg>
