<svg xmlns="http://www.w3.org/2000/svg" xmlns:xlink="http://www.w3.org/1999/xlink" width="323.636" height="85.789" viewBox="0 0 323.636 85.789">
  <defs>
    <linearGradient id="linear-gradient" x1="0.5" y1="1" x2="0.5" gradientUnits="objectBoundingBox">
      <stop offset="0.194" stop-color="#004c89"/>
      <stop offset="1" stop-color="#009cdc"/>
    </linearGradient>
    <linearGradient id="linear-gradient-3" x1="0.254" y1="0.674" x2="0.745" y2="0.054" xlink:href="#linear-gradient"/>
    <linearGradient id="linear-gradient-4" x1="-2.604" y1="-0.889" x2="-1.434" y2="-0.889" gradientUnits="objectBoundingBox">
      <stop offset="0" stop-color="#d361a1"/>
      <stop offset="1" stop-color="#8c63a7"/>
    </linearGradient>
    <linearGradient id="linear-gradient-5" x1="-2.02" y1="-1.037" x2="-2.008" y2="-0.505" xlink:href="#linear-gradient"/>
    <linearGradient id="linear-gradient-6" x1="-1.963" y1="-1.218" x2="-2.125" y2="-0.604" gradientUnits="objectBoundingBox">
      <stop offset="0" stop-color="#593b8f"/>
      <stop offset="1" stop-color="#4b67ae"/>
    </linearGradient>
    <linearGradient id="linear-gradient-7" x1="-1.704" y1="-1.029" x2="-2.316" y2="-0.806" xlink:href="#linear-gradient"/>
    <linearGradient id="linear-gradient-8" x1="-2.604" y1="-1.487" x2="-1.434" y2="-1.487" gradientUnits="objectBoundingBox">
      <stop offset="0" stop-color="#4896d3"/>
      <stop offset="1" stop-color="#55c2db"/>
    </linearGradient>
    <linearGradient id="linear-gradient-9" x1="-2.679" y1="-1.779" x2="-1.485" y2="-1.779" gradientUnits="objectBoundingBox">
      <stop offset="0" stop-color="#50c2de"/>
      <stop offset="1" stop-color="#55c2db" stop-opacity="0"/>
    </linearGradient>
    <linearGradient id="linear-gradient-10" x1="-3.384" y1="-7.678" x2="-2.896" y2="-7.431" xlink:href="#linear-gradient"/>
    <linearGradient id="linear-gradient-11" x1="-3.462" y1="-1.165" x2="-3.232" y2="-1.976" xlink:href="#linear-gradient-8"/>
    <linearGradient id="linear-gradient-12" x1="0" y1="0.5" x2="1" y2="0.5" xlink:href="#linear-gradient"/>
    <linearGradient id="linear-gradient-31" x1="0" y1="0.5" x2="1" y2="0.5" xlink:href="#linear-gradient"/>
  </defs>
  <g id="logo" transform="translate(-51.754 -585.368)">
    <g id="Group_757" data-name="Group 757" transform="translate(51.754 585.368)">
      <g id="Group_753" data-name="Group 753" transform="translate(21.144 28.805)">
        <path id="Path_1143" data-name="Path 1143" d="M77.223,633.361s5.681-4.812,8.44.314,10.281,18.956,14.391,24.839c1.847,2.644,7.192,8.776,12.894.475,2.007-2.923,6.819-12.437,6.819-12.437s-7.86,6.714-11.667.084c-3.425-5.967-9.029-15.5-12.58-21.437-1.485-2.486-5.068-9.006-11.433-1.84C82.225,625.454,77.223,633.361,77.223,633.361Z" transform="translate(-77.223 -620.071)" fill="url(#linear-gradient)"/>
        <path id="Path_1144" data-name="Path 1144" d="M110.2,633.361s5.681-4.812,8.44.314,10.281,18.956,14.391,24.839c1.847,2.644,7.191,8.776,12.893.475,2.008-2.923,6.819-12.437,6.819-12.437s-7.859,6.714-11.666.084c-3.425-5.967-9.03-15.5-12.58-21.437-1.486-2.486-5.068-9.006-11.433-1.84C115.2,625.454,110.2,633.361,110.2,633.361Z" transform="translate(-82.823 -620.071)" fill="url(#linear-gradient)"/>
        <path id="Path_1145" data-name="Path 1145" d="M161.737,642.984s4.3-6.21,5.918-9.3c2.867-5.465,2.247-12.993-5.918-13.59-9.366-.686-12.353,11.445-3.712,15.26C163.8,637.9,161.737,642.984,161.737,642.984Z" transform="translate(-90.075 -620.065)" fill="url(#linear-gradient-3)"/>
        <path id="Path_1146" data-name="Path 1146" d="M167.633,625.407a5.241,5.241,0,0,0-9.565-.574,5.241,5.241,0,0,1,8.794,5.629A5.238,5.238,0,0,0,167.633,625.407Z" transform="translate(-90.953 -620.394)" fill="#35c0f4"/>
      </g>
      <g id="Group_756" data-name="Group 756" transform="translate(0 0)">
        <path id="Path_1147" data-name="Path 1147" d="M116.372,658.365c-6.013,6.144-14.389,8.121-23.72,7.542-16.39-1.017-27.478-14.586-27.744-30.738-.281-17.025,13.381-29.518,30.387-29.024a30.649,30.649,0,0,1,10.039,1.99,12.733,12.733,0,0,0,13.323-2.522l.3-.287a8.439,8.439,0,0,0-1.278-13.258,42.9,42.9,0,1,0,2.637,70.558,2.851,2.851,0,0,0,.454-4.148h0A2.985,2.985,0,0,0,116.372,658.365Z" transform="translate(-51.755 -585.368)" fill="url(#linear-gradient-4)"/>
        <path id="Path_1148" data-name="Path 1148" d="M116.372,658.365c-6.013,6.144-14.389,8.121-23.72,7.542-16.39-1.017-27.478-14.586-27.744-30.738-.281-17.025,13.381-29.518,30.387-29.024a30.649,30.649,0,0,1,10.039,1.99,12.733,12.733,0,0,0,13.323-2.522l.3-.287a8.439,8.439,0,0,0-1.278-13.258,42.9,42.9,0,1,0,2.637,70.558,2.851,2.851,0,0,0,.454-4.148h0A2.985,2.985,0,0,0,116.372,658.365Z" transform="translate(-51.755 -585.368)" fill="url(#linear-gradient-5)"/>
        <path id="Path_1149" data-name="Path 1149" d="M63.673,636.088a30.754,30.754,0,0,1,41.66-27.952,12.733,12.733,0,0,0,13.323-2.522l.3-.287a8.439,8.439,0,0,0-1.278-13.258,42.9,42.9,0,1,0-5.535,75.356C77.507,679.448,63.193,649.274,63.673,636.088Z" transform="translate(-51.755 -585.368)" fill="url(#linear-gradient-6)"/>
        <path id="Path_1150" data-name="Path 1150" d="M63.673,636.088a30.754,30.754,0,0,1,41.66-27.952,12.733,12.733,0,0,0,13.323-2.522l.3-.287a8.439,8.439,0,0,0-1.278-13.258,42.9,42.9,0,1,0-5.535,75.356C77.507,679.448,63.193,649.274,63.673,636.088Z" transform="translate(-51.755 -585.368)" fill="url(#linear-gradient-7)"/>
        <path id="Path_1151" data-name="Path 1151" d="M70.953,608.048c15.286-9.262,27.684-4.447,34.807-.734a10.974,10.974,0,0,0,12.893-1.7l.3-.287a8.439,8.439,0,0,0-1.278-13.258A42.9,42.9,0,0,0,58.031,650.6C49.04,635.31,55.663,617.313,70.953,608.048Z" transform="translate(-51.754 -585.368)" fill="url(#linear-gradient-8)"/>
        <path id="Path_1152" data-name="Path 1152" d="M118.47,605.786l-.3.286a10.976,10.976,0,0,1-12.893,1.7c-7.122-3.713-19.521-8.528-34.807.733s-21.913,27.262-12.922,42.552c-.134-.218-.259-.441-.389-.661.373.692.758,1.378,1.168,2.047-8.991-15.29-2.368-33.287,12.922-42.551s27.685-4.447,34.807-.734a10.975,10.975,0,0,0,12.893-1.7l.3-.287a8.431,8.431,0,0,0,1.132-10.947A8.417,8.417,0,0,1,118.47,605.786Z" transform="translate(-52.047 -587.212)" fill="url(#linear-gradient-9)"/>
        <g id="Group_754" data-name="Group 754" transform="translate(17.55 66.043)">
          <path id="Path_1153" data-name="Path 1153" d="M119.961,671.876c-6.013,6.143-14.389,8.12-23.72,7.542a28.591,28.591,0,0,1-23.348-14.5,28.65,28.65,0,0,0,23.868,15.422c9.33.578,17.707-1.4,23.72-7.542a2.986,2.986,0,0,1,4.4.114c.007.008.013.019.021.027a2.8,2.8,0,0,0-.541-.952A2.985,2.985,0,0,0,119.961,671.876Z" transform="translate(-72.894 -664.921)" fill="url(#linear-gradient-10)"/>
        </g>
        <g id="Group_755" data-name="Group 755" transform="translate(10.821 25.001)">
          <path id="Path_1154" data-name="Path 1154" d="M65.886,641.2A31.114,31.114,0,0,1,81.1,615.483,31.1,31.1,0,0,0,64.8,641.813c-.468,12.873,13.166,41.928,46.041,32.116q1.8-.62,3.519-1.39C79.72,684.562,65.407,654.388,65.886,641.2Z" transform="translate(-64.789 -615.483)" fill="url(#linear-gradient-11)"/>
        </g>
      </g>
    </g>
    <g id="Group_760" data-name="Group 760" transform="translate(168.141 609.399)">
      <g id="Group_758" data-name="Group 758" transform="translate(0 0)">
        <path id="Path_1155" data-name="Path 1155" d="M213.624,638.514a2.893,2.893,0,0,1-1.9-.6,3.185,3.185,0,0,1-.981-1.323c-.169-.448-.407-1.217-.708-2.287l-3.379-12.532-3.42,12.53c-.3,1.057-.526,1.8-.7,2.259a3.281,3.281,0,0,1-.986,1.342,2.86,2.86,0,0,1-1.9.612,3.107,3.107,0,0,1-1.566-.362,2.762,2.762,0,0,1-1.009-1.016,5.961,5.961,0,0,1-.592-1.461c-.146-.535-.276-1.033-.391-1.49L192.3,618.844a9.126,9.126,0,0,1-.352-2.112,2.317,2.317,0,0,1,.718-1.72,2.435,2.435,0,0,1,1.761-.7,2.044,2.044,0,0,1,1.974.976,9.483,9.483,0,0,1,.793,2.432l2.7,12.039,3.006-11.2a20.294,20.294,0,0,1,.68-2.211,3.472,3.472,0,0,1,1.058-1.42,3.12,3.12,0,0,1,2.02-.615,2.969,2.969,0,0,1,2.021.647,3.441,3.441,0,0,1,.982,1.363c.169.454.4,1.206.677,2.235l3.036,11.208,2.7-12.049a16.193,16.193,0,0,1,.42-1.662,2.937,2.937,0,0,1,.747-1.184,2.192,2.192,0,0,1,1.6-.558,2.458,2.458,0,0,1,1.75.686,2.3,2.3,0,0,1,.729,1.731,9.875,9.875,0,0,1-.351,2.11l-3.792,15.342c-.265,1.056-.479,1.811-.654,2.306a3.358,3.358,0,0,1-.96,1.4A2.844,2.844,0,0,1,213.624,638.514Z" transform="translate(-191.951 -614.315)" fill="url(#linear-gradient-12)"/>
        <path id="Path_1156" data-name="Path 1156" d="M210.41,634.282l-3.683-13.662L203,634.282q-.436,1.554-.692,2.23a2.96,2.96,0,0,1-.893,1.212,2.548,2.548,0,0,1-1.694.536,2.78,2.78,0,0,1-1.406-.319,2.44,2.44,0,0,1-.893-.9,5.62,5.62,0,0,1-.559-1.383q-.218-.8-.389-1.484l-3.792-15.34a8.961,8.961,0,0,1-.342-2.035,2,2,0,0,1,.622-1.492,2.116,2.116,0,0,1,1.538-.607,1.746,1.746,0,0,1,1.694.808,9.137,9.137,0,0,1,.761,2.347l2.983,13.3,3.342-12.449a19.784,19.784,0,0,1,.668-2.176,3.127,3.127,0,0,1,.963-1.29,2.8,2.8,0,0,1,1.819-.544,2.652,2.652,0,0,1,1.811.568,3.1,3.1,0,0,1,.893,1.235q.249.669.668,2.208l3.373,12.449,2.984-13.3a16,16,0,0,1,.412-1.632,2.61,2.61,0,0,1,.668-1.057,1.884,1.884,0,0,1,1.376-.467,2.141,2.141,0,0,1,1.531.6,1.982,1.982,0,0,1,.629,1.5,9.71,9.71,0,0,1-.342,2.035l-3.792,15.34q-.389,1.555-.644,2.277a3.04,3.04,0,0,1-.871,1.266,2.53,2.53,0,0,1-1.733.544,2.577,2.577,0,0,1-1.694-.528,2.861,2.861,0,0,1-.886-1.19Q210.86,635.882,210.41,634.282Z" transform="translate(-192.016 -614.38)" fill="url(#linear-gradient-12)"/>
        <path id="Path_1157" data-name="Path 1157" d="M233.4,638.2a2.722,2.722,0,0,1-3.147-3.147V617.93a4.168,4.168,0,0,1,.325-1.76,2.15,2.15,0,0,1,1.081-1.071,4.217,4.217,0,0,1,1.741-.316h12.184a2.677,2.677,0,0,1,1.855.573,2.139,2.139,0,0,1,0,3.05,2.677,2.677,0,0,1-1.855.573H235.507v4.958h9.256a2.593,2.593,0,0,1,1.791.556,1.926,1.926,0,0,1,.625,1.487,1.988,1.988,0,0,1-.612,1.5,2.536,2.536,0,0,1-1.8.577h-9.256V633.9h10.437a2.664,2.664,0,0,1,1.854.589,2.049,2.049,0,0,1,.656,1.58,2.008,2.008,0,0,1-.656,1.547,2.66,2.66,0,0,1-1.854.589Z" transform="translate(-198.456 -614.395)" fill="url(#linear-gradient-12)"/>
        <path id="Path_1158" data-name="Path 1158" d="M245.652,618.726h-10.4v5.594h9.573a2.282,2.282,0,0,1,1.577.474,1.614,1.614,0,0,1,.521,1.251,1.673,1.673,0,0,1-.513,1.267,2.224,2.224,0,0,1-1.585.49h-9.573v6.481h10.755a2.357,2.357,0,0,1,1.64.5,1.736,1.736,0,0,1,.551,1.345,1.7,1.7,0,0,1-.551,1.313,2.355,2.355,0,0,1-1.64.506H233.467a2.417,2.417,0,0,1-2.829-2.829V618a3.845,3.845,0,0,1,.3-1.624,1.838,1.838,0,0,1,.925-.917,3.887,3.887,0,0,1,1.609-.288h12.184a2.366,2.366,0,0,1,1.64.49,1.653,1.653,0,0,1,.536,1.282,1.672,1.672,0,0,1-.536,1.3A2.369,2.369,0,0,1,245.652,618.726Z" transform="translate(-198.521 -614.46)" fill="url(#linear-gradient-12)"/>
        <path id="Path_1159" data-name="Path 1159" d="M258.906,638.2a3.18,3.18,0,0,1-2.382-.775,3.344,3.344,0,0,1-.733-2.372V617.93a3.285,3.285,0,0,1,.754-2.393,3.24,3.24,0,0,1,2.362-.754h7.382a17.65,17.65,0,0,1,2.882.207,6.377,6.377,0,0,1,2.257.819,5.991,5.991,0,0,1,1.509,1.287,5.7,5.7,0,0,1,1.349,3.726,5.4,5.4,0,0,1-2.94,4.951,5.694,5.694,0,0,1,4.012,5.618A6.591,6.591,0,0,1,274.328,635a6.22,6.22,0,0,1-2.782,2.382,9.775,9.775,0,0,1-2.48.637,24.851,24.851,0,0,1-3.2.182Zm6.776-4.1c2.934,0,4.36-1,4.36-3.054a2.434,2.434,0,0,0-1.066-2.235,6.528,6.528,0,0,0-3.449-.726h-4.484V634.1Zm-.731-9.963a8.229,8.229,0,0,0,2.561-.309,2.216,2.216,0,0,0,1.263-1.094,2.519,2.519,0,0,0,.349-1.31,1.963,1.963,0,0,0-1.043-2,9.159,9.159,0,0,0-3.612-.537h-3.427v5.253Z" transform="translate(-202.793 -614.395)" fill="url(#linear-gradient-12)"/>
        <path id="Path_1160" data-name="Path 1160" d="M265.934,637.951h-6.963a2.88,2.88,0,0,1-2.153-.677,3.037,3.037,0,0,1-.645-2.152V618a2.982,2.982,0,0,1,.661-2.168,2.933,2.933,0,0,1,2.137-.661h7.382a17.3,17.3,0,0,1,2.829.2,6.023,6.023,0,0,1,2.144.777,5.636,5.636,0,0,1,1.43,1.221,5.387,5.387,0,0,1,.948,1.631,5.463,5.463,0,0,1,.326,1.889,5.239,5.239,0,0,1-3.42,5q4.491,1.429,4.492,5.565a6.253,6.253,0,0,1-.98,3.442,5.868,5.868,0,0,1-2.643,2.261,9.362,9.362,0,0,1-2.393.614A24.322,24.322,0,0,1,265.934,637.951Zm-5.144-19.319v5.891h4.227a8.472,8.472,0,0,0,2.666-.327,2.546,2.546,0,0,0,1.438-1.243,2.8,2.8,0,0,0,.389-1.461,2.267,2.267,0,0,0-1.228-2.292,9.372,9.372,0,0,0-3.746-.568Zm4.8,9.2h-4.8v6.652h4.958q4.678,0,4.678-3.372a2.749,2.749,0,0,0-1.212-2.5A6.8,6.8,0,0,0,265.592,627.833Z" transform="translate(-202.858 -614.46)" fill="url(#linear-gradient-12)"/>
        <path id="Path_1161" data-name="Path 1161" d="M303.311,638.593a2.257,2.257,0,0,1-1.744-.758,3.15,3.15,0,0,1-.672-2.172V622.5l-3.025,12.024c-.24.946-.439,1.654-.59,2.1a3.187,3.187,0,0,1-.921,1.339,2.738,2.738,0,0,1-1.891.626,2.774,2.774,0,0,1-2.514-1.4,5.4,5.4,0,0,1-.521-1.279q-.179-.662-.366-1.379L288.041,622.5v13.159a3.173,3.173,0,0,1-.664,2.17,2.456,2.456,0,0,1-3.542.011,3.14,3.14,0,0,1-.674-2.181V617.634a2.557,2.557,0,0,1,.918-2.277,4.049,4.049,0,0,1,2.276-.574h1.43a5.678,5.678,0,0,1,1.991.255,1.885,1.885,0,0,1,1.034,1,13.142,13.142,0,0,1,.657,2.027l3,11.319,3-11.321a13.218,13.218,0,0,1,.656-2.025,1.889,1.889,0,0,1,1.033-1,5.684,5.684,0,0,1,1.991-.255h1.43a4.051,4.051,0,0,1,2.276.574,2.558,2.558,0,0,1,.918,2.277v18.029a3.173,3.173,0,0,1-.664,2.17A2.3,2.3,0,0,1,303.311,638.593Z" transform="translate(-207.441 -614.395)" fill="url(#linear-gradient-12)"/>
        <path id="Path_1162" data-name="Path 1162" d="M291.44,634.516,287.787,620v15.729a2.863,2.863,0,0,1-.583,1.958,2.14,2.14,0,0,1-3.069.007,2.832,2.832,0,0,1-.591-1.966V617.7a2.256,2.256,0,0,1,.778-2.012,3.717,3.717,0,0,1,2.1-.522h1.429a5.455,5.455,0,0,1,1.873.233,1.569,1.569,0,0,1,.862.84,12.992,12.992,0,0,1,.638,1.974l3.31,12.48,3.311-12.48a13.01,13.01,0,0,1,.638-1.974,1.569,1.569,0,0,1,.862-.84,5.448,5.448,0,0,1,1.872-.233h1.43a3.716,3.716,0,0,1,2.1.522,2.258,2.258,0,0,1,.777,2.012v18.029a2.863,2.863,0,0,1-.583,1.958,1.99,1.99,0,0,1-1.562.652,1.941,1.941,0,0,1-1.508-.652,2.836,2.836,0,0,1-.591-1.958V620l-3.652,14.516q-.357,1.415-.583,2.075a2.862,2.862,0,0,1-.832,1.2,2.424,2.424,0,0,1-1.679.544,2.452,2.452,0,0,1-2.237-1.244,5.051,5.051,0,0,1-.49-1.2Q291.626,635.231,291.44,634.516Z" transform="translate(-207.506 -614.46)" fill="url(#linear-gradient-12)"/>
        <path id="Path_1163" data-name="Path 1163" d="M332.579,638.514a2.393,2.393,0,0,1-1.075-.228,2.237,2.237,0,0,1-.76-.616,5.014,5.014,0,0,1-.609-1.1q-.306-.693-.524-1.226l-1.013-2.663h-8.822l-1.011,2.715a10.438,10.438,0,0,1-1.132,2.388,2.039,2.039,0,0,1-1.731.726,2.479,2.479,0,0,1-1.758-.726,2.266,2.266,0,0,1-.767-1.676,3.551,3.551,0,0,1,.17-1.058c.105-.339.281-.813.521-1.407l5.828-14.793.6-1.53a8.027,8.027,0,0,1,.778-1.546,3.365,3.365,0,0,1,1.148-1.055,4,4,0,0,1,3.516,0,3.414,3.414,0,0,1,1.147,1.036,6.937,6.937,0,0,1,.7,1.3q.274.662.695,1.771l5.951,14.7a7.577,7.577,0,0,1,.722,2.559,2.334,2.334,0,0,1-.755,1.678A2.487,2.487,0,0,1,332.579,638.514Zm-5.46-9.932-2.977-8.149-2.922,8.149Z" transform="translate(-212.573 -614.315)" fill="url(#linear-gradient-12)"/>
        <path id="Path_1164" data-name="Path 1164" d="M329.971,635.291l-1.088-2.859H319.62l-1.087,2.921a10.225,10.225,0,0,1-1.089,2.308,1.728,1.728,0,0,1-1.476.6,2.162,2.162,0,0,1-1.538-.637,1.95,1.95,0,0,1-.668-1.446,3.21,3.21,0,0,1,.155-.963q.154-.5.513-1.383l5.828-14.8q.248-.638.6-1.531a7.657,7.657,0,0,1,.746-1.484,3.032,3.032,0,0,1,1.04-.956,3.695,3.695,0,0,1,3.2,0,3.105,3.105,0,0,1,1.042.941,6.671,6.671,0,0,1,.667,1.235q.273.661.692,1.764l5.952,14.7a7.372,7.372,0,0,1,.7,2.44,2.017,2.017,0,0,1-.661,1.453,2.171,2.171,0,0,1-1.592.661,2.061,2.061,0,0,1-.933-.194,1.9,1.9,0,0,1-.652-.529,4.876,4.876,0,0,1-.567-1.025Q330.188,635.82,329.971,635.291Zm-9.138-6.326h6.807l-3.435-9.4Z" transform="translate(-212.638 -614.38)" fill="url(#linear-gradient-12)"/>
        <path id="Path_1165" data-name="Path 1165" d="M351.343,638.514a11.3,11.3,0,0,1-5.723-1.318,7.759,7.759,0,0,1-2.634-2.553,5.884,5.884,0,0,1-1.022-3.147,2.337,2.337,0,0,1,2.386-2.354,2.07,2.07,0,0,1,1.451.55,4.01,4.01,0,0,1,.943,1.5,8.965,8.965,0,0,0,.906,1.753,3.51,3.51,0,0,0,1.307,1.1,4.961,4.961,0,0,0,2.262.439,5.149,5.149,0,0,0,3.144-.893,2.55,2.55,0,0,0,1.154-2.13,2.194,2.194,0,0,0-.6-1.62,4.173,4.173,0,0,0-1.662-1c-.717-.244-1.692-.508-2.9-.784a22,22,0,0,1-4.174-1.366,6.992,6.992,0,0,1-2.749-2.2,5.775,5.775,0,0,1-1.033-3.491,6,6,0,0,1,1.083-3.524,6.809,6.809,0,0,1,3.11-2.358,12.524,12.524,0,0,1,4.688-.809,11.7,11.7,0,0,1,3.732.537,8.02,8.02,0,0,1,2.644,1.443,6.106,6.106,0,0,1,1.555,1.913,4.5,4.5,0,0,1,.5,1.99,2.5,2.5,0,0,1-.662,1.695,2.172,2.172,0,0,1-1.692.768,1.978,1.978,0,0,1-1.425-.485,5.557,5.557,0,0,1-.955-1.377,5.634,5.634,0,0,0-1.414-1.918,4.1,4.1,0,0,0-2.594-.649,4.559,4.559,0,0,0-2.7.726,1.968,1.968,0,0,0-.962,1.63,1.586,1.586,0,0,0,.31.99,2.829,2.829,0,0,0,.923.767,6.6,6.6,0,0,0,1.26.534c.435.132,1.173.328,2.193.587a35.15,35.15,0,0,1,3.516,1,10.976,10.976,0,0,1,2.736,1.362,5.777,5.777,0,0,1,1.809,2.079,6.639,6.639,0,0,1,.649,3.061,7.044,7.044,0,0,1-1.115,3.887,7.411,7.411,0,0,1-3.252,2.7A12.046,12.046,0,0,1,351.343,638.514Z" transform="translate(-217.428 -614.315)" fill="url(#linear-gradient-12)"/>
        <path id="Path_1166" data-name="Path 1166" d="M360.454,631.033a6.7,6.7,0,0,1-1.064,3.714,7.076,7.076,0,0,1-3.117,2.58,11.666,11.666,0,0,1-4.865.932,10.938,10.938,0,0,1-5.564-1.275,7.4,7.4,0,0,1-2.525-2.448,5.551,5.551,0,0,1-.972-2.976,2.017,2.017,0,0,1,2.067-2.037,1.757,1.757,0,0,1,1.235.467,3.679,3.679,0,0,1,.862,1.384,9.159,9.159,0,0,0,.941,1.818,3.809,3.809,0,0,0,1.422,1.2,5.247,5.247,0,0,0,2.408.474,5.433,5.433,0,0,0,3.334-.956,2.875,2.875,0,0,0,1.282-2.385,2.522,2.522,0,0,0-.692-1.842,4.445,4.445,0,0,0-1.786-1.08q-1.1-.374-2.93-.793a21.454,21.454,0,0,1-4.111-1.344,6.646,6.646,0,0,1-2.627-2.1,5.445,5.445,0,0,1-.971-3.3,5.671,5.671,0,0,1,1.026-3.341,6.462,6.462,0,0,1,2.968-2.246,12.164,12.164,0,0,1,4.569-.785,11.305,11.305,0,0,1,3.63.521,7.665,7.665,0,0,1,2.541,1.383,5.767,5.767,0,0,1,1.476,1.81,4.17,4.17,0,0,1,.467,1.85,2.182,2.182,0,0,1-.584,1.483,1.856,1.856,0,0,1-1.453.661,1.669,1.669,0,0,1-1.2-.4,5.312,5.312,0,0,1-.894-1.3,5.908,5.908,0,0,0-1.492-2.013,4.372,4.372,0,0,0-2.8-.722,4.845,4.845,0,0,0-2.883.785,2.285,2.285,0,0,0-1.1,1.888,1.908,1.908,0,0,0,.374,1.181,3.127,3.127,0,0,0,1.025.855,6.939,6.939,0,0,0,1.322.56q.667.2,2.207.59a34.9,34.9,0,0,1,3.489,1,10.586,10.586,0,0,1,2.657,1.321,5.424,5.424,0,0,1,1.709,1.966A6.284,6.284,0,0,1,360.454,631.033Z" transform="translate(-217.493 -614.38)" fill="url(#linear-gradient-12)"/>
        <path id="Path_1167" data-name="Path 1167" d="M375.835,638.593a2.485,2.485,0,0,1-1.905-.8,3.344,3.344,0,0,1-.729-2.329V619.227h-4.718a2.857,2.857,0,0,1-1.97-.6,2.252,2.252,0,0,1,.03-3.252,2.91,2.91,0,0,1,1.94-.589h14.672a2.891,2.891,0,0,1,1.993.611,2.091,2.091,0,0,1,.687,1.619,2.06,2.06,0,0,1-.7,1.615,2.93,2.93,0,0,1-1.983.6h-4.717v16.234a3.357,3.357,0,0,1-.721,2.337A2.454,2.454,0,0,1,375.835,638.593Z" transform="translate(-221.482 -614.395)" fill="url(#linear-gradient-12)"/>
        <path id="Path_1168" data-name="Path 1168" d="M383.22,618.974h-5.035v16.553a3.042,3.042,0,0,1-.638,2.121,2.139,2.139,0,0,1-1.647.692,2.171,2.171,0,0,1-1.671-.7,3.026,3.026,0,0,1-.645-2.113V618.974h-5.036a2.547,2.547,0,0,1-1.756-.521,1.933,1.933,0,0,1,.023-2.775,2.592,2.592,0,0,1,1.733-.513H383.22A2.579,2.579,0,0,1,385,615.7a1.777,1.777,0,0,1,.584,1.383,1.745,1.745,0,0,1-.59,1.376A2.616,2.616,0,0,1,383.22,618.974Z" transform="translate(-221.547 -614.46)" fill="url(#linear-gradient-12)"/>
        <path id="Path_1169" data-name="Path 1169" d="M395.6,638.2a2.723,2.723,0,0,1-3.147-3.147V617.93a4.157,4.157,0,0,1,.326-1.76,2.147,2.147,0,0,1,1.08-1.071,4.221,4.221,0,0,1,1.741-.316h12.185a2.676,2.676,0,0,1,1.854.573,2.137,2.137,0,0,1,0,3.05,2.679,2.679,0,0,1-1.854.573h-10.08v4.958h9.256a2.588,2.588,0,0,1,1.791.557,1.92,1.92,0,0,1,.625,1.486,1.991,1.991,0,0,1-.611,1.5,2.537,2.537,0,0,1-1.806.577h-9.256V633.9h10.437a2.667,2.667,0,0,1,1.855.589,2.052,2.052,0,0,1,.655,1.58,2.009,2.009,0,0,1-.656,1.547,2.657,2.657,0,0,1-1.854.589Z" transform="translate(-226.003 -614.395)" fill="url(#linear-gradient-12)"/>
        <path id="Path_1170" data-name="Path 1170" d="M407.853,618.726h-10.4v5.594h9.574a2.281,2.281,0,0,1,1.577.474,1.611,1.611,0,0,1,.521,1.251,1.673,1.673,0,0,1-.513,1.267,2.228,2.228,0,0,1-1.586.49h-9.574v6.481H408.21a2.356,2.356,0,0,1,1.64.5,1.738,1.738,0,0,1,.552,1.345,1.7,1.7,0,0,1-.552,1.313,2.354,2.354,0,0,1-1.64.506H395.667a2.416,2.416,0,0,1-2.828-2.829V618a3.832,3.832,0,0,1,.3-1.624,1.832,1.832,0,0,1,.924-.917,3.891,3.891,0,0,1,1.609-.288h12.185a2.369,2.369,0,0,1,1.64.49,1.655,1.655,0,0,1,.535,1.282,1.673,1.673,0,0,1-.535,1.3A2.372,2.372,0,0,1,407.853,618.726Z" transform="translate(-226.068 -614.46)" fill="url(#linear-gradient-12)"/>
        <path id="Path_1171" data-name="Path 1171" d="M435.048,638.593a2.558,2.558,0,0,1-1.487-.422,3.869,3.869,0,0,1-.991-1.007c-.257-.378-.608-.937-1.043-1.663l-1.85-3.077a16.724,16.724,0,0,0-1.745-2.534,4.1,4.1,0,0,0-1.474-1.128,5.2,5.2,0,0,0-1.916-.3h-1.3v7a3.355,3.355,0,0,1-.722,2.346,2.487,2.487,0,0,1-1.9.785,2.432,2.432,0,0,1-1.952-.827,3.477,3.477,0,0,1-.682-2.3V617.93a2.73,2.73,0,0,1,3.147-3.147h7.506a23.184,23.184,0,0,1,2.7.134,7.068,7.068,0,0,1,2.084.563,6.1,6.1,0,0,1,1.991,1.355,5.994,5.994,0,0,1,1.321,2.06,6.835,6.835,0,0,1,.449,2.469,6.022,6.022,0,0,1-1.524,4.29,8.008,8.008,0,0,1-3.772,2.068,9.485,9.485,0,0,1,1.767,1.592,19.977,19.977,0,0,1,2.029,2.756,20.463,20.463,0,0,1,1.39,2.638,5.184,5.184,0,0,1,.515,1.717,1.948,1.948,0,0,1-.339,1.067,2.35,2.35,0,0,1-.906.809A2.811,2.811,0,0,1,435.048,638.593Zm-7.988-14.08a11.329,11.329,0,0,0,2.719-.278,2.984,2.984,0,0,0,1.571-.879,2.524,2.524,0,0,0,.521-1.7,2.647,2.647,0,0,0-.428-1.494,2.581,2.581,0,0,0-1.195-.963,9.445,9.445,0,0,0-3.063-.318h-3.94v5.627Z" transform="translate(-230.339 -614.395)" fill="url(#linear-gradient-12)"/>
        <path id="Path_1172" data-name="Path 1172" d="M424.607,628.206h-1.617v7.321a3.036,3.036,0,0,1-.638,2.128,2.167,2.167,0,0,1-1.663.684,2.116,2.116,0,0,1-1.709-.715,3.166,3.166,0,0,1-.606-2.1V618a2.423,2.423,0,0,1,2.828-2.829h7.506a22.875,22.875,0,0,1,2.657.133,6.725,6.725,0,0,1,1.99.535,5.787,5.787,0,0,1,1.9,1.29,5.652,5.652,0,0,1,1.25,1.951,6.483,6.483,0,0,1,.428,2.354,5.69,5.69,0,0,1-1.438,4.072,8.249,8.249,0,0,1-4.359,2.16,8.444,8.444,0,0,1,2.346,1.928,19.614,19.614,0,0,1,2,2.712,19.971,19.971,0,0,1,1.367,2.6,5.112,5.112,0,0,1,.49,1.593,1.624,1.624,0,0,1-.288.894,2.018,2.018,0,0,1-.784.7,2.475,2.475,0,0,1-1.15.257,2.24,2.24,0,0,1-1.305-.365,3.484,3.484,0,0,1-.91-.925q-.38-.558-1.033-1.647l-1.849-3.078a16.933,16.933,0,0,0-1.78-2.58,4.386,4.386,0,0,0-1.593-1.212A5.468,5.468,0,0,0,424.607,628.206Zm2.641-9.574h-4.258V624.9h4.134a11.594,11.594,0,0,0,2.8-.287,3.281,3.281,0,0,0,1.733-.979,2.814,2.814,0,0,0,.6-1.9,2.878,2.878,0,0,0-1.819-2.751A9.632,9.632,0,0,0,427.249,618.632Z" transform="translate(-230.405 -614.46)" fill="url(#linear-gradient-12)"/>
      </g>
      <g id="Group_759" data-name="Group 759" transform="translate(0 33.421)">
        <path id="Path_1173" data-name="Path 1173" d="M194.926,656.408l3.124,9.252,3.134-9.317q.245-.735.368-1.022a1.354,1.354,0,0,1,.4-.517,1.186,1.186,0,0,1,.772-.231,1.3,1.3,0,0,1,.663.179,1.322,1.322,0,0,1,.48.475,1.173,1.173,0,0,1,.174.6,1.978,1.978,0,0,1-.056.448,4.279,4.279,0,0,1-.141.471c-.056.153-.113.312-.169.475l-3.341,9.016q-.179.518-.358.984a4.157,4.157,0,0,1-.413.818,1.807,1.807,0,0,1-1.581.805,1.911,1.911,0,0,1-.955-.222,1.818,1.818,0,0,1-.63-.584,4.283,4.283,0,0,1-.419-.823q-.178-.461-.357-.979l-3.285-8.94q-.085-.245-.174-.48a3.8,3.8,0,0,1-.15-.509,2.178,2.178,0,0,1-.061-.461,1.226,1.226,0,0,1,.386-.875,1.3,1.3,0,0,1,.97-.4,1.133,1.133,0,0,1,1.012.438A5.833,5.833,0,0,1,194.926,656.408Z" transform="translate(-191.951 -654.573)" fill="url(#linear-gradient-12)"/>
        <path id="Path_1174" data-name="Path 1174" d="M209.183,667.138v-10.87a1.831,1.831,0,0,1,.386-1.27,1.287,1.287,0,0,1,1-.424,1.332,1.332,0,0,1,1.021.419,1.814,1.814,0,0,1,.391,1.275v10.87a1.831,1.831,0,0,1-.391,1.279,1.326,1.326,0,0,1-1.021.424,1.285,1.285,0,0,1-.993-.428A1.834,1.834,0,0,1,209.183,667.138Z" transform="translate(-194.878 -654.573)" fill="url(#linear-gradient-31)"/>
        <path id="Path_1175" data-name="Path 1175" d="M225.4,657.012h-6.3V660.4h5.8a1.377,1.377,0,0,1,.955.287.976.976,0,0,1,.316.757,1.015,1.015,0,0,1-.31.768,1.351,1.351,0,0,1-.96.3h-5.8v3.925h6.513a1.426,1.426,0,0,1,.993.306,1.052,1.052,0,0,1,.335.814,1.029,1.029,0,0,1-.335.8,1.427,1.427,0,0,1-.993.306h-7.594a1.463,1.463,0,0,1-1.713-1.713V656.57a2.318,2.318,0,0,1,.179-.983,1.106,1.106,0,0,1,.56-.556,2.364,2.364,0,0,1,.974-.174H225.4a1.433,1.433,0,0,1,.993.3,1,1,0,0,1,.325.776,1.015,1.015,0,0,1-.325.786A1.434,1.434,0,0,1,225.4,657.012Z" transform="translate(-196.088 -654.621)" fill="url(#linear-gradient-12)"/>
        <path id="Path_1176" data-name="Path 1176" d="M240.485,657.163h-3.049v10.023a1.846,1.846,0,0,1-.385,1.284,1.3,1.3,0,0,1-1,.419,1.316,1.316,0,0,1-1.012-.424,1.831,1.831,0,0,1-.39-1.279V657.163H231.6a1.541,1.541,0,0,1-1.063-.315,1.07,1.07,0,0,1-.349-.833,1.058,1.058,0,0,1,.363-.847,1.57,1.57,0,0,1,1.049-.311h8.884a1.567,1.567,0,0,1,1.078.32,1.077,1.077,0,0,1,.353.838,1.058,1.058,0,0,1-.357.833A1.585,1.585,0,0,1,240.485,657.163Z" transform="translate(-198.445 -654.621)" fill="url(#linear-gradient-12)"/>
        <path id="Path_1177" data-name="Path 1177" d="M255.764,656.248l5.374,8.132v-8.206a1.8,1.8,0,0,1,.344-1.2,1.158,1.158,0,0,1,.927-.4,1.2,1.2,0,0,1,.951.4,1.789,1.789,0,0,1,.348,1.2v10.851q0,1.816-1.506,1.816a2,2,0,0,1-.677-.109,1.719,1.719,0,0,1-.565-.344,3.339,3.339,0,0,1-.49-.55c-.15-.21-.3-.426-.452-.644l-5.242-8.038v8.084a1.728,1.728,0,0,1-.367,1.2,1.214,1.214,0,0,1-.941.405,1.2,1.2,0,0,1-.951-.409,1.763,1.763,0,0,1-.358-1.192V656.6a3.013,3.013,0,0,1,.151-1.063,1.51,1.51,0,0,1,.593-.692,1.608,1.608,0,0,1,.894-.269,1.467,1.467,0,0,1,1.115.452,3.352,3.352,0,0,1,.414.537C255.467,655.782,255.613,656.01,255.764,656.248Z" transform="translate(-202.176 -654.573)" fill="url(#linear-gradient-12)"/>
        <path id="Path_1178" data-name="Path 1178" d="M278.073,667.043l-.659-1.732h-5.609l-.659,1.77a6.19,6.19,0,0,1-.659,1.4,1.047,1.047,0,0,1-.894.363,1.311,1.311,0,0,1-.932-.386,1.178,1.178,0,0,1-.405-.876,1.972,1.972,0,0,1,.094-.583c.063-.2.166-.481.311-.838l3.529-8.96q.149-.385.362-.926a4.628,4.628,0,0,1,.452-.9,1.822,1.822,0,0,1,.63-.579,1.925,1.925,0,0,1,.965-.222,1.945,1.945,0,0,1,.974.222,1.867,1.867,0,0,1,.631.569,4.031,4.031,0,0,1,.4.749q.165.4.419,1.068l3.6,8.9a4.472,4.472,0,0,1,.424,1.478,1.222,1.222,0,0,1-.4.879,1.313,1.313,0,0,1-.965.4,1.25,1.25,0,0,1-.565-.118,1.153,1.153,0,0,1-.4-.32,2.908,2.908,0,0,1-.344-.621Q278.2,667.363,278.073,667.043Zm-5.534-3.831h4.123l-2.08-5.693Z" transform="translate(-204.91 -654.573)" fill="url(#linear-gradient-12)"/>
        <path id="Path_1179" data-name="Path 1179" d="M290.78,666.574l-2.213-8.79v9.524a1.727,1.727,0,0,1-.353,1.185,1.294,1.294,0,0,1-1.859.005,1.716,1.716,0,0,1-.357-1.19V656.391a1.367,1.367,0,0,1,.47-1.219,2.249,2.249,0,0,1,1.271-.316h.866a3.3,3.3,0,0,1,1.134.141.951.951,0,0,1,.522.508,7.922,7.922,0,0,1,.386,1.2l2,7.557,2-7.557a7.964,7.964,0,0,1,.386-1.2.949.949,0,0,1,.522-.508,3.3,3.3,0,0,1,1.134-.141h.866a2.253,2.253,0,0,1,1.271.316,1.369,1.369,0,0,1,.47,1.219v10.917a1.731,1.731,0,0,1-.353,1.185,1.2,1.2,0,0,1-.945.4,1.175,1.175,0,0,1-.913-.4,1.716,1.716,0,0,1-.358-1.185v-9.524l-2.212,8.79q-.216.857-.352,1.256a1.737,1.737,0,0,1-.5.729,1.471,1.471,0,0,1-1.017.33,1.492,1.492,0,0,1-1.355-.753,3.112,3.112,0,0,1-.3-.73Q290.893,667.008,290.78,666.574Z" transform="translate(-207.923 -654.621)" fill="url(#linear-gradient-12)"/>
      </g>
    </g>
  </g>
</svg>
