<?xml version="1.0" encoding="UTF-8" standalone="no" ?>
<!DOCTYPE svg PUBLIC "-//W3C//DTD SVG 1.1//EN" "http://www.w3.org/Graphics/SVG/1.1/DTD/svg11.dtd">
<svg xmlns="http://www.w3.org/2000/svg" xmlns:xlink="http://www.w3.org/1999/xlink" version="1.1" width="1024" height="1024" viewBox="0 0 1280 1024" xml:space="preserve">
<desc>Created with Fabric.js 3.6.3</desc>
<defs>
</defs>
<g transform="matrix(1.9662058371735789 0 0 1.9662058371735789 640.2456813819576 512.1966205837173)" id="background-logo"  >
<rect style="stroke: none; stroke-width: 1; stroke-dasharray: none; stroke-linecap: butt; stroke-dashoffset: 0; stroke-linejoin: miter; stroke-miterlimit: 4; fill: rgb(255,255,255); fill-rule: nonzero; opacity: 1;"  paint-order="stroke"  x="-325" y="-260" rx="0" ry="0" width="650" height="520" />
</g>
<g transform="matrix(1.969987002245067 0 0 1.969987002245067 638.8701533481635 683.1460397364677)" id="text-logo-path"  >
<path style="stroke: none; stroke-width: 0; stroke-dasharray: none; stroke-linecap: butt; stroke-dashoffset: 0; stroke-linejoin: miter; stroke-miterlimit: 4; fill: rgb(36,105,179); fill-rule: nonzero; opacity: 1;"  paint-order="stroke"  transform=" translate(-194.29999999999998, 22.09)" d="M 17.2 -36.18 L 12.5 -19.17 L 22.6 -19.17 L 17.9 -36.18 L 17.2 -36.18 Z M 25.83 -38.47 L 32.44 -16.06 Q 32.5 -13.9 32.6 -11.65 Q 32.69 -9.39 32.69 -7.3 L 32.69 -7.3 L 32.69 -6.35 Q 32.69 -5.14 32.61 -4.01 Q 32.53 -2.89 32.12 -1.98 Q 31.71 -1.08 30.82 -0.54 Q 29.93 0 28.31 0 L 28.31 0 Q 26.66 0 25.77 -0.54 Q 24.88 -1.08 24.45 -1.97 Q 24.03 -2.86 23.95 -4 Q 23.87 -5.14 23.87 -6.35 L 23.87 -6.35 L 23.87 -10.79 L 11.17 -10.79 L 11.17 -6.35 Q 11.17 -5.14 11.09 -4 Q 11.01 -2.86 10.58 -1.97 Q 10.16 -1.08 9.27 -0.54 Q 8.38 0 6.73 0 L 6.73 0 Q 5.08 0 4.19 -0.54 Q 3.3 -1.08 2.89 -1.98 Q 2.48 -2.89 2.41 -4.01 Q 2.35 -5.14 2.35 -6.35 L 2.35 -6.35 L 2.35 -7.3 Q 2.35 -8.28 2.36 -9.39 Q 2.38 -10.51 2.41 -11.65 Q 2.44 -12.79 2.48 -13.92 Q 2.51 -15.04 2.54 -16.06 L 2.54 -16.06 Q 4.13 -21.58 5.87 -27.25 Q 7.62 -32.91 9.2 -38.47 L 9.2 -38.47 Q 9.52 -39.64 9.97 -40.74 Q 10.41 -41.83 11.14 -42.64 Q 11.87 -43.45 13.01 -43.94 Q 14.16 -44.43 15.93 -44.43 L 15.93 -44.43 L 19.11 -44.43 Q 20.85 -44.43 22.01 -43.94 Q 23.17 -43.45 23.9 -42.64 Q 24.63 -41.83 25.06 -40.74 Q 25.49 -39.64 25.83 -38.47 L 25.83 -38.47 Z M 65.7 -20.44 L 65.7 -7.24 Q 65.7 -5.87 65.54 -4.57 Q 65.38 -3.27 64.86 -2.25 Q 64.33 -1.24 63.37 -0.62 Q 62.4 0 60.75 0 L 60.75 0 Q 59.13 0 58.18 -0.62 Q 57.22 -1.24 56.72 -2.25 Q 56.21 -3.27 56.07 -4.57 Q 55.92 -5.87 55.92 -7.24 L 55.92 -7.24 L 55.92 -19.61 Q 55.92 -20.5 55.84 -21.36 Q 55.76 -22.22 55.48 -22.87 Q 55.19 -23.52 54.64 -23.91 Q 54.08 -24.31 53.13 -24.31 L 53.13 -24.31 Q 51.83 -24.31 51.04 -23.45 Q 50.24 -22.6 49.78 -21.11 Q 49.32 -19.61 49.16 -17.6 Q 49 -15.58 49 -13.27 L 49 -13.27 L 49 -7.24 Q 49 -5.87 48.85 -4.57 Q 48.69 -3.27 48.16 -2.25 Q 47.64 -1.24 46.67 -0.62 Q 45.7 0 44.05 0 L 44.05 0 Q 42.43 0 41.48 -0.62 Q 40.53 -1.24 40.02 -2.25 Q 39.51 -3.27 39.37 -4.57 Q 39.23 -5.87 39.23 -7.24 L 39.23 -7.24 L 39.23 -24.57 Q 39.23 -25.93 39.32 -27.22 Q 39.42 -28.5 39.9 -29.5 Q 40.37 -30.5 41.34 -31.12 Q 42.31 -31.74 44.05 -31.74 L 44.05 -31.74 Q 45.8 -31.74 46.78 -31.15 Q 47.77 -30.56 48.26 -29.74 Q 48.75 -28.91 48.88 -27.99 Q 49 -27.07 49 -26.41 L 49 -26.41 Q 49.26 -27.33 49.8 -28.28 Q 50.34 -29.23 51.18 -29.99 Q 52.02 -30.75 53.19 -31.25 Q 54.37 -31.74 55.92 -31.74 L 55.92 -31.74 Q 57.67 -31.74 59.41 -31.17 Q 61.16 -30.6 62.56 -29.26 Q 63.95 -27.93 64.83 -25.77 Q 65.7 -23.61 65.7 -20.44 L 65.7 -20.44 Z M 98.33 -24.5 L 98.33 -7.17 Q 98.33 -5.84 98.23 -4.55 Q 98.13 -3.27 97.66 -2.25 Q 97.18 -1.24 96.23 -0.62 Q 95.28 0 93.56 0 L 93.56 0 Q 91.82 0 90.83 -0.59 Q 89.85 -1.17 89.38 -2.02 Q 88.9 -2.86 88.79 -3.78 Q 88.68 -4.7 88.68 -5.33 L 88.68 -5.33 Q 88.39 -4.41 87.87 -3.46 Q 87.34 -2.51 86.52 -1.75 Q 85.69 -0.98 84.53 -0.49 Q 83.38 0 81.82 0 L 81.82 0 Q 80.08 0 78.33 -0.57 Q 76.58 -1.14 75.19 -2.48 Q 73.79 -3.81 72.92 -5.95 Q 72.05 -8.09 72.05 -11.24 L 72.05 -11.24 L 72.05 -20.44 Q 72.05 -23.61 72.92 -25.76 Q 73.79 -27.9 75.19 -29.22 Q 76.58 -30.53 78.33 -31.1 Q 80.08 -31.67 81.82 -31.67 L 81.82 -31.67 Q 83.38 -31.67 84.53 -31.2 Q 85.69 -30.72 86.52 -29.96 Q 87.34 -29.2 87.87 -28.25 Q 88.39 -27.29 88.68 -26.34 L 88.68 -26.34 Q 88.68 -27.93 89.12 -28.98 Q 89.57 -30.02 90.26 -30.64 Q 90.96 -31.26 91.83 -31.5 Q 92.71 -31.74 93.56 -31.74 L 93.56 -31.74 Q 95.15 -31.74 96.1 -31.12 Q 97.06 -30.5 97.55 -29.5 Q 98.04 -28.5 98.18 -27.18 Q 98.33 -25.87 98.33 -24.5 L 98.33 -24.5 Z M 81.82 -19.74 L 81.82 -12.06 Q 81.82 -11.2 81.88 -10.38 Q 81.95 -9.55 82.23 -8.89 Q 82.52 -8.22 83.07 -7.82 Q 83.63 -7.43 84.61 -7.43 L 84.61 -7.43 Q 85.85 -7.43 86.63 -7.98 Q 87.41 -8.54 87.85 -9.7 Q 88.3 -10.85 88.47 -12.62 Q 88.65 -14.38 88.68 -16.82 L 88.68 -16.82 Q 88.68 -17.81 88.5 -19.09 Q 88.33 -20.38 87.88 -21.52 Q 87.44 -22.66 86.65 -23.45 Q 85.85 -24.25 84.61 -24.25 L 84.61 -24.25 Q 83.63 -24.25 83.07 -23.85 Q 82.52 -23.45 82.23 -22.82 Q 81.95 -22.19 81.88 -21.38 Q 81.82 -20.57 81.82 -19.74 L 81.82 -19.74 Z M 132.41 -20.44 L 132.41 -7.24 Q 132.41 -5.87 132.25 -4.57 Q 132.09 -3.27 131.57 -2.25 Q 131.05 -1.24 130.08 -0.62 Q 129.11 0 127.46 0 L 127.46 0 Q 125.84 0 124.89 -0.62 Q 123.94 -1.24 123.43 -2.25 Q 122.92 -3.27 122.78 -4.57 Q 122.64 -5.87 122.64 -7.24 L 122.64 -7.24 L 122.64 -19.61 Q 122.64 -20.5 122.56 -21.36 Q 122.48 -22.22 122.19 -22.87 Q 121.91 -23.52 121.35 -23.91 Q 120.8 -24.31 119.84 -24.31 L 119.84 -24.31 Q 118.54 -24.31 117.75 -23.45 Q 116.96 -22.6 116.5 -21.11 Q 116.04 -19.61 115.88 -17.6 Q 115.72 -15.58 115.72 -13.27 L 115.72 -13.27 L 115.72 -7.24 Q 115.72 -5.87 115.56 -4.57 Q 115.4 -3.27 114.88 -2.25 Q 114.35 -1.24 113.39 -0.62 Q 112.42 0 110.77 0 L 110.77 0 Q 109.15 0 108.2 -0.62 Q 107.24 -1.24 106.74 -2.25 Q 106.23 -3.27 106.09 -4.57 Q 105.94 -5.87 105.94 -7.24 L 105.94 -7.24 L 105.94 -24.57 Q 105.94 -25.93 106.04 -27.22 Q 106.13 -28.5 106.61 -29.5 Q 107.08 -30.5 108.05 -31.12 Q 109.02 -31.74 110.77 -31.74 L 110.77 -31.74 Q 112.51 -31.74 113.5 -31.15 Q 114.48 -30.56 114.97 -29.74 Q 115.46 -28.91 115.59 -27.99 Q 115.72 -27.07 115.72 -26.41 L 115.72 -26.41 Q 115.97 -27.33 116.51 -28.28 Q 117.05 -29.23 117.89 -29.99 Q 118.73 -30.75 119.91 -31.25 Q 121.08 -31.74 122.64 -31.74 L 122.64 -31.74 Q 124.38 -31.74 126.13 -31.17 Q 127.87 -30.6 129.27 -29.26 Q 130.67 -27.93 131.54 -25.77 Q 132.41 -23.61 132.41 -20.44 L 132.41 -20.44 Z M 168.97 -44.43 L 185.1 -44.43 Q 186.37 -44.43 187.65 -44.34 Q 188.94 -44.24 189.99 -43.8 Q 191.03 -43.35 191.68 -42.45 Q 192.33 -41.55 192.33 -39.93 L 192.33 -39.93 Q 192.33 -38.34 191.68 -37.44 Q 191.03 -36.53 189.99 -36.09 Q 188.94 -35.64 187.65 -35.53 Q 186.37 -35.42 185.1 -35.42 L 185.1 -35.42 L 181.86 -35.42 L 181.86 -7.24 Q 181.86 -5.87 181.78 -4.57 Q 181.7 -3.27 181.26 -2.25 Q 180.81 -1.24 179.83 -0.62 Q 178.85 0 177.04 0 L 177.04 0 Q 175.23 0 174.24 -0.62 Q 173.26 -1.24 172.81 -2.25 Q 172.37 -3.27 172.29 -4.57 Q 172.21 -5.87 172.21 -7.24 L 172.21 -7.24 L 172.21 -35.42 L 168.97 -35.42 Q 167.71 -35.42 166.42 -35.53 Q 165.13 -35.64 164.09 -36.09 Q 163.04 -36.53 162.39 -37.44 Q 161.74 -38.34 161.74 -39.93 L 161.74 -39.93 Q 161.74 -41.55 162.39 -42.45 Q 163.04 -43.35 164.09 -43.8 Q 165.13 -44.24 166.42 -44.34 Q 167.71 -44.43 168.97 -44.43 L 168.97 -44.43 Z M 222.29 -20.06 L 222.29 -18.09 Q 222.29 -17.58 222.23 -16.9 Q 222.17 -16.22 221.74 -15.6 Q 221.31 -14.98 220.39 -14.54 Q 219.47 -14.09 217.79 -14.09 L 217.79 -14.09 L 205.16 -14.09 L 205.16 -11.04 Q 205.16 -10.28 205.35 -9.46 Q 205.54 -8.63 206 -7.93 Q 206.46 -7.24 207.22 -6.79 Q 207.98 -6.35 209.09 -6.35 L 209.09 -6.35 Q 210.36 -6.35 211.04 -6.65 Q 211.73 -6.95 212.12 -7.4 Q 212.52 -7.84 212.84 -8.35 Q 213.15 -8.85 213.68 -9.3 Q 214.2 -9.74 215.14 -10.05 Q 216.07 -10.35 217.72 -10.35 L 217.72 -10.35 Q 218.52 -10.35 219.26 -10.22 Q 220.01 -10.09 220.58 -9.74 Q 221.15 -9.39 221.5 -8.78 Q 221.85 -8.16 221.85 -7.17 L 221.85 -7.17 Q 221.85 -5.11 220.55 -3.73 Q 219.25 -2.35 217.28 -1.52 Q 215.31 -0.7 213.01 -0.35 Q 210.71 0 208.71 0 L 208.71 0 Q 206.08 -0.03 203.7 -0.67 Q 201.32 -1.3 199.49 -2.7 Q 197.67 -4.09 196.59 -6.35 Q 195.51 -8.6 195.51 -11.87 L 195.51 -11.87 L 195.51 -19.3 Q 195.51 -22.31 196.22 -24.41 Q 196.94 -26.5 198.08 -27.9 Q 199.22 -29.29 200.65 -30.07 Q 202.08 -30.85 203.54 -31.23 Q 205 -31.61 206.31 -31.71 Q 207.63 -31.8 208.58 -31.8 L 208.58 -31.8 Q 211.79 -31.8 214.06 -31.23 Q 216.33 -30.66 217.85 -29.74 Q 219.38 -28.82 220.26 -27.61 Q 221.15 -26.41 221.6 -25.12 Q 222.04 -23.84 222.17 -22.52 Q 222.29 -21.2 222.29 -20.06 L 222.29 -20.06 Z M 205.16 -21.07 L 205.16 -18.85 L 213.09 -18.85 Q 213.09 -20.34 213.01 -21.5 Q 212.93 -22.66 212.54 -23.45 Q 212.14 -24.25 211.3 -24.66 Q 210.46 -25.07 208.9 -25.07 L 208.9 -25.07 Q 207.6 -25.07 206.85 -24.66 Q 206.11 -24.25 205.73 -23.63 Q 205.35 -23.01 205.25 -22.31 Q 205.16 -21.61 205.16 -21.07 L 205.16 -21.07 Z M 229.4 -7.11 L 229.4 -37.39 Q 229.4 -38.72 229.55 -39.99 Q 229.69 -41.26 230.2 -42.24 Q 230.71 -43.23 231.66 -43.83 Q 232.61 -44.43 234.23 -44.43 L 234.23 -44.43 Q 235.88 -44.43 236.83 -43.83 Q 237.78 -43.23 238.28 -42.24 Q 238.77 -41.26 238.91 -39.99 Q 239.05 -38.72 239.05 -37.39 L 239.05 -37.39 L 239.05 -7.11 Q 239.05 -5.78 238.91 -4.49 Q 238.77 -3.21 238.28 -2.21 Q 237.78 -1.21 236.83 -0.6 Q 235.88 0 234.23 0 L 234.23 0 Q 232.61 0 231.66 -0.6 Q 230.71 -1.21 230.2 -2.21 Q 229.69 -3.21 229.55 -4.49 Q 229.4 -5.78 229.4 -7.11 L 229.4 -7.11 Z M 273.27 -20.06 L 273.27 -18.09 Q 273.27 -17.58 273.2 -16.9 Q 273.14 -16.22 272.71 -15.6 Q 272.28 -14.98 271.36 -14.54 Q 270.44 -14.09 268.76 -14.09 L 268.76 -14.09 L 256.13 -14.09 L 256.13 -11.04 Q 256.13 -10.28 256.32 -9.46 Q 256.51 -8.63 256.97 -7.93 Q 257.43 -7.24 258.19 -6.79 Q 258.95 -6.35 260.06 -6.35 L 260.06 -6.35 Q 261.33 -6.35 262.02 -6.65 Q 262.7 -6.95 263.09 -7.4 Q 263.49 -7.84 263.81 -8.35 Q 264.13 -8.85 264.65 -9.3 Q 265.17 -9.74 266.11 -10.05 Q 267.05 -10.35 268.7 -10.35 L 268.7 -10.35 Q 269.49 -10.35 270.24 -10.22 Q 270.98 -10.09 271.55 -9.74 Q 272.12 -9.39 272.47 -8.78 Q 272.82 -8.16 272.82 -7.17 L 272.82 -7.17 Q 272.82 -5.11 271.52 -3.73 Q 270.22 -2.35 268.25 -1.52 Q 266.28 -0.7 263.98 -0.35 Q 261.68 0 259.68 0 L 259.68 0 Q 257.05 -0.03 254.67 -0.67 Q 252.29 -1.3 250.46 -2.7 Q 248.64 -4.09 247.56 -6.35 Q 246.48 -8.6 246.48 -11.87 L 246.48 -11.87 L 246.48 -19.3 Q 246.48 -22.31 247.19 -24.41 Q 247.91 -26.5 249.05 -27.9 Q 250.19 -29.29 251.62 -30.07 Q 253.05 -30.85 254.51 -31.23 Q 255.97 -31.61 257.29 -31.71 Q 258.6 -31.8 259.56 -31.8 L 259.56 -31.8 Q 262.76 -31.8 265.03 -31.23 Q 267.3 -30.66 268.82 -29.74 Q 270.35 -28.82 271.24 -27.61 Q 272.12 -26.41 272.57 -25.12 Q 273.01 -23.84 273.14 -22.52 Q 273.27 -21.2 273.27 -20.06 L 273.27 -20.06 Z M 256.13 -21.07 L 256.13 -18.85 L 264.06 -18.85 Q 264.06 -20.34 263.98 -21.5 Q 263.9 -22.66 263.51 -23.45 Q 263.11 -24.25 262.27 -24.66 Q 261.43 -25.07 259.87 -25.07 L 259.87 -25.07 Q 258.57 -25.07 257.83 -24.66 Q 257.08 -24.25 256.7 -23.63 Q 256.32 -23.01 256.22 -22.31 Q 256.13 -21.61 256.13 -21.07 L 256.13 -21.07 Z M 288.25 -20.82 L 288.25 -10.98 Q 288.25 -10.47 288.34 -9.7 Q 288.44 -8.92 288.79 -8.17 Q 289.14 -7.43 289.82 -6.89 Q 290.5 -6.35 291.67 -6.35 L 291.67 -6.35 Q 293.07 -6.35 293.86 -6.67 Q 294.66 -6.98 295.04 -7.54 Q 295.42 -8.09 295.52 -8.84 Q 295.61 -9.58 295.61 -10.41 L 295.61 -10.41 Q 295.61 -10.82 295.75 -11.35 Q 295.9 -11.87 296.44 -12.33 Q 296.98 -12.79 298.04 -13.09 Q 299.1 -13.39 300.94 -13.39 L 300.94 -13.39 Q 302.62 -13.39 303.54 -13.01 Q 304.47 -12.63 304.89 -12.11 Q 305.32 -11.58 305.39 -11.03 Q 305.45 -10.47 305.45 -10.16 L 305.45 -10.16 Q 305.45 -8.13 304.83 -6.59 Q 304.21 -5.05 303.16 -3.92 Q 302.12 -2.79 300.75 -2.03 Q 299.39 -1.27 297.85 -0.83 Q 296.31 -0.38 294.72 -0.19 Q 293.13 0 291.67 0 L 291.67 0 Q 289.17 0 286.82 -0.67 Q 284.47 -1.33 282.65 -2.76 Q 280.82 -4.19 279.71 -6.43 Q 278.6 -8.66 278.6 -11.81 L 278.6 -11.81 L 278.6 -19.23 Q 278.6 -22.25 279.31 -24.34 Q 280.03 -26.44 281.17 -27.83 Q 282.31 -29.23 283.74 -30.01 Q 285.17 -30.79 286.63 -31.17 Q 288.09 -31.55 289.41 -31.64 Q 290.72 -31.74 291.67 -31.74 L 291.67 -31.74 Q 294.5 -31.74 296.61 -31.26 Q 298.72 -30.79 300.24 -29.99 Q 301.77 -29.2 302.77 -28.17 Q 303.77 -27.14 304.34 -25.99 Q 304.91 -24.85 305.15 -23.71 Q 305.39 -22.57 305.39 -21.58 L 305.39 -21.58 Q 305.39 -21.07 305.32 -20.39 Q 305.26 -19.71 304.83 -19.09 Q 304.4 -18.47 303.48 -18.03 Q 302.56 -17.58 300.88 -17.58 L 300.88 -17.58 Q 300.28 -17.58 299.37 -17.63 Q 298.47 -17.68 297.61 -17.96 Q 296.75 -18.25 296.15 -18.85 Q 295.55 -19.46 295.55 -20.57 L 295.55 -20.57 Q 295.55 -21.33 295.47 -22.04 Q 295.39 -22.76 295.01 -23.3 Q 294.63 -23.84 293.85 -24.17 Q 293.07 -24.5 291.67 -24.5 L 291.67 -24.5 Q 290.5 -24.5 289.82 -24.12 Q 289.14 -23.74 288.79 -23.17 Q 288.44 -22.6 288.34 -21.96 Q 288.25 -21.33 288.25 -20.82 L 288.25 -20.82 Z M 310.15 -11.93 L 310.15 -19.8 Q 310.15 -22.72 310.94 -24.76 Q 311.73 -26.79 312.99 -28.15 Q 314.24 -29.52 315.78 -30.28 Q 317.32 -31.04 318.81 -31.42 Q 320.3 -31.8 321.59 -31.9 Q 322.87 -31.99 323.6 -31.99 L 323.6 -31.99 Q 324.33 -31.99 325.6 -31.9 Q 326.87 -31.8 328.32 -31.42 Q 329.76 -31.04 331.24 -30.28 Q 332.71 -29.52 333.9 -28.15 Q 335.09 -26.79 335.85 -24.76 Q 336.62 -22.72 336.62 -19.8 L 336.62 -19.8 L 336.62 -11.93 Q 336.62 -9.01 335.85 -6.98 Q 335.09 -4.95 333.9 -3.59 Q 332.71 -2.22 331.24 -1.46 Q 329.76 -0.7 328.32 -0.32 Q 326.87 0.06 325.6 0.16 Q 324.33 0.25 323.6 0.25 L 323.6 0.25 Q 322.87 0.25 321.59 0.16 Q 320.3 0.06 318.81 -0.32 Q 317.32 -0.7 315.78 -1.46 Q 314.24 -2.22 312.99 -3.59 Q 311.73 -4.95 310.94 -6.98 Q 310.15 -9.01 310.15 -11.93 L 310.15 -11.93 Z M 319.92 -21.2 L 319.92 -9.71 Q 319.95 -8.79 320.37 -8.09 L 320.37 -8.09 Q 320.72 -7.46 321.46 -6.97 Q 322.21 -6.47 323.6 -6.47 L 323.6 -6.47 Q 324.94 -6.47 325.65 -6.97 Q 326.36 -7.46 326.71 -8.09 L 326.71 -8.09 Q 327.09 -8.79 327.16 -9.71 L 327.16 -9.71 L 327.16 -21.2 Q 327.09 -22.15 326.71 -22.95 L 326.71 -22.95 Q 326.36 -23.58 325.65 -24.14 Q 324.94 -24.69 323.6 -24.69 L 323.6 -24.69 Q 322.21 -24.69 321.46 -24.14 Q 320.72 -23.58 320.37 -22.95 L 320.37 -22.95 Q 319.95 -22.15 319.92 -21.2 L 319.92 -21.2 Z M 364.74 0 L 364.74 0 Q 363.12 0 362.17 -0.62 Q 361.21 -1.24 360.71 -2.25 Q 360.2 -3.27 360.05 -4.55 Q 359.91 -5.84 359.91 -7.17 L 359.91 -7.17 L 359.91 -19.74 Q 359.91 -20.6 359.83 -21.42 Q 359.75 -22.25 359.47 -22.88 Q 359.18 -23.52 358.63 -23.91 Q 358.07 -24.31 357.12 -24.31 L 357.12 -24.31 Q 355.85 -24.31 355.06 -23.45 Q 354.26 -22.6 353.8 -21.12 Q 353.34 -19.65 353.17 -17.65 Q 352.99 -15.65 352.99 -13.33 L 352.99 -13.33 L 352.99 -7.17 Q 352.99 -5.84 352.85 -4.55 Q 352.71 -3.27 352.22 -2.25 Q 351.72 -1.24 350.77 -0.62 Q 349.82 0 348.17 0 L 348.17 0 Q 346.52 0 345.57 -0.62 Q 344.61 -1.24 344.12 -2.25 Q 343.63 -3.27 343.49 -4.55 Q 343.34 -5.84 343.34 -7.17 L 343.34 -7.17 L 343.34 -24.57 Q 343.34 -25.9 343.46 -27.18 Q 343.57 -28.47 344.04 -29.48 Q 344.52 -30.5 345.49 -31.12 Q 346.46 -31.74 348.17 -31.74 L 348.17 -31.74 Q 349.91 -31.74 350.88 -31.15 Q 351.85 -30.56 352.33 -29.72 Q 352.8 -28.88 352.9 -27.96 Q 352.99 -27.04 352.99 -26.41 L 352.99 -26.41 Q 353.28 -27.33 353.9 -28.28 Q 354.52 -29.23 355.47 -29.99 Q 356.42 -30.75 357.66 -31.25 Q 358.9 -31.74 360.42 -31.74 L 360.42 -31.74 Q 362.51 -31.74 364.48 -30.72 Q 366.45 -29.71 367.85 -27.42 L 367.85 -27.42 Q 368.32 -28.5 369.24 -29.31 Q 370.16 -30.12 371.34 -30.66 Q 372.51 -31.2 373.85 -31.47 Q 375.18 -31.74 376.48 -31.74 L 376.48 -31.74 Q 378.23 -31.74 379.97 -31.17 Q 381.72 -30.6 383.11 -29.26 Q 384.51 -27.93 385.38 -25.79 Q 386.25 -23.65 386.25 -20.5 L 386.25 -20.5 L 386.25 -7.17 Q 386.25 -5.84 386.1 -4.55 Q 385.94 -3.27 385.43 -2.25 Q 384.92 -1.24 383.95 -0.62 Q 382.99 0 381.37 0 L 381.37 0 Q 379.72 0 378.75 -0.62 Q 377.78 -1.24 377.27 -2.25 Q 376.77 -3.27 376.62 -4.55 Q 376.48 -5.84 376.48 -7.17 L 376.48 -7.17 L 376.48 -19.74 Q 376.48 -20.6 376.38 -21.42 Q 376.29 -22.25 376 -22.88 Q 375.72 -23.52 375.15 -23.91 Q 374.58 -24.31 373.62 -24.31 L 373.62 -24.31 Q 372.61 -24.31 371.89 -23.68 Q 371.18 -23.04 370.7 -21.93 Q 370.23 -20.82 369.97 -19.28 Q 369.72 -17.74 369.62 -15.93 L 369.62 -15.93 L 369.62 -7.17 Q 369.62 -5.84 369.48 -4.55 Q 369.34 -3.27 368.83 -2.25 Q 368.32 -1.24 367.35 -0.62 Q 366.39 0 364.74 0 Z" stroke-linecap="round" />
</g>
<g transform="matrix(1.4452855199884063 0 0 1.4452855199884065 638.7085528518855 785.6151518790018)" id="tagline-66500ed7-3ee1-45f7-adc9-34b7710a1679-logo-path"  >
<path style="stroke: none; stroke-width: 0; stroke-dasharray: none; stroke-linecap: butt; stroke-dashoffset: 0; stroke-linejoin: miter; stroke-miterlimit: 4; fill: rgb(246,134,31); fill-rule: nonzero; opacity: 1;"  paint-order="stroke"  transform=" translate(-251.09, 10.254999999999999)" d="M 5.45 0 L 0.51 0 L 8.27 -22.16 Q 8.78 -23.33 9.4 -23.77 Q 10.01 -24.21 10.94 -24.21 L 10.94 -24.21 Q 11.85 -24.21 12.43 -23.79 Q 13 -23.38 13.43 -22.16 L 13.43 -22.16 L 21.18 0 L 16.25 0 L 14.89 -4.18 L 6.77 -4.18 L 5.45 0 Z M 10.94 -17.75 L 7.95 -8.17 L 13.8 -8.17 L 10.94 -17.75 Z M 28.24 0 L 23.82 0 L 23.82 -19.41 L 27.13 -19.41 L 28.14 -17.1 L 33.58 -19.62 Q 34.85 -19.62 35.74 -19.22 Q 36.64 -18.83 37.42 -18.05 L 37.42 -18.05 Q 38.43 -17.03 38.83 -15.81 Q 39.23 -14.59 39.23 -13.02 L 39.23 -13.02 L 39.23 0 L 34.81 0 L 34.81 -12.42 Q 34.81 -14.08 34.12 -14.69 Q 33.44 -15.31 32.22 -15.31 L 32.22 -15.31 L 28.24 -13.63 L 28.24 0 Z M 56.38 -19.99 L 49.92 -19.99 L 49.92 -24.21 L 67.6 -24.21 L 67.6 -19.99 L 61.11 -19.99 L 61.11 0 L 56.38 0 L 56.38 -19.99 Z M 68.75 -9.55 L 68.75 -9.55 Q 68.75 -10.48 68.76 -11.14 Q 68.78 -11.8 68.85 -12.68 Q 68.93 -13.56 69.05 -14.19 Q 69.18 -14.83 69.41 -15.56 Q 69.64 -16.29 69.98 -16.79 Q 70.31 -17.3 70.8 -17.81 Q 71.29 -18.31 71.91 -18.61 Q 72.53 -18.91 73.37 -19.09 Q 74.21 -19.27 75.22 -19.27 L 75.22 -19.27 L 79.87 -19.27 L 84.29 -19.56 L 84.29 0 L 81.33 0 L 79.97 -2.34 L 75.25 0.2 Q 73.66 0.2 72.49 -0.3 Q 71.32 -0.8 70.61 -1.62 Q 69.89 -2.44 69.47 -3.74 Q 69.05 -5.03 68.9 -6.39 Q 68.75 -7.75 68.75 -9.55 Z M 72.18 -21.93 L 72.18 -21.93 Q 72.18 -22.21 72.37 -22.51 L 72.37 -22.51 L 75.55 -26.63 L 79.09 -26.63 L 82.29 -22.51 Q 82.46 -22.23 82.46 -21.93 L 82.46 -21.93 Q 82.46 -21.5 82.18 -21.18 Q 81.9 -20.87 81.46 -20.87 L 81.46 -20.87 Q 80.17 -20.87 78.86 -22.51 L 78.86 -22.51 L 77.33 -24.4 L 75.79 -22.51 Q 74.47 -20.87 73.18 -20.87 L 73.18 -20.87 Q 72.73 -20.87 72.46 -21.18 Q 72.18 -21.5 72.18 -21.93 Z M 73.18 -9.55 L 73.18 -9.55 Q 73.18 -6.76 73.88 -5.6 Q 74.57 -4.45 76.5 -4.45 L 76.5 -4.45 L 79.87 -6.19 L 79.87 -15.31 L 76.5 -15.31 Q 74.62 -15.31 73.9 -13.87 Q 73.18 -12.43 73.18 -9.55 Z M 93.5 0 L 89.08 0 L 89.08 -19.41 L 92.37 -19.41 L 93.4 -17.1 L 98.5 -19.62 Q 101.14 -19.62 102.5 -17.03 L 102.5 -17.03 L 108.82 -19.62 Q 111.48 -19.62 112.79 -17.84 Q 114.1 -16.05 114.1 -13.02 L 114.1 -13.02 L 114.1 0 L 109.69 0 L 109.69 -12.07 Q 109.69 -13.86 109.25 -14.58 Q 108.82 -15.31 107.78 -15.31 L 107.78 -15.31 L 103.79 -13.63 L 103.79 0 L 99.38 0 L 99.38 -12.07 Q 99.38 -13.8 98.8 -14.55 Q 98.23 -15.31 97.14 -15.31 L 97.14 -15.31 L 93.5 -13.63 L 93.5 0 Z M 136.75 -7.65 L 126.27 -7.65 L 126.27 -11.77 L 136.75 -11.77 L 136.75 -7.65 Z M 152.07 0 L 147.14 0 L 154.89 -22.16 Q 155.41 -23.33 156.02 -23.77 Q 156.64 -24.21 157.57 -24.21 L 157.57 -24.21 Q 158.48 -24.21 159.05 -23.79 Q 159.62 -23.38 160.06 -22.16 L 160.06 -22.16 L 167.81 0 L 162.88 0 L 161.52 -4.18 L 153.4 -4.18 L 152.07 0 Z M 157.57 -17.75 L 154.58 -8.17 L 160.42 -8.17 L 157.57 -17.75 Z M 174.86 0 L 170.45 0 L 170.45 -19.41 L 173.75 -19.41 L 174.76 -17.1 L 180.21 -19.62 Q 181.47 -19.62 182.37 -19.22 Q 183.26 -18.83 184.04 -18.05 L 184.04 -18.05 Q 185.06 -17.03 185.46 -15.81 Q 185.85 -14.59 185.85 -13.02 L 185.85 -13.02 L 185.85 0 L 181.44 0 L 181.44 -12.42 Q 181.44 -14.08 180.75 -14.69 Q 180.06 -15.31 178.85 -15.31 L 178.85 -15.31 L 174.86 -13.63 L 174.86 0 Z M 198.55 -15.27 L 196.68 -15.27 L 196.68 -18.63 L 198.55 -18.63 L 198.55 -22.45 L 202.97 -22.45 L 202.97 -18.63 L 206.11 -18.63 L 206.11 -15.27 L 202.97 -15.27 L 202.97 -5.35 Q 202.97 -3.74 204.5 -3.74 L 204.5 -3.74 L 206.44 -3.74 L 206.44 0 L 203.68 0 Q 202.39 0 201.38 -0.43 Q 200.36 -0.86 199.77 -1.59 Q 199.17 -2.32 198.86 -3.2 Q 198.55 -4.08 198.55 -5.06 L 198.55 -5.06 L 198.55 -15.27 Z M 208.67 -9.79 L 208.67 -9.79 Q 208.67 -11.59 208.87 -13 Q 209.08 -14.41 209.64 -15.71 Q 210.19 -17 211.1 -17.85 Q 212 -18.69 213.45 -19.19 Q 214.89 -19.69 216.83 -19.69 L 216.83 -19.69 Q 218.73 -19.69 220.15 -19.23 Q 221.56 -18.78 222.49 -17.96 Q 223.41 -17.15 223.98 -15.89 Q 224.55 -14.63 224.79 -13.16 Q 225.03 -11.69 225.03 -9.79 L 225.03 -9.79 Q 225.03 -7.82 224.83 -6.33 Q 224.64 -4.85 224.1 -3.51 Q 223.56 -2.17 222.65 -1.34 Q 221.75 -0.5 220.29 -0.01 Q 218.83 0.48 216.83 0.48 L 216.83 0.48 Q 214.87 0.48 213.43 -0.01 Q 211.99 -0.5 211.08 -1.35 Q 210.18 -2.21 209.63 -3.54 Q 209.08 -4.88 208.87 -6.37 Q 208.67 -7.85 208.67 -9.79 Z M 213.1 -10.67 L 213.1 -8.92 Q 213.1 -8.12 213.19 -7.41 Q 213.28 -6.71 213.53 -5.97 Q 213.78 -5.23 214.18 -4.7 Q 214.58 -4.17 215.26 -3.83 Q 215.94 -3.5 216.83 -3.5 L 216.83 -3.5 Q 217.81 -3.5 218.53 -3.84 Q 219.24 -4.18 219.63 -4.68 Q 220.02 -5.18 220.25 -5.94 Q 220.49 -6.69 220.54 -7.32 Q 220.6 -7.95 220.6 -8.77 L 220.6 -8.77 L 220.6 -10.54 Q 220.6 -11.49 220.54 -12.16 Q 220.47 -12.83 220.25 -13.55 Q 220.04 -14.26 219.64 -14.7 Q 219.24 -15.14 218.53 -15.42 Q 217.83 -15.71 216.83 -15.71 L 216.83 -15.71 Q 213.1 -15.71 213.1 -10.67 L 213.1 -10.67 Z M 226.38 -9.55 L 226.38 -9.55 Q 226.38 -10.48 226.4 -11.14 Q 226.41 -11.8 226.49 -12.68 Q 226.56 -13.56 226.69 -14.19 Q 226.81 -14.83 227.04 -15.56 Q 227.28 -16.29 227.61 -16.79 Q 227.94 -17.3 228.43 -17.81 Q 228.92 -18.31 229.54 -18.61 Q 230.16 -18.91 231 -19.09 Q 231.84 -19.27 232.85 -19.27 L 232.85 -19.27 L 237.5 -19.27 L 241.92 -19.56 L 241.92 0 L 238.96 0 L 237.6 -2.34 L 232.89 0.2 Q 231.29 0.2 230.12 -0.3 Q 228.95 -0.8 228.24 -1.62 Q 227.52 -2.44 227.1 -3.74 Q 226.68 -5.03 226.53 -6.39 Q 226.38 -7.75 226.38 -9.55 Z M 232.44 -22.98 L 229.92 -26.6 L 234.58 -26.6 L 235.88 -22.98 Q 236.01 -22.58 236.01 -22.23 L 236.01 -22.23 Q 236.01 -21.35 235.06 -21.35 L 235.06 -21.35 Q 233.57 -21.35 232.44 -22.98 L 232.44 -22.98 Z M 230.81 -9.55 L 230.81 -9.55 Q 230.81 -6.76 231.51 -5.6 Q 232.21 -4.45 234.13 -4.45 L 234.13 -4.45 L 237.5 -6.19 L 237.5 -15.31 L 234.13 -15.31 Q 232.26 -15.31 231.53 -13.87 Q 230.81 -12.43 230.81 -9.55 Z M 250.78 0 L 246.37 0 L 246.37 -19.41 L 249.67 -19.41 L 250.68 -17.1 L 256.13 -19.62 Q 257.39 -19.62 258.29 -19.22 Q 259.18 -18.83 259.96 -18.05 L 259.96 -18.05 Q 260.98 -17.03 261.38 -15.81 Q 261.77 -14.59 261.77 -13.02 L 261.77 -13.02 L 261.77 0 L 257.36 0 L 257.36 -12.42 Q 257.36 -14.08 256.67 -14.69 Q 255.98 -15.31 254.77 -15.31 L 254.77 -15.31 L 250.78 -13.63 L 250.78 0 Z M 278.79 0 L 274.08 0 L 274.08 -24.21 L 278.72 -24.21 L 285.56 -10.23 L 292.35 -24.21 L 297.02 -24.21 L 297.02 0 L 292.29 0 L 292.29 -14.44 L 287.94 -5.26 Q 287.01 -3.44 285.56 -3.44 L 285.56 -3.44 Q 284.17 -3.44 283.21 -5.38 L 283.21 -5.38 L 278.79 -14.44 L 278.79 0 Z M 317.13 -9.18 L 317.13 -9.18 Q 317.13 -4.62 314.9 -2.14 Q 312.68 0.34 308.87 0.34 L 308.87 0.34 Q 306.52 0.34 304.7 -0.77 Q 302.88 -1.87 301.83 -4 Q 300.78 -6.12 300.78 -9.18 L 300.78 -9.18 Q 300.78 -13.74 302.97 -16.2 Q 305.16 -18.67 308.97 -18.67 L 308.97 -18.67 Q 311.35 -18.67 313.19 -17.56 Q 315.02 -16.46 316.08 -14.35 Q 317.13 -12.24 317.13 -9.18 Z M 304.58 -9.18 L 304.58 -9.18 Q 304.58 -6.09 305.6 -4.35 Q 306.62 -2.62 308.94 -2.62 L 308.94 -2.62 Q 311.25 -2.62 312.28 -4.35 Q 313.32 -6.09 313.32 -9.18 L 313.32 -9.18 Q 313.32 -12.31 312.27 -13.99 Q 311.21 -15.67 308.9 -15.67 L 308.9 -15.67 Q 306.62 -15.67 305.6 -13.99 Q 304.58 -12.31 304.58 -9.18 Z M 309.21 6.32 L 309.21 6.32 Q 308.36 6.32 307.75 5.83 Q 307.13 5.34 307.13 4.25 L 307.13 4.25 Q 307.13 3.13 307.75 2.65 Q 308.36 2.18 309.21 2.18 L 309.21 2.18 Q 310.06 2.18 310.67 2.65 Q 311.28 3.13 311.28 4.25 L 311.28 4.25 Q 311.28 5.34 310.67 5.83 Q 310.06 6.32 309.21 6.32 Z M 321.38 -22.2 Q 320.87 -22.69 320.87 -24.27 Q 320.87 -25.85 321.37 -26.34 Q 321.87 -26.83 323.46 -26.83 L 323.46 -26.83 Q 325.04 -26.83 325.52 -26.34 Q 326 -25.85 326 -24.27 L 326 -24.27 Q 326 -22.68 325.52 -22.19 Q 325.04 -21.7 323.46 -21.7 Q 321.88 -21.7 321.38 -22.2 Z M 325.63 0 L 321.22 0 L 321.22 -18.69 L 325.63 -18.69 L 325.63 0 Z M 342.7 0 L 338.27 0.03 L 338.27 -25.57 L 342.7 -25.57 L 342.7 0 Z M 346.55 -6.39 L 346.55 -6.39 L 346.55 -19.41 L 350.97 -19.41 L 350.97 -7.34 Q 350.97 -5.64 351.68 -4.88 Q 352.4 -4.12 353.56 -4.12 L 353.56 -4.12 L 357.54 -6.26 L 357.54 -19.41 L 361.96 -19.41 L 361.96 0 L 358.65 0 L 357.64 -2.31 L 352.2 0.2 Q 350.93 0.2 350.04 -0.19 Q 349.14 -0.58 348.36 -1.36 L 348.36 -1.36 Q 347.35 -2.37 346.95 -3.59 Q 346.55 -4.81 346.55 -6.39 Z M 353.62 -22.23 L 353.62 -22.23 Q 353.62 -22.58 353.76 -22.98 L 353.76 -22.98 L 355.05 -26.6 L 359.72 -26.6 L 357.19 -22.98 Q 356.06 -21.35 354.59 -21.35 L 354.59 -21.35 Q 353.62 -21.35 353.62 -22.23 Z M 365.48 -9.79 L 365.48 -9.79 Q 365.48 -15.42 367.49 -17.51 L 367.49 -17.51 Q 368.37 -18.46 369.91 -19.08 Q 371.45 -19.69 373.31 -19.69 L 373.31 -19.69 Q 377 -19.69 378.89 -17.86 Q 380.78 -16.04 380.78 -12.75 L 380.78 -12.75 L 376.77 -12.75 Q 376.77 -14.26 376.03 -14.98 Q 375.29 -15.71 373.31 -15.71 L 373.31 -15.71 Q 372.43 -15.71 371.81 -15.45 Q 371.19 -15.19 370.82 -14.78 Q 370.46 -14.38 370.25 -13.7 Q 370.04 -13.02 369.98 -12.33 Q 369.91 -11.64 369.91 -10.67 L 369.91 -10.67 L 369.91 -8.92 Q 369.91 -7.95 369.97 -7.26 Q 370.03 -6.57 370.23 -5.82 Q 370.42 -5.06 370.78 -4.59 Q 371.14 -4.12 371.78 -3.81 Q 372.42 -3.5 373.31 -3.5 L 373.31 -3.5 Q 374.13 -3.5 374.71 -3.6 Q 375.29 -3.7 375.67 -3.94 Q 376.05 -4.18 376.29 -4.44 Q 376.52 -4.7 376.63 -5.17 Q 376.75 -5.64 376.79 -6.04 Q 376.83 -6.44 376.85 -7.11 L 376.85 -7.11 L 380.85 -7.14 Q 380.83 -6.87 380.78 -6.14 Q 380.73 -5.41 380.72 -5.18 Q 380.7 -4.95 380.64 -4.39 Q 380.58 -3.83 380.5 -3.59 Q 380.42 -3.34 380.29 -2.94 Q 380.15 -2.54 379.95 -2.26 Q 379.75 -1.98 379.49 -1.69 L 379.49 -1.69 Q 378.63 -0.78 376.92 -0.15 Q 375.21 0.48 373.31 0.48 L 373.31 0.48 Q 371.45 0.48 369.91 -0.13 Q 368.37 -0.75 367.49 -1.69 L 367.49 -1.69 Q 365.48 -3.79 365.48 -9.79 Z M 397.15 0 L 392.44 0 L 392.44 -24.21 L 397.09 -24.21 L 403.93 -10.23 L 410.72 -24.21 L 415.38 -24.21 L 415.38 0 L 410.65 0 L 410.65 -14.44 L 406.3 -5.26 Q 405.37 -3.44 403.93 -3.44 L 403.93 -3.44 Q 402.53 -3.44 401.57 -5.38 L 401.57 -5.38 L 397.15 -14.44 L 397.15 0 Z M 435.49 -9.18 L 435.49 -9.18 Q 435.49 -4.62 433.27 -2.14 Q 431.04 0.34 427.23 0.34 L 427.23 0.34 Q 424.88 0.34 423.07 -0.77 Q 421.25 -1.87 420.19 -4 Q 419.14 -6.12 419.14 -9.18 L 419.14 -9.18 Q 419.14 -13.74 421.33 -16.2 Q 423.52 -18.67 427.33 -18.67 L 427.33 -18.67 Q 429.71 -18.67 431.55 -17.56 Q 433.38 -16.46 434.44 -14.35 Q 435.49 -12.24 435.49 -9.18 Z M 422.95 -9.18 L 422.95 -9.18 Q 422.95 -6.09 423.97 -4.35 Q 424.99 -2.62 427.3 -2.62 L 427.3 -2.62 Q 429.61 -2.62 430.65 -4.35 Q 431.68 -6.09 431.68 -9.18 L 431.68 -9.18 Q 431.68 -12.31 430.63 -13.99 Q 429.58 -15.67 427.26 -15.67 L 427.26 -15.67 Q 424.99 -15.67 423.97 -13.99 Q 422.95 -12.31 422.95 -9.18 Z M 427.57 6.32 L 427.57 6.32 Q 426.72 6.32 426.11 5.83 Q 425.5 5.34 425.5 4.25 L 425.5 4.25 Q 425.5 3.13 426.11 2.65 Q 426.72 2.18 427.57 2.18 L 427.57 2.18 Q 428.42 2.18 429.03 2.65 Q 429.64 3.13 429.64 4.25 L 429.64 4.25 Q 429.64 5.34 429.03 5.83 Q 428.42 6.32 427.57 6.32 Z M 439.74 -22.2 Q 439.23 -22.69 439.23 -24.27 Q 439.23 -25.85 439.73 -26.34 Q 440.23 -26.83 441.82 -26.83 L 441.82 -26.83 Q 443.4 -26.83 443.88 -26.34 Q 444.36 -25.85 444.36 -24.27 L 444.36 -24.27 Q 444.36 -22.68 443.88 -22.19 Q 443.4 -21.7 441.82 -21.7 Q 440.25 -21.7 439.74 -22.2 Z M 444 0 L 439.58 0 L 439.58 -18.69 L 444 -18.69 L 444 0 Z M 460.88 0 L 456.46 0 L 456.46 -19.41 L 459.77 -19.41 L 460.78 -17.1 L 466.23 -19.62 Q 467.49 -19.62 468.38 -19.22 Q 469.28 -18.83 470.06 -18.05 L 470.06 -18.05 Q 471.07 -17.03 471.47 -15.81 Q 471.87 -14.59 471.87 -13.02 L 471.87 -13.02 L 471.87 0 L 467.46 0 L 467.46 -12.42 Q 467.46 -14.08 466.77 -14.69 Q 466.08 -15.31 464.87 -15.31 L 464.87 -15.31 L 460.88 -13.63 L 460.88 0 Z M 491.78 -9.18 L 491.78 -9.18 Q 491.78 -4.62 489.56 -2.14 Q 487.33 0.34 483.52 0.34 L 483.52 0.34 Q 481.17 0.34 479.36 -0.77 Q 477.54 -1.87 476.48 -4 Q 475.43 -6.12 475.43 -9.18 L 475.43 -9.18 Q 475.43 -13.74 477.62 -16.2 Q 479.81 -18.67 483.62 -18.67 L 483.62 -18.67 Q 487.16 -18.67 489.4 -16.35 L 489.4 -16.35 Q 490.69 -16.8 491.09 -18.09 Q 491.48 -19.38 491.48 -21.11 L 491.48 -21.11 L 495.25 -21.11 L 495.49 -20.74 Q 495.01 -18.36 494.04 -16.69 Q 493.07 -15.03 490.8 -14.28 L 490.8 -14.28 Q 491.27 -13.23 491.53 -11.95 Q 491.78 -10.68 491.78 -9.18 Z M 479.24 -9.18 L 479.24 -9.18 Q 479.24 -5.95 480.26 -4.28 Q 481.28 -2.62 483.59 -2.62 L 483.59 -2.62 Q 485.9 -2.62 486.94 -4.28 Q 487.97 -5.95 487.97 -9.18 L 487.97 -9.18 Q 487.97 -12.41 486.92 -14.04 Q 485.87 -15.67 483.55 -15.67 L 483.55 -15.67 Q 481.28 -15.67 480.26 -14.04 Q 479.24 -12.41 479.24 -9.18 Z M 497.05 -22.2 Q 496.54 -22.69 496.54 -24.27 Q 496.54 -25.85 497.04 -26.34 Q 497.54 -26.83 499.13 -26.83 L 499.13 -26.83 Q 500.71 -26.83 501.19 -26.34 Q 501.67 -25.85 501.67 -24.27 L 501.67 -24.27 Q 501.67 -22.68 501.19 -22.19 Q 500.71 -21.7 499.13 -21.7 Q 497.56 -21.7 497.05 -22.2 Z M 501.31 0 L 496.89 0 L 496.89 -18.69 L 501.31 -18.69 L 501.31 0 Z" stroke-linecap="round" />
</g>
<g transform="matrix(2.258146507901326 0 0 2.258146507901326 640.2456813819576 392.96842858724006)" id="logo-logo"  >
<g style=""  paint-order="stroke"   >
		<g transform="matrix(0.7012745404460615 0 0 -0.7012745404460615 0 -2.842171e-14)"  >
<path style="stroke: none; stroke-width: 1; stroke-dasharray: none; stroke-linecap: butt; stroke-dashoffset: 0; stroke-linejoin: miter; stroke-miterlimit: 4; fill: rgb(36,105,179); fill-rule: nonzero; opacity: 1;"  paint-order="stroke"  transform=" translate(-178.25860920315785, -121.81857279937121)" d="m 0 0 c 10.45 0 25.029 6.062 32.398 13.472 l 153.739 154.59 c 7.368 7.41 19.451 7.434 26.849 0.054 L 368.082 13.418 C 375.48 6.038 390.084 0 400.534 0 h 10 c 10.45 0 12.948 6.04 5.553 13.423 L 190.981 238.112 c -7.395 7.382 -19.48 7.365 -26.855 -0.04 L -59.592 13.462 C -66.966 6.058 -64.45 0 -54 0 Z" stroke-linecap="round" />
</g>
		<g transform="matrix(0.7012745404460615 0 0 -0.7012745404460615 14.21879263779556 32.60800229332412)"  >
<path style="stroke: none; stroke-width: 1; stroke-dasharray: none; stroke-linecap: butt; stroke-dashoffset: 0; stroke-linejoin: miter; stroke-miterlimit: 4; fill: rgb(246,134,31); fill-rule: nonzero; opacity: 1;"  paint-order="stroke"  transform=" translate(-85.53425278883748, -75.320375)" d="m 0 0 c 10.45 0 25.046 6.046 32.435 13.435 l 61.664 61.664 c 7.389 7.389 19.481 7.389 26.871 0 L 182.634 13.435 C 190.022 6.046 204.618 0 215.068 0 h 10 c 10.451 0 12.954 6.046 5.566 13.435 L 98.97 145.099 c -7.39 7.389 -19.482 7.389 -26.871 0 L -59.565 13.435 C -66.954 6.046 -64.45 0 -54 0 Z" stroke-linecap="round" />
</g>
		<g transform="matrix(0.7012745404460615 0 0 -0.7012745404460615 29.880319930109692 66.49385106563045)"  >
<path style="stroke: none; stroke-width: 1; stroke-dasharray: none; stroke-linecap: butt; stroke-dashoffset: 0; stroke-linejoin: miter; stroke-miterlimit: 4; fill: rgb(36,105,179); fill-rule: nonzero; opacity: 1;"  paint-order="stroke"  transform=" translate(27, 0)" d="m 0 0 c 0 14.912 -12.088 27 -27 27 c -14.912 0 -27 -12.088 -27 -27 c 0 -14.912 12.088 -27 27 -27 c 14.912 0 27 12.088 27 27" stroke-linecap="round" />
</g>
</g>
</g>
</svg>