<svg xmlns="http://www.w3.org/2000/svg" viewBox="0 0 101.11 24.14"><defs><style>.cls-1{fill:#3e8ecc;}.cls-2{fill:#df1f26;}</style></defs><title>Asset 1</title><g id="Layer_2" data-name="Layer 2"><g id="Layer_1-2" data-name="Layer 1"><path class="cls-1" d="M52.44,0,51,2.6,44.75,13.44c-1.56,2.71-3.08,5.44-4.68,8.13a4.18,4.18,0,0,1-3.84,2.09H29.7l-.57,0c-.37,0-.4-.06-.22-.37.41-.74.83-1.48,1.25-2.21.68-1.18,1.37-2.35,2-3.53.79-1.36,1.56-2.74,2.37-4.09a1.35,1.35,0,0,0,0-1.57c-.54-.86-1-1.76-1.54-2.65-.2-.34-.19-.35.22-.35,1.06,0,2.12,0,3.19,0a1.17,1.17,0,0,0,1.13-.65c1.18-2.08,2.35-4.16,3.57-6.21a4,4,0,0,1,3.41-2c2.56,0,5.12,0,7.68,0Z"/><path class="cls-1" d="M13.53,23.66c.54-.93,1-1.79,1.53-2.66l2.85-5,2.64-4.59,4.13-7.2c.46-.81.9-1.63,1.42-2.4A3.82,3.82,0,0,1,29.24,0c2.61-.06,5.22,0,7.82,0l.2,0L36.31,1.7,33,7.51l-5.18,9c-.95,1.67-1.87,3.36-2.87,5a4.29,4.29,0,0,1-3.85,2.15c-2.28,0-4.57,0-6.85,0Z"/><path class="cls-2" d="M4.09,0C5.3,0,6.51,0,7.71,0a4,4,0,0,1,3.41,1.81c.74,1.11,1.36,2.3,2,3.45,1.26,2.17,2.5,4.34,3.75,6.51a8.73,8.73,0,0,0,.51.9.68.68,0,0,1,0,.85c-.62,1.06-1.23,2.12-1.84,3.18-.92,1.59-1.83,3.19-2.74,4.78-.08.14-.14.37-.28.38s-.22-.23-.3-.37c-1.09-1.89-2.18-3.77-3.27-5.67C7.51,13.24,6,10.64,4.55,8.05S1.6,2.9.12.33C-.06,0-.06,0,.32,0Z"/><path class="cls-2" d="M92.41,12.55a3.18,3.18,0,0,0,0-.92c0-1.17,0-2.34,0-3.51,0-.29.1-.37.37-.38C94,7.69,94,7.69,94,8.8c0,2,0,3.95,0,5.92,0,.29-.06.44-.37.38h0c-1.18,0-1.17,0-1.77-1-.73-1.26-1.49-2.5-2.24-3.74a.71.71,0,0,0-.12-.11c0,.28,0,.51,0,.74,0,1.26,0,2.53,0,3.8,0,.28-.08.4-.37.35h-.28c-.85,0-.86,0-.86-.86,0-1.88,0-3.76,0-5.64a.77.77,0,0,1,.74-.84l.25,0a.77.77,0,0,1,.85.46c.78,1.38,1.62,2.73,2.43,4.09C92.22,12.39,92.26,12.5,92.41,12.55Z"/><path class="cls-2" d="M73.24,11.45c0,1.1,0,2.2,0,3.3,0,.27-.07.38-.36.36a6.76,6.76,0,0,0-.9,0c-.22,0-.28-.06-.28-.28,0-.87,0-1.75,0-2.62,0-.29-.07-.4-.38-.39-.79,0-1.58,0-2.36,0-.25,0-.33.07-.33.33,0,.87,0,1.74,0,2.62,0,.25-.07.36-.35.34a7.22,7.22,0,0,0-.93,0c-.18,0-.25-.06-.25-.24,0-2.11,0-4.21,0-6.32,0-.5.31-.76.83-.77.68,0,.68,0,.68.68s0,1.19,0,1.79c0,.21.06.27.27.27h2.51c.22,0,.28-.08.28-.29,0-.71,0-1.41,0-2.12,0-.24,0-.35.31-.33a4.93,4.93,0,0,0,.86,0c.28,0,.37.07.37.36,0,1.11,0,2.22,0,3.33Z"/><path class="cls-2" d="M99.94,14.21c-.26.15-.39.39-.62.53a3.22,3.22,0,0,1-3.9-.72,4.37,4.37,0,0,1-.69-3.67A3,3,0,0,1,96.67,8a3.5,3.5,0,0,1,4,1,3.05,3.05,0,0,1,.41.9c.06.2,0,.29-.22.27h-.65a.73.73,0,0,1-.66-.35A1.68,1.68,0,0,0,97.67,9a1.72,1.72,0,0,0-1.46,1.35A3.23,3.23,0,0,0,96.45,13a1.85,1.85,0,0,0,3,.2.83.83,0,0,0,.08-.12c.47-.9.35-.78-.36-.76s-1-.25-1-.94c0-.17,0-.23.22-.23h2.44c.18,0,.26.06.26.25q0,1.66,0,3.33c0,.16,0,.21-.2.22A.82.82,0,0,1,99.94,14.21Z"/><path class="cls-2" d="M80.67,11.49a3.43,3.43,0,0,1-1.26,2.94,3.65,3.65,0,0,1-3.44.46,2.76,2.76,0,0,1-1.89-2,4.8,4.8,0,0,1,.07-3.13,2.92,2.92,0,0,1,2.5-2A3.36,3.36,0,0,1,80,9,3.8,3.8,0,0,1,80.67,11.49Zm-1.43,0a3.41,3.41,0,0,0-.16-1.1A1.77,1.77,0,0,0,77.25,9a1.7,1.7,0,0,0-1.78,1.3,4.06,4.06,0,0,0,0,2.29,1.91,1.91,0,0,0,3,.85A2.54,2.54,0,0,0,79.24,11.47Z"/><path class="cls-2" d="M80.51,15.1c.27-.77.51-1.5.77-2.23q.8-2.22,1.6-4.43c.2-.58.34-.67.94-.67,1.05,0,1.05,0,1.4,1l2.1,5.76c.21.6.21.6-.43.6-1,0-1,0-1.27-.95-.17-.56-.17-.56-.76-.56s-1.31,0-2,0a.37.37,0,0,0-.44.34c-.08.33-.2.66-.31,1,0,.1-.06.19-.21.19Zm3.54-5.74H84L83,12.16c-.06.18,0,.21.18.2h1.54c.2,0,.26-.1.2-.28C84.66,11.18,84.35,10.27,84.05,9.36Z"/><path class="cls-2" d="M64.16,10.36c0,.68,0,1.36,0,2a2.51,2.51,0,0,1-2.59,2.69A4.49,4.49,0,0,1,60,14.93a2.29,2.29,0,0,1-1.69-2.16c0-1.42,0-2.84,0-4.26A.72.72,0,0,1,59,7.77c.75,0,.75,0,.75.71,0,1.23,0,2.46,0,3.69a2.37,2.37,0,0,0,0,.46,1.47,1.47,0,0,0,2.28,1,1.45,1.45,0,0,0,.55-1.33c0-1.37,0-2.75,0-4.12,0-.31.08-.41.38-.37s.83-.16,1.07.08.05.68.06,1S64.16,9.87,64.16,10.36Z"/><path class="cls-2" d="M51.48,7.77c.48,0,1,0,1.46,0,.18,0,.2.13.23.25.39,1.35.77,2.71,1.16,4.06.09.33.2.66.3,1a.48.48,0,0,0,.2-.37c.44-1.47.87-2.94,1.29-4.42a.64.64,0,0,1,.7-.53c.26,0,.53,0,.79,0s.29.08.21.3c-.28.81-.56,1.62-.83,2.43-.49,1.43-1,2.86-1.46,4.29-.08.23-.17.34-.43.32s-.81.1-1.08-.07-.29-.65-.41-1l-2.1-6C51.49,7.93,51.44,7.87,51.48,7.77Z"/><path class="cls-1" d="M100.35,18.4A6.87,6.87,0,0,0,99.83,20c-.08.3-.15.6-.22.9s-.27.2-.44.19-.41.12-.49-.2c-.16-.66-.33-1.32-.5-2-.05-.16,0-.35-.23-.47a.57.57,0,0,0,0,.36c0,.66,0,1.33,0,2,0,.25-.09.32-.31.29s-.42.09-.42-.26c0-1,0-2.09,0-3.13a.4.4,0,0,1,.39-.45c.13,0,.27,0,.4,0,.3,0,.43.1.5.4.16.69.35,1.38.54,2.07a.41.41,0,0,0,.18.31c.14-.55.29-1.09.43-1.63.08-.3.16-.6.22-.9a.3.3,0,0,1,.33-.25c.94-.05.93-.05.93.86s0,1.77,0,2.66c0,.38-.21.33-.46.35s-.31-.16-.3-.38Z"/><path class="cls-1" d="M93.27,21.21a1.71,1.71,0,0,1-1.84-1.9c0-1.28.67-2,1.81-2a1.79,1.79,0,0,1,1.85,1.95A1.74,1.74,0,0,1,93.27,21.21Zm1-2a1.51,1.51,0,0,0,0-.31,1.05,1.05,0,0,0-.8-.92,1,1,0,0,0-1.23.67,1.88,1.88,0,0,0,0,1.3,1,1,0,0,0,1.73.26A1.72,1.72,0,0,0,94.32,19.19Z"/><path class="cls-1" d="M82.9,21.12c-.37,0-.74,0-1.11,0-.21,0-.31-.05-.31-.27,0-1,0-2.06,0-3.09a.43.43,0,0,1,.49-.48h2c.23,0,.3.09.3.32s-.06.35-.32.34c-.49,0-1,0-1.47,0-.22,0-.3.06-.29.28,0,.53,0,.53.54.54.21,0,.43,0,.64,0s.38-.12.37.17a.4.4,0,0,1-.36.46c-.21,0-.43,0-.64,0s-.44-.1-.5.07a1.63,1.63,0,0,0,0,.85c0,.11.16.08.25.08.49,0,1,0,1.47,0,.28,0,.33.11.33.36s0,.35-.32.34S83.27,21.12,82.9,21.12Z"/><path class="cls-1" d="M72.2,19.3c0-.49,0-1,0-1.47s.12-.54.52-.55c.66,0,1.31,0,2,0,.26,0,.32.1.32.34s-.09.34-.32.34c-.47,0-.94,0-1.4,0-.23,0-.34,0-.31.29a1.71,1.71,0,0,1,0,.32c0,.18.08.23.24.22h.9c.15,0,.36-.07.37.2a.37.37,0,0,1-.37.44,8.22,8.22,0,0,1-.86,0c-.23,0-.28.07-.28.28,0,.73,0,.73.69.73.35,0,.71,0,1.07,0s.26.19.26.38,0,.32-.25.32h-2.3c-.21,0-.26-.09-.26-.29,0-.51,0-1,0-1.54Z"/><path class="cls-1" d="M69.12,23.77h-.79c0-1.69,0-4.23,0-5.93h.77v2.73h0Z"/><path class="cls-1" d="M87.91,21.2c-1.31,0-1.79-.85-1.75-2.08a2.32,2.32,0,0,1,.19-.94A1.87,1.87,0,0,1,89.41,18c.11.18.27.4.09.62s-.6,0-.73-.21a.86.86,0,0,0-.85-.42.92.92,0,0,0-.91.66,2,2,0,0,0,0,1.27.89.89,0,0,0,.85.65.86.86,0,0,0,.92-.47.61.61,0,0,1,.7-.2c.14.08.08.2,0,.32a1.39,1.39,0,0,1-1.29,1Z"/><path class="cls-1" d="M76.91,19.29v-1.5c0-.26.08-.45.36-.5s.44,0,.44.37c0,.82,0,1.65,0,2.47,0,.23.07.31.3.31.44,0,.89,0,1.33,0s.26.19.27.38,0,.32-.3.32c-.7,0-1.41,0-2.11,0-.22,0-.3-.08-.29-.3,0-.51,0-1,0-1.54Z"/><path class="cls-1" d="M71.92,23a.75.75,0,0,1-.27.54.83.83,0,0,1-.56.21.81.81,0,0,1-.59-.24.79.79,0,0,1,0-1.16.88.88,0,0,1,.6-.23.79.79,0,0,1,.64.29.44.44,0,0,1,.1.15h-.18a.57.57,0,0,0-.24-.22.72.72,0,0,0-.32-.08.7.7,0,0,0-.49.2.66.66,0,0,0-.2.48.64.64,0,0,0,.21.48.69.69,0,0,0,.48.19.71.71,0,0,0,.4-.13.54.54,0,0,0,.24-.34h-.88V23Z"/><path class="cls-1" d="M72.16,22.42v-.27h.14v.27Zm0,1.31V22.57h.14v1.16Z"/><path class="cls-1" d="M73.12,23.73H73l-.49-1.16h.16l.41,1,.42-1h.16Z"/><path class="cls-1" d="M74.92,23.2H73.86a.39.39,0,0,0,.14.3.43.43,0,0,0,.31.13.44.44,0,0,0,.25-.08.37.37,0,0,0,.17-.2h.16a.68.68,0,0,1-.23.3.61.61,0,0,1-.35.11.6.6,0,0,1-.43-.18.63.63,0,0,1,0-.86.58.58,0,0,1,.43-.18.6.6,0,0,1,.44.18.66.66,0,0,1,.17.44Zm-.15-.13a.47.47,0,0,0-.16-.29.44.44,0,0,0-.3-.11.48.48,0,0,0-.3.11.51.51,0,0,0-.15.29Z"/><path class="cls-1" d="M75.42,23.76a.35.35,0,0,1-.26-.1.38.38,0,0,1-.1-.26h.15q0,.24.21.24c.15,0,.22-.07.22-.21a.19.19,0,0,0-.08-.16l-.09-.05-.1,0-.1,0-.09-.06a.29.29,0,0,1-.08-.21.32.32,0,0,1,.09-.23.32.32,0,0,1,.24-.09.32.32,0,0,1,.23.09.29.29,0,0,1,.09.22H75.6q0-.18-.18-.18c-.11,0-.17.06-.17.18a.16.16,0,0,0,.08.14l.09,0h.1l.1.05.08.06a.32.32,0,0,1,.09.24C75.79,23.64,75.67,23.76,75.42,23.76Z"/><path class="cls-1" d="M77.14,23.21v.52H77v-.52l-.55-1.06h.18l.45.89.46-.89h.17Z"/><path class="cls-1" d="M78.63,23.58a.6.6,0,0,1-.43.18.58.58,0,0,1-.43-.18.58.58,0,0,1-.18-.42.64.64,0,0,1,.17-.44.6.6,0,0,1,.44-.18.6.6,0,0,1,.43.18.6.6,0,0,1,0,.86Zm-.11-.77a.44.44,0,0,0-.65,0,.45.45,0,0,0-.13.34.48.48,0,0,0,.13.33.45.45,0,0,0,.33.14.43.43,0,0,0,.33-.15.45.45,0,0,0,.13-.34A.47.47,0,0,0,78.52,22.81Z"/><path class="cls-1" d="M79.91,23.73v-.18h0a.33.33,0,0,1-.15.16.42.42,0,0,1-.22.05.5.5,0,0,1-.4-.17.37.37,0,0,1-.08-.18.62.62,0,0,1,0-.2v-.64h.15v.64a.51.51,0,0,0,.07.3.32.32,0,0,0,.28.12.33.33,0,0,0,.25-.1.34.34,0,0,0,.1-.16.92.92,0,0,0,0-.19v-.61h.15v1.16Z"/><path class="cls-1" d="M82.17,23.73l-.23-.53H81.2l-.23.53h-.16l.67-1.58h.18l.68,1.58Zm-.6-1.4-.31.73h.62Z"/><path class="cls-1" d="M83.82,23.63a.44.44,0,0,1-.33.13.48.48,0,0,1-.35-.13.44.44,0,0,1-.14-.34h.16a.3.3,0,0,0,.33.33.29.29,0,0,0,.22-.09.33.33,0,0,0,.1-.23.25.25,0,0,0-.12-.22.3.3,0,0,0-.11-.07l-.13,0-.15-.06a.46.46,0,0,1-.14-.07.36.36,0,0,1-.12-.29.42.42,0,0,1,.13-.3.45.45,0,0,1,.32-.12.45.45,0,0,1,.31.12.42.42,0,0,1,.13.31h-.16a.28.28,0,0,0-.08-.2.27.27,0,0,0-.2-.09.28.28,0,0,0-.2.08.25.25,0,0,0-.09.19.21.21,0,0,0,.13.21.33.33,0,0,0,.12.05l.13,0a.69.69,0,0,1,.28.16.44.44,0,0,1,.1.3A.42.42,0,0,1,83.82,23.63Z"/><path class="cls-1" d="M85.31,23.2H84.25a.43.43,0,0,0,.14.3.45.45,0,0,0,.31.13.47.47,0,0,0,.26-.08.4.4,0,0,0,.16-.2h.16a.59.59,0,0,1-.57.41.6.6,0,0,1-.44-.18.63.63,0,0,1,0-.86.6.6,0,0,1,.43-.18.6.6,0,0,1,.44.18.62.62,0,0,1,.18.44Zm-.15-.13a.51.51,0,0,0-.15-.29.48.48,0,0,0-.3-.11.49.49,0,0,0-.31.11.51.51,0,0,0-.15.29Z"/><path class="cls-1" d="M86.42,23.73v-.64a.47.47,0,0,0,0-.17.28.28,0,0,0-.08-.15.35.35,0,0,0-.25-.1.35.35,0,0,0-.26.1.29.29,0,0,0-.08.14.51.51,0,0,0,0,.17v.65h-.15V22.57h.15v.15h0a.38.38,0,0,1,.36-.18.49.49,0,0,1,.38.15.58.58,0,0,1,.13.4v.64Z"/><path class="cls-1" d="M87.12,23.76a.34.34,0,0,1-.36-.36h.15q0,.24.21.24a.19.19,0,0,0,.21-.21.24.24,0,0,0-.17-.21l-.1,0-.1,0-.08-.06a.26.26,0,0,1-.09-.21.29.29,0,0,1,.1-.23.34.34,0,0,1,.46,0,.29.29,0,0,1,.09.22h-.15c0-.12-.06-.18-.17-.18a.16.16,0,0,0-.18.18A.19.19,0,0,0,87,23l.09,0h.1l.1.05.09.06a.36.36,0,0,1,.08.24A.32.32,0,0,1,87.12,23.76Z"/><path class="cls-1" d="M88.83,23.2H87.77a.39.39,0,0,0,.14.3.42.42,0,0,0,.31.13.44.44,0,0,0,.25-.08.37.37,0,0,0,.17-.2h.16a.68.68,0,0,1-.23.3.61.61,0,0,1-.35.11.61.61,0,1,1,.43-1,.62.62,0,0,1,.18.44Zm-.15-.13a.47.47,0,0,0-.16-.29.44.44,0,0,0-.3-.11.48.48,0,0,0-.3.11.51.51,0,0,0-.15.29Z"/><path class="cls-1" d="M91,23.52a.78.78,0,0,1-.58.24.86.86,0,0,1-.59-.23A.79.79,0,0,1,89.6,23a.76.76,0,0,1,.25-.58.81.81,0,0,1,.59-.24.86.86,0,0,1,.59.23.8.8,0,0,1,.24.58A.76.76,0,0,1,91,23.52Zm-.1-1.05a.69.69,0,0,0-.48-.2.66.66,0,0,0-.48.2.67.67,0,0,0-.2.48.65.65,0,0,0,.2.47.68.68,0,0,0,1,0,.66.66,0,0,0,0-1Z"/><path class="cls-1" d="M91.74,22.7v1h-.15v-1h-.18v-.13h.18v-.09a.29.29,0,0,1,0-.09.31.31,0,0,1,.16-.21.63.63,0,0,1,.26-.05v.14a.25.25,0,0,0-.29.29H92v.13Z"/><path class="cls-1" d="M93.5,23.63a.48.48,0,0,1-.34.13.48.48,0,0,1-.35-.13.48.48,0,0,1-.14-.34h.16a.3.3,0,0,0,.33.33.29.29,0,0,0,.22-.09.29.29,0,0,0,.1-.23.27.27,0,0,0-.11-.22.35.35,0,0,0-.12-.07l-.12,0L93,22.91a.32.32,0,0,1-.13-.07.36.36,0,0,1-.12-.29.38.38,0,0,1,.13-.3.46.46,0,0,1,.62,0,.39.39,0,0,1,.13.31h-.16a.28.28,0,0,0-.08-.2.27.27,0,0,0-.2-.09.28.28,0,0,0-.2.08.25.25,0,0,0-.09.19.22.22,0,0,0,.13.21.33.33,0,0,0,.12.05l.13,0a.69.69,0,0,1,.28.16.44.44,0,0,1,.11.3A.45.45,0,0,1,93.5,23.63Z"/><path class="cls-1" d="M95,23.2H93.92a.44.44,0,0,0,.15.3.42.42,0,0,0,.31.13.46.46,0,0,0,.25-.08.35.35,0,0,0,.16-.2H95a.65.65,0,0,1-.22.3.63.63,0,0,1-.35.11.61.61,0,1,1,.43-1,.62.62,0,0,1,.18.44Zm-.16-.13a.51.51,0,0,0-.15-.29.48.48,0,0,0-.3-.11.44.44,0,0,0-.3.11.47.47,0,0,0-.16.29Z"/><path class="cls-1" d="M96.37,23.39a.61.61,0,0,1-.58.37.64.64,0,0,1-.44-.17.6.6,0,0,1,0-.88.64.64,0,0,1,.44-.17.6.6,0,0,1,.35.1.58.58,0,0,1,.23.28h-.16a.44.44,0,0,0-.42-.25.49.49,0,0,0-.34.14.46.46,0,0,0-.14.34.48.48,0,0,0,.48.48.44.44,0,0,0,.42-.24Z"/><path class="cls-1" d="M97.47,23.73v-.18h0a.41.41,0,0,1-.16.16.4.4,0,0,1-.22.05.44.44,0,0,1-.48-.35,1.12,1.12,0,0,1,0-.2v-.64h.15v.64a.51.51,0,0,0,.07.3.34.34,0,0,0,.28.12.33.33,0,0,0,.25-.1.34.34,0,0,0,.1-.16.92.92,0,0,0,0-.19v-.61h.15v1.16Z"/><path class="cls-1" d="M98.38,22.69a.33.33,0,0,0-.34.36v.68h-.15V22.57H98v.17h0a.3.3,0,0,1,.13-.16.5.5,0,0,1,.2,0Z"/><path class="cls-1" d="M98.54,22.42v-.27h.14v.27Zm0,1.31V22.57h.14v1.16Z"/><path class="cls-1" d="M99.25,22.7v1H99.1v-1h-.25v-.13h.25v-.42h.15v.42h.28v.13Z"/><path class="cls-1" d="M100,24.14h-.16l.2-.44-.45-1.13h.16l.37.93.39-.93h.16Z"/><path class="cls-1" d="M100.93,23.32V22.15h.16v1.17Zm0,.41v-.26h.16v.26Z"/><rect class="cls-1" x="67.17" y="17.27" width="3.1" height="0.68"/></g></g></svg>