<svg width="60" height="60" viewBox="0 0 60 60" fill="none" xmlns="http://www.w3.org/2000/svg">
<g clip-path="url(#clip0)">
<path d="M60 30.0521C60 46.6185 46.5957 59.999 30 59.999C21.1702 59.999 13.2979 56.2822 7.76596 50.2291C7.02128 49.3796 6.2766 48.53 5.6383 47.6804C2.12766 42.6893 0 36.6362 0 30.0521C0 29.0964 -1.0304e-07 28.1406 0.106383 27.2911C0.212766 26.2291 0.319149 25.061 0.638298 23.999C3.40426 10.2999 15.5319 -0.000976562 30 -0.000976562C46.5957 -0.000976562 60 13.4857 60 30.0521Z" fill="#FFE795"/>
<path d="M57 30.0478C57 44.9575 44.9362 57 30 57C22.0532 57 14.9681 53.6549 9.98936 48.2071C9.31915 47.4425 8.64894 46.6779 8.07447 45.9133C4.91489 41.4212 3 35.9735 3 30.0478C3 29.1876 3 28.3274 3.09574 27.5628C3.19149 26.6071 3.28723 25.5558 3.57447 24.6C6.06383 12.2708 16.9787 3 30 3C44.9362 3 57 15.1381 57 30.0478Z" fill="url(#paint0_linear)"/>
<path d="M52.4155 35.2497C53.8961 35.2497 55.0963 34.0515 55.0963 32.5736C55.0963 31.0956 53.8961 29.8975 52.4155 29.8975C50.9349 29.8975 49.7346 31.0956 49.7346 32.5736C49.7346 34.0515 50.9349 35.2497 52.4155 35.2497Z" fill="url(#paint1_linear)"/>
<path opacity="0.18" d="M7.11694 24.124C5.87226 24.124 4.81907 24.3152 3.67013 24.6019C3.47864 25.5577 3.28715 26.5134 3.19141 27.5647C4.34034 26.9913 5.68077 26.7046 7.02119 26.7046C12.4786 26.7046 16.7872 31.0054 16.7872 36.3577C16.7872 41.232 13.0531 45.3417 8.36162 45.9152C8.93609 46.6798 9.6063 47.4444 10.2765 48.209C15.5425 46.8709 19.468 42.0922 19.468 36.3577C19.3723 29.5718 13.9148 24.124 7.11694 24.124Z" fill="white"/>
<path d="M20.7072 9.80883C21.6404 9.80883 22.3968 9.05369 22.3968 8.12219C22.3968 7.19068 21.6404 6.43555 20.7072 6.43555C19.7741 6.43555 19.0176 7.19068 19.0176 8.12219C19.0176 9.05369 19.7741 9.80883 20.7072 9.80883Z" fill="url(#paint2_linear)"/>
<path d="M14.6197 35.8569C12.8269 36.3372 11.3638 36.2241 10.2303 35.5174C9.10804 34.7911 8.23856 33.4007 7.62184 31.3463L11.0258 29.8628C11.3602 31.0487 11.7291 31.8691 12.1326 32.3242C12.5475 32.7597 13.0253 32.9049 13.5663 32.76C14.2617 32.5736 14.4873 32.0245 14.243 31.1127C14.0483 30.3863 13.7106 29.806 13.2298 29.3716C12.7645 28.9331 12.0956 28.5077 11.2232 28.0955L9.2215 27.1162C8.23564 26.6515 7.41716 26.1006 6.76605 25.4634C6.12626 24.8066 5.66557 23.9527 5.38398 22.9018C4.96158 21.3254 5.10015 19.988 5.79968 18.8895C6.51466 17.7869 7.69126 17.0161 9.32947 16.5771C11.1068 16.1009 12.451 16.2956 13.3621 17.1613C14.2886 18.0229 14.9739 19.1893 15.4178 20.6605L11.9657 22.0576C11.6739 21.0922 11.3949 20.4216 11.1285 20.0457C10.8735 19.6502 10.4987 19.5188 10.0041 19.6513C9.64864 19.7465 9.41187 19.9756 9.29378 20.3385C9.187 20.6819 9.1833 21.039 9.28269 21.4099C9.45248 22.0436 9.73444 22.5395 10.1286 22.8977C10.5382 23.2517 11.1343 23.622 11.9171 24.0086L13.8368 24.9602C14.9752 25.4999 15.9175 26.1419 16.6636 26.8862C17.4096 27.6305 17.9441 28.6053 18.2671 29.8108C18.5032 30.6917 18.5099 31.5513 18.2872 32.3895C18.0759 33.2081 17.6552 33.9254 17.0252 34.5414C16.3952 35.1575 15.5933 35.596 14.6197 35.8569ZM18.6674 14.3483L23.3966 13.0812L31.9286 30.9208L28.1035 31.9457L26.4154 28.1493L23.6567 28.8885L24.0698 33.0266L20.152 34.0763L18.6674 14.3483ZM25.3566 25.7744L22.3969 18.7159L23.363 26.3086L25.3566 25.7744ZM28.5612 11.6973L32.7108 10.5854L36.9906 26.558L41.3025 25.4026L42.0541 28.2077L33.5926 30.4749L28.5612 11.6973ZM38.6074 9.00545L47.0457 6.7444L47.8035 9.57264L43.5148 10.7218L44.7634 15.3814L48.0321 14.5056L48.8023 17.3802L45.5336 18.256L47.0368 23.8661L51.3719 22.7045L52.1235 25.5096L43.6388 27.783L38.6074 9.00545ZM26.3195 55.498C24.295 56.0405 22.7112 55.9099 21.5683 55.1063C20.4212 54.2873 19.5744 52.8578 19.0277 50.8178L17.158 43.8399C16.6114 41.7999 16.6342 40.1539 17.2263 38.902C17.8143 37.6346 19.1206 36.7297 21.1452 36.1872C23.1853 35.6406 24.7767 35.769 25.9197 36.5726C27.078 37.372 27.9285 38.784 28.471 40.8086L30.3407 47.7865C30.8873 49.8265 30.8609 51.49 30.2616 52.777C29.6736 54.0443 28.3596 54.9513 26.3195 55.498ZM25.5307 52.5538C26.1179 52.3965 26.4525 52.0998 26.5345 51.6637C26.6123 51.2122 26.5601 50.6464 26.3778 49.9664L23.9553 40.9253C23.7689 40.2299 23.5313 39.7138 23.2423 39.3771C22.9533 39.0404 22.5152 38.9508 21.9279 39.1081C21.3715 39.2572 21.0544 39.5575 20.9766 40.009C20.8947 40.4451 20.9449 41.0031 21.1271 41.6832L23.5496 50.7242C23.7318 51.4042 23.9618 51.9224 24.2394 52.2786C24.513 52.6195 24.9434 52.7112 25.5307 52.5538ZM29.1868 34.3058L37.3006 32.1317L38.0522 34.9367L34.088 35.9989L35.3552 40.7281L38.8093 39.8026L39.5858 42.7003L36.1316 43.6259L38.3678 51.9715L34.2182 53.0834L29.1868 34.3058ZM39.0066 31.6745L47.1204 29.5005L47.872 32.3055L43.9079 33.3677L45.175 38.0969L48.6292 37.1713L49.4056 40.0691L45.9515 40.9947L48.1877 49.3403L44.0381 50.4521L39.0066 31.6745Z" fill="url(#paint3_linear)"/>
</g>
<defs>
<linearGradient id="paint0_linear" x1="18.5953" y1="4.74923" x2="44.9842" y2="53.1267" gradientUnits="userSpaceOnUse">
<stop stop-color="#80B3FF"/>
<stop offset="1" stop-color="#287AF1"/>
</linearGradient>
<linearGradient id="paint1_linear" x1="49.7346" y1="32.431" x2="55.0389" y2="31.8683" gradientUnits="userSpaceOnUse">
<stop stop-color="#80B3FF"/>
<stop offset="1" stop-color="#287AF1"/>
</linearGradient>
<linearGradient id="paint2_linear" x1="19.0176" y1="8.03233" x2="22.3607" y2="7.67766" gradientUnits="userSpaceOnUse">
<stop stop-color="#80B3FF"/>
<stop offset="1" stop-color="#287AF1"/>
</linearGradient>
<linearGradient id="paint3_linear" x1="24.6993" y1="10.0818" x2="36.0873" y2="52.5826" gradientUnits="userSpaceOnUse">
<stop stop-color="white"/>
<stop offset="1" stop-color="#FFEBA8"/>
</linearGradient>
<clipPath id="clip0">
<rect width="60" height="60" fill="white"/>
</clipPath>
</defs>
</svg>
