<svg width="44" height="44" viewBox="0 0 44 44" fill="none" xmlns="http://www.w3.org/2000/svg">
<path d="M10.7652 17.0652C10.4166 14.9349 12.0607 13 14.2193 13H29.8622C32.0271 13 33.6728 14.9456 33.3137 17.0805L30.8612 31.6634C30.5372 33.5895 28.8697 35 26.9166 35H17.0987C15.1388 35 13.4676 33.58 13.1512 31.646L10.7652 17.0652Z" fill="#C4C4C4"/>
<path d="M44 22.0389C44 34.1876 34.1702 44 22 44C15.5248 44 9.75177 41.2743 5.69504 36.8354C5.14894 36.2124 4.60284 35.5894 4.13475 34.9664C1.56028 31.3062 0 26.8673 0 22.0389C0 21.3381 -7.55626e-08 20.6372 0.0780141 20.0142C0.156028 19.2354 0.234042 18.3788 0.468085 17.6C2.49645 7.55398 11.3901 0 22 0C34.1702 0 44 9.89026 44 22.0389Z" fill="url(#paint0_linear)"/>
<path fill-rule="evenodd" clip-rule="evenodd" d="M22.242 7L22.2649 7.00004L22.2872 7C22.719 7 23.1395 7.04849 23.5436 7.14033C25.9723 7.67267 27.8549 9.66365 28.2267 12.1486L28.2867 12.185H30.668C30.7718 12.185 30.8743 12.1896 30.9754 12.1987C32.683 12.4863 33.9839 13.9719 33.9839 15.7613V16.2238L31.3679 31.7784C31.0554 33.6369 29.4472 34.9982 27.5631 35H27.5593H16.8926H16.8888C14.9982 34.9982 13.3866 33.6278 13.0812 31.7616L10.5201 16.1101C10.5124 16.0631 10.5057 16.0162 10.5 15.9695V15.7613C10.5 13.9914 11.7726 12.5187 13.4527 12.2085C13.5844 12.193 13.7187 12.185 13.855 12.185H16.2157L16.2573 12.1486C16.6932 9.23468 19.2066 7 22.242 7ZM22.242 8.35484C19.9569 8.35484 18.0529 9.98667 17.6319 12.1486H26.852C26.431 9.98667 24.527 8.35484 22.242 8.35484ZM16.4917 21.2039C16.4871 21.364 16.4481 21.4978 16.3747 21.605C16.2964 21.7134 16.17 21.7676 15.9954 21.7676C15.7605 21.7676 15.5829 21.6592 15.4624 21.4424C15.348 21.2196 15.2848 20.8764 15.2728 20.4128L13.9902 20.6295C14.0203 21.4062 14.204 21.9812 14.5412 22.3545C14.8784 22.7218 15.3842 22.9054 16.0586 22.9054C16.4319 22.9054 16.7601 22.8272 17.0431 22.6706C17.3321 22.514 17.5549 22.3003 17.7115 22.0293C17.8483 21.7873 17.9253 21.5176 17.9426 21.2204C17.9451 21.1776 17.9463 21.1342 17.9463 21.0902C17.9463 20.6325 17.847 20.2351 17.6483 19.8979C17.4495 19.5547 17.1756 19.2295 16.8263 18.9224L16.0857 18.2721C15.8569 18.0734 15.6883 17.8927 15.5799 17.7302C15.4775 17.5616 15.4263 17.3568 15.4263 17.116C15.4263 17.1067 15.4265 17.0975 15.4267 17.0884C15.4314 16.9315 15.4764 16.7961 15.5618 16.6822C15.6521 16.5557 15.7786 16.4925 15.9412 16.4925C16.164 16.4925 16.3115 16.5859 16.3837 16.7725C16.462 16.9532 16.5072 17.2362 16.5192 17.6216L17.8108 17.4319C17.7747 16.8419 17.6272 16.3572 17.3683 15.9779C17.1093 15.5925 16.6487 15.3998 15.9863 15.3998C15.3661 15.3998 14.8784 15.5624 14.5231 15.8876C14.1909 16.1911 14.0167 16.6199 14.0005 17.174C13.9996 17.2025 13.9992 17.2312 13.9992 17.2603C13.9992 17.6637 14.0775 18.0099 14.2341 18.299C14.3966 18.588 14.6285 18.859 14.9296 19.1119L15.6883 19.7712C15.9653 20.0121 16.167 20.2349 16.2934 20.4396C16.4259 20.6383 16.4921 20.8822 16.4921 21.1712C16.4921 21.1713 16.4921 21.1714 16.4921 21.1715C16.4921 21.1824 16.492 21.1932 16.4917 21.2039ZM19.7349 15.4902H21.3878L22.7968 22.8061H21.424L21.153 21.1983H19.9969L19.7169 22.8061H18.3169L19.7349 15.4902ZM20.1324 20.277H20.1324L20.5659 17.3325L21.0085 20.277H21.0084L21.0085 20.2773H20.1323L20.1324 20.277ZM25.0196 15.4902H23.5383L23.5383 22.8061H26.7448L26.7447 21.7947H25.0196V15.4902ZM27.4458 15.4902H30.6342L30.6342 16.5196H28.9271L28.9271 16.5198V18.4618H30.2458L30.2458 19.5003H28.9271L28.9271 19.5005V21.7947H30.6523L30.6523 22.8061H27.4458L27.4458 15.4902ZM20.5902 30.2808C20.5533 30.9248 20.3873 31.4259 20.0923 31.7842C19.7611 32.1876 19.2101 32.3893 18.4394 32.3893C17.6626 32.3893 17.1086 32.1876 16.7774 31.7842C16.4706 31.4047 16.3058 30.8625 16.2833 30.1574C16.2815 30.1016 16.2806 30.0448 16.2806 29.987C16.2806 29.9869 16.2807 29.9868 16.2807 29.9867V27.259C16.2807 27.1605 16.2832 27.065 16.2884 26.9726C16.3246 26.3252 16.4876 25.8276 16.7774 25.4799C17.1086 25.0824 17.6626 24.8837 18.4394 24.8837C19.2101 24.8837 19.7611 25.0854 20.0923 25.4889C20.4295 25.8863 20.5981 26.4764 20.5981 27.2592V29.996C20.5981 30.0938 20.5954 30.1888 20.5902 30.2808ZM18.9452 31.0708C18.8609 31.2394 18.6923 31.3237 18.4394 31.3237C18.1804 31.3237 18.0088 31.2394 17.9245 31.0708C17.8455 30.9128 17.8035 30.6938 17.7986 30.4141C17.7982 30.3954 17.7981 30.3765 17.7981 30.3573V26.8979C17.7981 26.8791 17.7982 26.8606 17.7986 26.8423C17.7998 26.776 17.8031 26.7133 17.8086 26.6542C17.826 26.4685 17.8646 26.3178 17.9245 26.2022C18.0149 26.0336 18.1865 25.9493 18.4394 25.9493C18.6923 25.9493 18.8609 26.0336 18.9452 26.2022C19.0355 26.3648 19.0807 26.5966 19.0807 26.8977V30.3571C19.0807 30.3571 19.0807 30.3572 19.0807 30.3573C19.0807 30.4382 19.0774 30.5146 19.0709 30.5864C19.0531 30.7817 19.0112 30.9431 18.9452 31.0708ZM24.6822 24.9741H21.5932L21.5932 32.29H23.0745L23.0745 29.0024L23.0745 29.0022H24.4384L24.4383 27.9637H23.0745V25.9947L23.0745 25.9945H24.6822L24.6822 24.9741ZM25.4301 24.9741H28.5192L28.5192 25.9945H26.9114L26.9114 25.9947V27.9637H28.2753L28.2753 29.0022H26.9114L26.9114 29.0024L26.9114 32.29H25.4301L25.4301 24.9741Z" fill="white"/>
<defs>
<linearGradient id="paint0_linear" x1="23.5" y1="40.5" x2="34" y2="5.5" gradientUnits="userSpaceOnUse">
<stop stop-color="#F71F01"/>
<stop offset="1" stop-color="#FF9C05"/>
</linearGradient>
</defs>
</svg>
