<?xml version="1.0" encoding="utf-8"?>
<!-- Generator: Adobe Illustrator 21.1.0, SVG Export Plug-In . SVG Version: 6.00 Build 0)  -->
<svg version="1.1" id="Layer_1" xmlns="http://www.w3.org/2000/svg" xmlns:xlink="http://www.w3.org/1999/xlink" x="0px" y="0px"
	 viewBox="0 0 48.7 48.7" style="enable-background:new 0 0 48.7 48.7;" xml:space="preserve">
<style type="text/css">
	.st0{fill:#578AFF;}
	.st1{fill:#1E80B4;}
</style>
<g>
	<path class="st0" d="M44.6,15.4H43v6.6l4.9-3.4C47.9,16.9,46.4,15.4,44.6,15.4z"/>
	<path class="st0" d="M38.1,7.3H43l-6.5-6.5v4.9C36.5,6.6,37.3,7.3,38.1,7.3z"/>
	<path class="st1" d="M17,6.5h14.6c0.4,0,0.8-0.4,0.8-0.8c0-0.4-0.4-0.8-0.8-0.8H17c-0.4,0-0.8,0.4-0.8,0.8
		C16.2,6.1,16.6,6.5,17,6.5z"/>
	<g>
		<path class="st0" d="M5.7,15.4H4.1c-1.8,0-3.2,1.5-3.2,3.2l4.9,3.4V15.4z"/>
		<path class="st1" d="M44.6,14.6h-0.8V7.3c0,0,0,0,0-0.1c0-0.1,0-0.1,0-0.2c0,0,0-0.1,0-0.1c0-0.1-0.1-0.2-0.2-0.2l-6.5-6.5
			C37,0.2,37,0.1,36.9,0.1c0,0,0,0-0.1,0c-0.1,0-0.1,0-0.2,0c0,0,0,0,0,0H8.1C6.3,0,4.9,1.5,4.9,3.2v11.4H4.1
			c-2.2,0-4.1,1.8-4.1,4.1v26c0,2.2,1.8,4.1,4.1,4.1h40.6c2.2,0,4.1-1.8,4.1-4.1v-26C48.7,16.4,46.9,14.6,44.6,14.6z M19.8,32.5h9
			l13.9,14.6H5.9L19.8,32.5z M44.6,16.2c1.2,0,2.2,0.9,2.4,2l-3.2,2.2v-4.3H44.6z M41.1,6.5h-2.9c-0.4,0-0.8-0.4-0.8-0.8V2.8
			L41.1,6.5z M6.5,3.2c0-0.9,0.7-1.6,1.6-1.6h27.6v4.1c0,1.3,1.1,2.4,2.4,2.4h4.1v13.5L29,30.8h-9.2L6.5,21.6V3.2z M4.1,16.2h0.8
			v4.3l-3.2-2.2C1.9,17.1,2.9,16.2,4.1,16.2z M1.6,44.6V20.2l16.6,11.6L3.7,47.1C2.5,46.9,1.6,45.9,1.6,44.6z M45,47.1L30.5,31.8
			l16.6-11.6v24.4C47.1,45.9,46.2,46.9,45,47.1z"/>
		<path class="st1" d="M9.7,10.6c0,0.4,0.4,0.8,0.8,0.8h27.6c0.4,0,0.8-0.4,0.8-0.8c0-0.4-0.4-0.8-0.8-0.8H10.6
			C10.1,9.7,9.7,10.1,9.7,10.6z"/>
		<path class="st1" d="M38.1,14.6H10.6c-0.4,0-0.8,0.4-0.8,0.8c0,0.4,0.4,0.8,0.8,0.8h27.6c0.4,0,0.8-0.4,0.8-0.8
			C39,15,38.6,14.6,38.1,14.6z"/>
		<path class="st1" d="M38.1,19.5H10.6c-0.4,0-0.8,0.4-0.8,0.8s0.4,0.8,0.8,0.8h27.6c0.4,0,0.8-0.4,0.8-0.8S38.6,19.5,38.1,19.5z"/>
		<path class="st1" d="M33.3,24.3H15.4c-0.4,0-0.8,0.4-0.8,0.8S15,26,15.4,26h17.9c0.4,0,0.8-0.4,0.8-0.8S33.7,24.3,33.3,24.3z"/>
		<path class="st1" d="M8.9,8.1c0.4,0,0.8-0.4,0.8-0.8V5.7c0-0.4,0.4-0.8,0.8-0.8h1.6c0.4,0,0.8-0.4,0.8-0.8c0-0.4-0.4-0.8-0.8-0.8
			h-1.6c-1.3,0-2.4,1.1-2.4,2.4v1.6C8.1,7.8,8.5,8.1,8.9,8.1z"/>
	</g>
</g>
</svg>
