<?xml version="1.0" encoding="utf-8"?>
<!-- Generator: Adobe Illustrator 21.0.0, SVG Export Plug-In . SVG Version: 6.00 Build 0)  -->
<svg version="1.1" id="Layer_1" xmlns="http://www.w3.org/2000/svg" xmlns:xlink="http://www.w3.org/1999/xlink" x="0px" y="0px"
	 viewBox="0 0 21.4 20" enable-background="new 0 0 21.4 20" xml:space="preserve">
<g>
	<path id="Path_2478_1_" fill="#3D8BC7" d="M19.7,8.8H1.8C1.6,8.8,1.5,9,1.5,9.2v10.5c0,0.2,0.2,0.3,0.3,0.3h0h17.9
		c0.2,0,0.3-0.2,0.3-0.3l0,0V9.2C20,9,19.8,8.8,19.7,8.8L19.7,8.8z"/>
	<path id="Path_2479_1_" fill="#2E77A3" d="M19.7,8.8H1.8C1.6,8.8,1.5,9,1.5,9.2v1.4H20V9.2C20,9,19.8,8.8,19.7,8.8z"/>
	<path id="Path_2480_1_" fill="#FFD957" d="M12.5,8.8H9C8.8,8.8,8.7,9,8.7,9.2v10.5C8.7,19.8,8.8,20,9,20l0,0h3.5
		c0.2,0,0.3-0.2,0.3-0.3l0,0V9.2C12.8,9,12.6,8.8,12.5,8.8L12.5,8.8z"/>
	<path id="Path_2481_1_" fill="#F2B73B" d="M12.5,8.8H9C8.8,8.8,8.7,9,8.7,9.2v1.3h4.1V9.2C12.8,9,12.6,8.8,12.5,8.8L12.5,8.8z"/>
	<path id="Path_2482_1_" fill="#FFD957" d="M19,2.6c-0.3-0.8-0.8-1.6-1.4-2.3C17.4,0.1,17.1,0,16.8,0c-1,0-2.7,1.3-4.9,3.8
		c-0.1,0.1-0.1,0.1-0.1,0.2v1.8c0,0.2,0.2,0.3,0.3,0.3l0,0h5.2c1.2,0,1.6-0.6,1.8-1C19.5,4.5,19.4,3.6,19,2.6z"/>
	<path id="Path_2483_1_" fill="#ED9123" d="M19.2,3.2C19.2,3.1,19.2,3.1,19.2,3.2c-0.6-0.9-1.7-0.6-2.5-0.2
		c-2.4,1.1-3.4,2.6-3.5,2.7c-0.1,0.2-0.1,0.4,0.1,0.5c0.1,0,0.1,0.1,0.2,0.1h3.9c0.7,0,1.3-0.2,1.6-0.7C19.4,4.9,19.5,4.1,19.2,3.2z
		"/>
	<path id="Path_2484_1_" fill="#FFD957" d="M9.6,3.8C7.3,1.3,5.6,0,4.6,0C4.3,0,4.1,0.1,3.9,0.3C3.2,1,2.8,1.7,2.5,2.6
		C2.1,3.6,2,4.5,2.3,5.1c0.2,0.5,0.7,1,1.8,1h5.2c0.2,0,0.3-0.2,0.3-0.3l0,0V4C9.6,3.9,9.6,3.9,9.6,3.8z"/>
	<path id="Path_2485_1_" fill="#ED9123" d="M8.2,5.6c0-0.1-1-1.6-3.5-2.7C3.9,2.6,2.8,2.3,2.3,3.1c0,0,0,0.1,0,0.1
		C2,4.1,2.1,4.9,2.5,5.5c0.3,0.4,0.9,0.7,1.6,0.7H8c0.2,0,0.3-0.2,0.3-0.3C8.3,5.7,8.3,5.7,8.2,5.6L8.2,5.6z"/>
	<path id="Path_2486_1_" fill="#F2B73B" d="M12.1,3.3H9.3C9.1,3.3,9,3.5,9,3.7v2.1C9,6,9.1,6.2,9.3,6.2h2.8c0.2,0,0.3-0.2,0.3-0.3
		V3.7C12.5,3.5,12.3,3.3,12.1,3.3L12.1,3.3z"/>
	<path id="Path_2487_1_" fill="#1A6C9C" d="M21.1,5.5H0.3C0.2,5.5,0,5.6,0,5.8l0,0v3.3c0,0.2,0.2,0.3,0.3,0.3h20.8
		c0.2,0,0.3-0.2,0.3-0.3V5.8C21.4,5.6,21.3,5.5,21.1,5.5L21.1,5.5z"/>
	<rect id="Rectangle_1919_1_" x="8.1" y="5.5" fill="#FFD957" width="5.2" height="4"/>
</g>
</svg>
