<svg xmlns="http://www.w3.org/2000/svg" viewBox="0 0 47.57 41.73"><defs><style>.cls-1{fill:#565656;}</style></defs><title>CCTV</title><g id="Layer_2" data-name="Layer 2"><g id="Layer_1-2" data-name="Layer 1"><g id="CCTV"><path class="cls-1" d="M5.14,34.9a5.88,5.88,0,0,1,2.92-2.75l-2.64-15-1.37-3A.76.76,0,0,1,4,13.9L1.66.69A.81.81,0,0,0,1.32.15.83.83,0,0,0,.15.36.83.83,0,0,0,0,1l2.33,13.2a1.27,1.27,0,0,1,0,.2l-.24,3.35Z"/><circle class="cls-1" cx="23.78" cy="19.94" r="1.68"/><path class="cls-1" d="M47.56,1a.83.83,0,0,0-.14-.63A.83.83,0,0,0,46.25.15a.81.81,0,0,0-.34.54L43.57,13.9a1.46,1.46,0,0,1,0,.2l-1.37,3-2.64,15a5.88,5.88,0,0,1,2.92,2.75l3-17.16-.23-3.36a.69.69,0,0,1,0-.2Z"/><path class="cls-1" d="M7,41.73H40.55a.83.83,0,0,0,.83-.84V37.54a4.19,4.19,0,0,0-4.19-4.19H33.41a7.53,7.53,0,0,1-7.11,5h-5a7.55,7.55,0,0,1-7.12-5H10.37a4.2,4.2,0,0,0-4.19,4.19v3.35A.84.84,0,0,0,7,41.73Zm31-3.35h1.68v1.68H38Zm-3.35,0h1.67v1.68H34.68Zm-23.47,0h1.68v1.68H11.21Zm-3.35,0H9.53v1.68H7.86Z"/><path class="cls-1" d="M21.27,36.7h5a5.85,5.85,0,0,0,5.29-3.35h-.93a14.93,14.93,0,0,1-13.76,0H16A5.85,5.85,0,0,0,21.27,36.7Z"/><path class="cls-1" d="M23.78,6.53c-.29,0-.57,0-.85,0a8.78,8.78,0,0,0-1.62.33,2.5,2.5,0,0,0,5,0,9,9,0,0,0-1.62-.33C24.35,6.56,24.07,6.53,23.78,6.53Z"/><path class="cls-1" d="M32.3,9.59a10,10,0,0,1,1.54,5.32V25a10,10,0,0,1-1.54,5.32,13.39,13.39,0,0,0,0-20.7Z"/><path class="cls-1" d="M27.83,7.57a4.17,4.17,0,0,1-8.09,0,8.41,8.41,0,0,0-4.34,7.34V25a8.41,8.41,0,0,0,7.53,8.34c.28,0,.56,0,.85,0s.57,0,.86,0A8.4,8.4,0,0,0,32.16,25V14.91A8.4,8.4,0,0,0,27.83,7.57Zm.1,7,1.19,1.18L27.93,17l-1.18-1.19Zm-5-1.37h1.67v1.67H23Zm-3.32,1.37,1.19,1.18L19.64,17l-1.19-1.19Zm-2.55,6.17V19.1h1.67v1.68Zm2.55,4.49-1.18-1.18,1.19-1.19,1.18,1.19Zm5,1.38H23V25h1.67Zm-.84-3.36a3.35,3.35,0,1,1,3.36-3.35A3.35,3.35,0,0,1,23.78,23.29Zm4.15,2-1.18-1.18,1.18-1.19,1.19,1.19Zm2.56-4.49H28.81V19.1h1.68Z"/><path class="cls-1" d="M15.26,30.29A10,10,0,0,1,13.73,25V14.91a10,10,0,0,1,1.53-5.32,13.43,13.43,0,0,0,0,20.7Z"/></g></g></g></svg>