<?xml version="1.0" encoding="utf-8"?>
<!-- Generator: Adobe Illustrator 21.1.0, SVG Export Plug-In . SVG Version: 6.00 Build 0)  -->
<svg version="1.1" id="Layer_1" xmlns="http://www.w3.org/2000/svg" xmlns:xlink="http://www.w3.org/1999/xlink" x="0px" y="0px"
	 viewBox="0 0 15.9 18" style="enable-background:new 0 0 15.9 18;" xml:space="preserve">
<style type="text/css">
	.st0{fill:#FFFFFF;}
</style>
<g>
	<g>
		<g>
			<path class="st0" d="M15.4,7.5l-7-7C7.9,0,7.3,0,6.8,0.5c-0.4,0.4-0.4,1.1,0,1.5l7,7c0.4,0.4,1.1,0.4,1.5,0
				C15.8,8.6,15.8,7.9,15.4,7.5z"/>
		</g>
	</g>
	<g>
		<g>
			<path class="st0" d="M6.3,2.9L6.3,3.2C5.9,5,5,6.8,3.8,8.2l3.8,3.8c1.4-1.2,3.2-2.2,5-2.5l0.3-0.1L6.3,2.9z"/>
		</g>
	</g>
	<g>
		<g>
			<path class="st0" d="M3.1,9l-2.6,2.6c-0.6,0.6-0.6,1.6,0,2.2L2,15.4c0.6,0.6,1.6,0.6,2.2,0l2.6-2.6L3.1,9z M3.4,13.1
				c-0.2,0.2-0.5,0.2-0.7,0s-0.2-0.5,0-0.7l0.7-0.7c0.2-0.2,0.5-0.2,0.7,0c0.2,0.2,0.2,0.5,0,0.7L3.4,13.1z"/>
		</g>
	</g>
	<g>
		<g>
			<path class="st0" d="M9,15.7l0.7-0.7c0.6-0.6,0.6-1.6,0-2.2l-0.5-0.5c-0.3,0.2-0.6,0.4-0.8,0.6L9,13.4c0.2,0.2,0.2,0.5,0,0.7
				l-0.7,0.7l-1.1-1l-1.5,1.5l2.4,2.3c0.4,0.4,1.1,0.4,1.5,0c0.4-0.4,0.4-1.1,0-1.5L9,15.7z"/>
		</g>
	</g>
	<g>
		<g>
			<path class="st0" d="M11.1,0c-0.3,0-0.5,0.2-0.5,0.5v1.1c0,0.3,0.2,0.5,0.5,0.5c0.3,0,0.5-0.2,0.5-0.5V0.5
				C11.7,0.2,11.4,0,11.1,0z"/>
		</g>
	</g>
	<g>
		<g>
			<path class="st0" d="M15.4,4.2h-1.1c-0.3,0-0.5,0.2-0.5,0.5s0.2,0.5,0.5,0.5h1.1c0.3,0,0.5-0.2,0.5-0.5S15.6,4.2,15.4,4.2z"/>
		</g>
	</g>
	<g>
		<g>
			<path class="st0" d="M14.7,1.2c-0.2-0.2-0.5-0.2-0.7,0l-1.1,1.1c-0.2,0.2-0.2,0.5,0,0.7c0.2,0.2,0.5,0.2,0.7,0L14.7,2
				C14.9,1.7,14.9,1.4,14.7,1.2z"/>
		</g>
	</g>
</g>
</svg>
