<svg xmlns="http://www.w3.org/2000/svg" viewBox="0 0 39.74 48.25"><defs><style>.cls-1{fill:#565656;}</style></defs><title>Asset 6</title><g id="Layer_2" data-name="Layer 2"><g id="Layer_1-2" data-name="Layer 1"><path class="cls-1" d="M39.29,22.32A2.83,2.83,0,0,0,37.48,21V16.82C37.48,7.55,29.57,0,19.85,0S2.22,7.55,2.22,16.82V21a2.81,2.81,0,0,0-1.8,1.37A3.83,3.83,0,0,0,0,24.2v9.16A3.8,3.8,0,0,0,.42,35.2a3.08,3.08,0,0,0,2.94,1.51H4.75A1.79,1.79,0,0,0,6.54,38.4H8.12a1.8,1.8,0,0,0,1.79-1.8V20.77A1.79,1.79,0,0,0,8.12,19H6.5a1.79,1.79,0,0,0-1.8,1.79v.07H4v-4c0-8.29,7.11-15,15.84-15s15.84,6.74,15.84,15v4h-.72v-.07A1.8,1.8,0,0,0,33.13,19h-1.5a1.8,1.8,0,0,0-1.8,1.79v15.9a1.81,1.81,0,0,0,1.6,1.74A5.83,5.83,0,0,1,30,41.46c-1.41,1.57-3.71,2.46-6.8,2.7v-.4a1.88,1.88,0,0,0-2-1.79H17.37a1.88,1.88,0,0,0-2,1.79v2.69a1.88,1.88,0,0,0,2,1.8h3.89a1.88,1.88,0,0,0,1.95-1.8V46c3.64-.24,6.38-1.34,8.13-3.27a7.56,7.56,0,0,0,2-4.28A1.81,1.81,0,0,0,35,36.72h1.39a3.05,3.05,0,0,0,2.93-1.52,3.77,3.77,0,0,0,.43-1.83V24.2A3.81,3.81,0,0,0,39.29,22.32ZM6.54,35V22.6a1.61,1.61,0,0,0,0-.31V20.81l1.51,0V36.61H6.54ZM4.75,22.56V34.92H3.36c-1,0-1.29-.44-1.37-.6a2,2,0,0,1-.19-1V24.2a2.1,2.1,0,0,1,.18-1c.08-.14.33-.59,1.37-.59ZM21.46,45.07V46.3a.24.24,0,0,1-.2.12h-4V43.81a.25.25,0,0,1,.18-.06h4.05v1.32ZM33.17,22.6v14H31.65V20.77H33.2Zm4.54,11.74c-.08.15-.32.59-1.37.59H35V22.64h1.38c1,0,1.29.44,1.37.59a2.18,2.18,0,0,1,.2,1v9.16A2.17,2.17,0,0,1,37.71,34.34Z"/></g></g></svg>