<svg xmlns="http://www.w3.org/2000/svg" viewBox="0 0 45.3 47.21"><defs><style>.cls-1{fill:#565656;}</style></defs><title>Asset 8</title><g id="Layer_2" data-name="Layer 2"><g id="Layer_1-2" data-name="Layer 1"><path class="cls-1" d="M43.12,24.22a1.34,1.34,0,0,1,0-1.23l1.76-3.6A4.1,4.1,0,0,0,43.11,14l-3.54-1.88a1.34,1.34,0,0,1-.72-1l-.7-3.95a4.09,4.09,0,0,0-4.62-3.36l-4,.56A1.4,1.4,0,0,1,28.39,4L25.51,1.16a4.1,4.1,0,0,0-5.72,0L16.91,4a1.4,1.4,0,0,1-1.17.38l-4-.56A4.1,4.1,0,0,0,7.14,7.13l-.69,4a1.34,1.34,0,0,1-.72,1L2.19,14A4.1,4.1,0,0,0,.42,19.39L2.18,23a1.4,1.4,0,0,1,0,1.23L.42,27.82a4.1,4.1,0,0,0,1.77,5.44l3.54,1.88a1.34,1.34,0,0,1,.72,1l.69,3.95a4.1,4.1,0,0,0,4,3.4,3.81,3.81,0,0,0,.59,0l4-.56a1.4,1.4,0,0,1,1.17.38l2.88,2.79a4.11,4.11,0,0,0,5.72,0l2.88-2.79a1.4,1.4,0,0,1,1.17-.38l4,.56a4.08,4.08,0,0,0,4.62-3.36l.7-3.95a1.34,1.34,0,0,1,.72-1l3.54-1.88a4.1,4.1,0,0,0,1.77-5.44Zm-1.29,6.64-3.54,1.87a4.09,4.09,0,0,0-2.12,2.93l-.7,4a1.39,1.39,0,0,1-1.56,1.14l-4-.57A4.09,4.09,0,0,0,26.5,41.3l-2.88,2.79a1.4,1.4,0,0,1-1.94,0L18.8,41.3A4.09,4.09,0,0,0,16,40.14a5.85,5.85,0,0,0-.59,0l-4,.57a1.39,1.39,0,0,1-1.56-1.14l-.7-4A4.09,4.09,0,0,0,7,32.73L3.47,30.86A1.4,1.4,0,0,1,2.87,29l1.76-3.6a4.09,4.09,0,0,0,0-3.61L2.87,18.2a1.4,1.4,0,0,1,.6-1.85L7,14.48a4.09,4.09,0,0,0,2.12-2.93l.7-4a1.39,1.39,0,0,1,1.56-1.14l4,.57A4.09,4.09,0,0,0,18.8,5.91l2.88-2.79a1.4,1.4,0,0,1,1.94,0L26.5,5.91A4.09,4.09,0,0,0,29.94,7l4-.57A1.39,1.39,0,0,1,35.47,7.6l.7,4a4.09,4.09,0,0,0,2.12,2.93l3.54,1.87a1.4,1.4,0,0,1,.6,1.85l-1.76,3.6a4.09,4.09,0,0,0,0,3.61L42.43,29A1.4,1.4,0,0,1,41.83,30.86Z"/><path class="cls-1" d="M32.6,13.66a1.37,1.37,0,0,0-1.93,0l-18,18a1.36,1.36,0,0,0,1.93,1.92l18-18A1.36,1.36,0,0,0,32.6,13.66Z"/><path class="cls-1" d="M17.2,11.35a5,5,0,1,0,5,5A5,5,0,0,0,17.2,11.35Zm0,7.26a2.27,2.27,0,1,1,2.27-2.27A2.27,2.27,0,0,1,17.2,18.61Z"/><path class="cls-1" d="M28.1,25.87a5,5,0,1,0,5,5A5,5,0,0,0,28.1,25.87Zm0,7.26a2.27,2.27,0,1,1,2.26-2.26A2.26,2.26,0,0,1,28.1,33.13Z"/></g></g></svg>