<?xml version="1.0" encoding="utf-8"?>
<!-- Generator: Adobe Illustrator 21.1.0, SVG Export Plug-In . SVG Version: 6.00 Build 0)  -->
<svg version="1.1" id="Layer_1" xmlns="http://www.w3.org/2000/svg" xmlns:xlink="http://www.w3.org/1999/xlink" x="0px" y="0px"
	 viewBox="0 0 21.5 15" style="enable-background:new 0 0 21.5 15;" xml:space="preserve">
<style type="text/css">
	.st0{fill:#FFFFFF;}
</style>
<g>
	<path class="st0" d="M10.7,4.6v8.9l7.1-1.3V7.8c0-0.2,0.2-0.3,0.3-0.3L19,7.7c0.2,0,0.3,0.1,0.3,0.3v5c0,0.1-0.1,0.3-0.2,0.3
		l-7.7,1.7c-0.4,0.1-0.8,0.1-1.1,0l-7.6-1.6c-0.1,0-0.2-0.1-0.2-0.3L2.1,7.9c0-0.2,0.1-0.3,0.3-0.3l6.5-0.6C9,7.1,9.1,7,9.2,6.9
		l1-2.4C10.3,4.2,10.7,4.3,10.7,4.6z M2.1,1.7L0,6.1c-0.1,0.2,0.1,0.5,0.3,0.4L8,5.7c0.1,0,0.2-0.1,0.2-0.2L10.7,0L2.3,1.5
		C2.2,1.6,2.1,1.6,2.1,1.7z M10.7,0l2.6,5.7c0,0.1,0.1,0.2,0.3,0.2l7.6,0.6c0.2,0,0.4-0.2,0.3-0.4l-2-4.4c0-0.1-0.1-0.2-0.2-0.2
		L10.7,0z"/>
</g>
</svg>
