<svg xmlns="http://www.w3.org/2000/svg" viewBox="0 0 43.66 43.8"><defs><style>.cls-1{fill:#565656;}</style></defs><title>Asset 12</title><g id="Layer_2" data-name="Layer 2"><g id="Layer_1-2" data-name="Layer 1"><path class="cls-1" d="M.05,34.69l0-19.9a1.36,1.36,0,0,1,1.9-1.26L20,21.28a1.35,1.35,0,0,1,.83,1.25l0,19.9A1.36,1.36,0,0,1,19,43.69L.87,35.94A1.35,1.35,0,0,1,.05,34.69Zm41.52-19L24.85,23l0,18.42,16.72-7.24,0-18.43m.68-2.4a1.36,1.36,0,0,1,1.36,1.36l0,19.91a1.35,1.35,0,0,1-.82,1.25L24.75,43.68a1.31,1.31,0,0,1-.54.11,1.35,1.35,0,0,1-1.36-1.36L22.8,22.52a1.36,1.36,0,0,1,.82-1.25l18.09-7.83a1.32,1.32,0,0,1,.54-.12ZM21.7,2.11,4.35,9.86l17.38,7.66L39.08,9.77,21.7,2.11m0-2.11a1.38,1.38,0,0,1,.56.12l19.06,8.4a1.36,1.36,0,0,1,0,2.49l-19,8.5a1.32,1.32,0,0,1-1.1,0L2.12,11.11a1.37,1.37,0,0,1,0-2.5l19-8.49A1.33,1.33,0,0,1,21.69,0Z"/></g></g></svg>