<?xml version="1.0" encoding="utf-8"?>
<!-- Generator: Adobe Illustrator 23.0.2, SVG Export Plug-In . SVG Version: 6.00 Build 0)  -->
<svg version="1.1" id="Layer_1" xmlns="http://www.w3.org/2000/svg" xmlns:xlink="http://www.w3.org/1999/xlink" x="0px" y="0px"
	 viewBox="0 0 16.3 17" style="enable-background:new 0 0 16.3 17;" xml:space="preserve">
<style type="text/css">
	.st0{fill:#FFD80D;}
	.st1{fill:#3D8DC9;}
</style>
<path class="st0" d="M15.3,8.7c-0.1-0.1-0.1-0.3,0-0.4L15.9,7c0.4-0.7,0.1-1.6-0.6-1.9l-1.3-0.7c-0.2,0-0.3-0.2-0.3-0.3l-0.2-1.4
	c-0.1-0.8-0.9-1.3-1.7-1.2l-1.4,0.2c-0.2,0-0.3,0-0.4-0.1l-1-1c-0.6-0.6-1.5-0.6-2,0l-1,1C6,1.7,5.8,1.8,5.7,1.8L4.3,1.6
	C3.5,1.4,2.8,2,2.7,2.7L2.4,4.1c0,0.2-0.1,0.3-0.3,0.4L0.9,5.1C0.3,5.5,0,6.2,0.4,7l0.6,1.3C1,8.4,1,8.6,0.9,8.7L0.4,9.9
	c-0.4,0.7-0.1,1.6,0.6,1.9l1.3,0.7c0.1,0.1,0.2,0.2,0.3,0.4l0.2,1.4c0.1,0.7,0.7,1.2,1.5,1.2c0.1,0,0.1,0,0.2,0l1.4-0.2
	c0.2,0,0.3,0,0.4,0.1l1,1c0.3,0.3,0.7,0.4,1,0.4c0.4,0,0.7-0.1,1-0.4l1-1c0.1-0.1,0.3-0.2,0.4-0.1l1.4,0.2c0.8,0.1,1.5-0.4,1.7-1.2
	l0.4-1.5c0-0.2,0.1-0.3,0.3-0.4l1.3-0.7c0.7-0.4,1-1.2,0.6-1.9L15.3,8.7z"/>
<g>
	<path class="st1" d="M12,5.7H8.7L10,3.9c0-0.1,0.1-0.2,0.1-0.2c0-0.1-0.1-0.2-0.1-0.2c-0.1,0-0.2-0.1-0.2-0.1
		c-0.1,0-0.2,0.1-0.2,0.1l-1.5,2L6.7,4.7c-0.1,0-0.2-0.1-0.2,0c-0.1,0-0.1,0.1-0.2,0.1C6.2,5,6.2,5.2,6.4,5.3L7,5.7H4.3
		C4.1,5.7,3.9,5.8,3.9,6v5.2c0,0.2,0.1,0.3,0.3,0.3h1v0c0,0.2,0.1,0.3,0.3,0.3c0.2,0,0.3-0.1,0.3-0.3l4.6,0v0c0,0.2,0.1,0.3,0.3,0.3
		c0.2,0,0.3-0.1,0.3-0.3l1,0c0.2,0,0.3-0.1,0.3-0.3V6C12.4,5.8,12.2,5.7,12,5.7z M11.7,10.9H4.6V6.3h7.2V10.9z"/>
	<path class="st1" d="M9,6.8H6c-0.5,0-0.9,0.4-0.9,0.9v1.8c0,0.5,0.4,0.9,0.9,0.9h3c0.5,0,0.9-0.4,0.9-0.9V7.7
		C9.9,7.2,9.5,6.8,9,6.8z M9.3,9.5c0,0.2-0.1,0.3-0.3,0.3H6c-0.2,0-0.3-0.1-0.3-0.3V7.7c0-0.2,0.1-0.3,0.3-0.3h3
		c0.2,0,0.3,0.1,0.3,0.3V9.5z"/>
	<path class="st1" d="M11.4,7.3c0,0.2-0.1,0.3-0.3,0.3h-0.3c-0.2,0-0.3-0.1-0.3-0.3c0-0.2,0.1-0.3,0.3-0.3h0.3
		C11.2,7,11.4,7.1,11.4,7.3z"/>
	<path class="st1" d="M11.4,8.2c0,0.2-0.1,0.3-0.3,0.3h-0.3c-0.2,0-0.3-0.1-0.3-0.3c0-0.2,0.1-0.3,0.3-0.3h0.3
		C11.2,7.9,11.4,8.1,11.4,8.2z"/>
	<path class="st1" d="M11.4,9.2c0,0.2-0.1,0.3-0.3,0.3h-0.3c-0.2,0-0.3-0.1-0.3-0.3s0.1-0.3,0.3-0.3h0.3C11.2,8.9,11.4,9.1,11.4,9.2
		z"/>
</g>
</svg>
