<svg xmlns="http://www.w3.org/2000/svg" viewBox="0 0 43.03 43.8"><defs><style>.cls-1{fill:#565656;}</style></defs><title>Asset 13</title><g id="Layer_2" data-name="Layer 2"><g id="Layer_1-2" data-name="Layer 1"><path class="cls-1" d="M42.27,31.51H.77a.76.76,0,0,0-.77.77V40a.77.77,0,0,0,.77.77h41.5A.77.77,0,0,0,43,40V32.28A.76.76,0,0,0,42.27,31.51ZM24.59,38.42a.76.76,0,0,1-.77.77H2.31a.76.76,0,0,1-.77-.77V33.81A.77.77,0,0,1,2.31,33H23.82a.77.77,0,0,1,.77.77Zm6.15.77H29.2V37.65h1.54Zm0-4.61H29.2V33h1.54Zm3.07,4.61H32.28V37.65h1.53Zm0-4.61H32.28V33h1.53ZM40,36.89a2.31,2.31,0,1,1,2.31-2.31A2.32,2.32,0,0,1,40,36.89Z"/><path class="cls-1" d="M40.73,34.58a.77.77,0,1,1-.77-.77A.77.77,0,0,1,40.73,34.58Z"/><path class="cls-1" d="M3.07,34.58h20v3.07h-20Z"/><path class="cls-1" d="M5.21,43.8H7.08l.39-1.53H4.83Z"/><path class="cls-1" d="M36,43.8h1.87l.39-1.53H35.57Z"/><path class="cls-1" d="M42.27,0H.77A.76.76,0,0,0,0,.77V23.82a.76.76,0,0,0,.77.77h41.5a.76.76,0,0,0,.76-.77V.77A.76.76,0,0,0,42.27,0Zm0,23.05a.77.77,0,0,1-.77.77h-40a.76.76,0,0,1-.77-.77V1.54A.76.76,0,0,1,1.54.77h40a.77.77,0,0,1,.77.77Z"/><path class="cls-1" d="M2.31,2.31H20.75v9.22H2.31Z"/><path class="cls-1" d="M22.29,13.06H40.73v9.23H22.29Z"/><path class="cls-1" d="M22.29,2.31H40.73v9.22H22.29Z"/><path class="cls-1" d="M2.31,13.06H20.75v9.23H2.31Z"/><path class="cls-1" d="M20,26.13h3.07V30H20Z"/></g></g></svg>