<svg xmlns="http://www.w3.org/2000/svg" viewBox="0 0 41.57 45.3"><defs><style>.cls-1{fill:#565656;}</style></defs><title>Asset 3</title><g id="Layer_2" data-name="Layer 2"><g id="Layer_1-2" data-name="Layer 1"><path class="cls-1" d="M40,10.24,22.23.38a2.92,2.92,0,0,0-2.89,0h0L1.54,10.24A3,3,0,0,0,0,12.85v19.6a3,3,0,0,0,1.54,2.61l17.8,9.86a2.94,2.94,0,0,0,2.89,0L40,35.06a3,3,0,0,0,1.54-2.61V12.85A3,3,0,0,0,40,10.24ZM20.52,2.52a.51.51,0,0,1,.53,0l7.1,3.93L11,16,3.74,11.82Zm-1,39.73L2.72,32.92a.53.53,0,0,1-.27-.47V13.89l7.94,4.52h0l9.17,5.21V42.25ZM13.5,17.37,30.68,7.85l7.38,4.09L20.79,21.51ZM39.12,32.45a.52.52,0,0,1-.28.47L22,42.25V23.63l17.11-9.48Z"/><path class="cls-1" d="M12.2,22.46,5.72,18.89A1.22,1.22,0,0,0,3.91,20v5.16a1.24,1.24,0,0,0,.63,1.08L11,29.77a1.26,1.26,0,0,0,.59.15,1.14,1.14,0,0,0,.62-.17,1.21,1.21,0,0,0,.61-1.05V23.53A1.24,1.24,0,0,0,12.2,22.46Zm-1.81,4.17-4-2.22V22l4,2.23v2.37Z"/><path class="cls-1" d="M17.3,35.39,14.06,33.6a1.23,1.23,0,0,0-1.18,2.15l3.24,1.78a1.26,1.26,0,0,0,.59.15,1.22,1.22,0,0,0,.59-2.29Z"/></g></g></svg>