<svg xmlns="http://www.w3.org/2000/svg" viewBox="0 0 174.52 41.67"><defs><style>.cls-1{fill:#fff;}</style></defs><title>Asset 1</title><g id="Layer_2" data-name="Layer 2"><g id="Layer_1-2" data-name="Layer 1"><path class="cls-1" d="M90.5.07,88,4.49,77.24,23.2c-2.69,4.68-5.32,9.39-8.08,14a7.24,7.24,0,0,1-6.62,3.61H51.27c-.33,0-.66,0-1,0-.63,0-.7-.11-.39-.66.72-1.27,1.43-2.55,2.16-3.81,1.18-2,2.36-4.06,3.53-6.09,1.36-2.35,2.69-4.72,4.08-7.06a2.33,2.33,0,0,0,0-2.7c-.94-1.5-1.79-3-2.67-4.59-.33-.58-.32-.59.38-.59,1.84,0,3.67,0,5.51,0a2,2,0,0,0,2-1.12c2-3.58,4-7.18,6.15-10.71A6.81,6.81,0,0,1,76.84.06c4.42-.1,8.83,0,13.25,0Z"/><path class="cls-1" d="M23.35,40.84,26,36.24c1.64-2.85,3.27-5.72,4.91-8.58,1.51-2.64,3-5.27,4.56-7.92L42.6,7.32C43.4,5.93,44.15,4.5,45,3.17A6.63,6.63,0,0,1,50.47.07C55,0,59.47,0,64,0l.33,0c-.56,1-1.09,1.93-1.63,2.87Q59.8,8,56.92,13,52.45,20.74,48,28.55c-1.65,2.87-3.23,5.79-5,8.62a7.44,7.44,0,0,1-6.65,3.7c-3.94,0-7.88,0-11.82,0Z"/><path class="cls-1" d="M7.06,0c2.08,0,4.17,0,6.25,0a6.92,6.92,0,0,1,5.87,3.12c1.28,1.91,2.35,4,3.51,6l6.46,11.24c.3.51.54,1.07.89,1.55a1.17,1.17,0,0,1,0,1.46C29,25.18,27.94,27,26.88,28.85l-4.72,8.24c-.14.24-.24.64-.49.65s-.37-.39-.51-.63c-1.88-3.26-3.77-6.51-5.64-9.78-2.56-4.48-5.1-9-7.66-13.44S2.76,5,.2.58C-.11,0-.11,0,.56,0Z"/><path class="cls-1" d="M159.5,21.66a5.62,5.62,0,0,0,.08-1.58q0-3,0-6.07c0-.5.17-.63.63-.65,2-.08,2-.09,2,1.83,0,3.41,0,6.82,0,10.22,0,.5-.11.75-.64.65h-.06c-2,0-2,0-3-1.79-1.26-2.18-2.58-4.31-3.87-6.47,0,0-.09-.07-.21-.18,0,.48,0,.88,0,1.27,0,2.19,0,4.38,0,6.57,0,.48-.14.68-.63.6a4,4,0,0,0-.49,0c-1.46,0-1.48,0-1.48-1.49q0-4.86,0-9.72A1.35,1.35,0,0,1,153,13.39c.14,0,.29,0,.43,0a1.33,1.33,0,0,1,1.47.79c1.34,2.38,2.78,4.71,4.18,7.06A.84.84,0,0,0,159.5,21.66Z"/><path class="cls-1" d="M126.4,19.76c0,1.9,0,3.8,0,5.7,0,.47-.13.66-.62.61a10,10,0,0,0-1.55,0c-.38,0-.5-.12-.49-.5,0-1.5,0-3,0-4.51,0-.51-.12-.69-.65-.67-1.36,0-2.73,0-4.09,0-.42,0-.57.12-.55.57,0,1.5,0,3,0,4.52,0,.44-.12.62-.6.58a14.4,14.4,0,0,0-1.61,0c-.31,0-.43-.1-.43-.42,0-3.63,0-7.26,0-10.89,0-.88.54-1.32,1.44-1.34,1.17,0,1.17,0,1.17,1.17,0,1,0,2.06,0,3.09,0,.36.11.47.46.46,1.44,0,2.88,0,4.33,0,.39,0,.49-.14.48-.51,0-1.21,0-2.43,0-3.65,0-.41.08-.61.54-.58a9.14,9.14,0,0,0,1.48,0c.48,0,.65.11.64.61,0,1.92,0,3.84,0,5.75Z"/><path class="cls-1" d="M172.5,24.52c-.46.26-.69.68-1.07.93a5.56,5.56,0,0,1-6.73-1.26,7.5,7.5,0,0,1-1.2-6.33,5.18,5.18,0,0,1,3.35-4.12c2.09-.78,5.41-.41,6.82,1.73a5.46,5.46,0,0,1,.7,1.56c.1.35,0,.5-.38.47s-.75,0-1.12,0a1.23,1.23,0,0,1-1.14-.61,2.89,2.89,0,0,0-3.15-1.32,2.93,2.93,0,0,0-2.52,2.33,5.59,5.59,0,0,0,.41,4.54,3.2,3.2,0,0,0,5.16.34,2.43,2.43,0,0,0,.14-.2c.81-1.55.61-1.35-.63-1.32s-1.74-.42-1.68-1.62c0-.29.1-.4.4-.4,1.4,0,2.8,0,4.21,0,.31,0,.44.11.44.43,0,1.92,0,3.84,0,5.76,0,.27-.09.35-.35.38A1.41,1.41,0,0,1,172.5,24.52Z"/><path class="cls-1" d="M139.23,19.84a6,6,0,0,1-2.17,5.07,6.34,6.34,0,0,1-5.94.8,4.83,4.83,0,0,1-3.27-3.43,8.23,8.23,0,0,1,.13-5.39,5,5,0,0,1,4.31-3.39,5.74,5.74,0,0,1,5.69,2A6.54,6.54,0,0,1,139.23,19.84Zm-2.47,0a5.48,5.48,0,0,0-.27-1.89,3,3,0,0,0-3.16-2.32,3,3,0,0,0-3.08,2.24,7.08,7.08,0,0,0,0,4,3.27,3.27,0,0,0,5.15,1.46A4.27,4.27,0,0,0,136.76,19.8Z"/><path class="cls-1" d="M139,26.06c.47-1.33.89-2.59,1.34-3.85q1.36-3.83,2.75-7.65c.36-1,.59-1.15,1.63-1.15,1.82,0,1.81,0,2.42,1.67q1.8,5,3.62,10c.37,1,.37,1-.74,1-1.71,0-1.71,0-2.19-1.63-.29-1-.29-1-1.31-1s-2.27,0-3.41,0a.62.62,0,0,0-.75.58c-.14.58-.35,1.14-.53,1.71-.06.18-.11.33-.36.33Zm6.11-9.9h-.16q-.79,2.43-1.58,4.84c-.1.3.07.35.32.35h2.65c.34,0,.45-.17.35-.47Q145.86,18.52,145.06,16.16Z"/><path class="cls-1" d="M110.74,17.88c0,1.18,0,2.35,0,3.53A4.31,4.31,0,0,1,106.27,26a8,8,0,0,1-2.75-.26,4,4,0,0,1-2.91-3.73c-.06-2.46,0-4.91,0-7.37a1.23,1.23,0,0,1,1.3-1.26c1.3-.06,1.3-.06,1.3,1.21,0,2.12,0,4.25,0,6.37a4.25,4.25,0,0,0,.06.8,2.53,2.53,0,0,0,3.93,1.66,2.47,2.47,0,0,0,.95-2.29q0-3.57,0-7.12c0-.53.15-.7.65-.65s1.44-.27,1.85.15.09,1.18.1,1.79C110.75,16.19,110.74,17,110.74,17.88Z"/><path class="cls-1" d="M88.85,13.42c.83,0,1.67,0,2.51,0,.33,0,.36.22.42.44q1,3.49,2,7c.17.58.34,1.14.53,1.75.26-.16.28-.42.34-.64.75-2.54,1.5-5.08,2.23-7.63a1.11,1.11,0,0,1,1.2-.91,12.32,12.32,0,0,0,1.36,0c.48,0,.5.16.37.53-.49,1.39-1,2.79-1.44,4.19-.84,2.47-1.69,4.94-2.52,7.41-.13.39-.29.58-.74.54-.63-.06-1.41.18-1.87-.11s-.5-1.13-.71-1.73q-1.8-5.2-3.61-10.42C88.87,13.69,88.79,13.59,88.85,13.42Z"/><path class="cls-1" d="M173.2,31.75a12.48,12.48,0,0,0-.89,2.82c-.14.51-.27,1-.39,1.55s-.47.34-.75.33-.72.2-.85-.34c-.28-1.14-.57-2.28-.87-3.41-.07-.28,0-.62-.38-.82a.9.9,0,0,0-.1.61c0,1.16,0,2.31,0,3.47,0,.43-.16.54-.54.5s-.73.14-.72-.46c0-1.8,0-3.6,0-5.39a.72.72,0,0,1,.69-.79c.22,0,.45,0,.68,0,.53-.06.75.17.87.68.27,1.21.61,2.4.92,3.59a.75.75,0,0,0,.32.53c.25-1,.5-1.88.74-2.81q.21-.78.39-1.56c.07-.32.25-.41.57-.43,1.61-.08,1.6-.09,1.6,1.49s0,3.06,0,4.58c0,.67-.36.58-.78.61s-.54-.27-.54-.66C173.21,34.46,173.2,33.1,173.2,31.75Z"/><path class="cls-1" d="M161,36.6a3,3,0,0,1-3.18-3.27c0-2.21,1.16-3.54,3.13-3.55a3.12,3.12,0,0,1,3.2,3.38C164.14,35.34,163,36.6,161,36.6Zm1.82-3.47c0-.21,0-.38,0-.54a1.77,1.77,0,0,0-1.4-1.58,1.69,1.69,0,0,0-2.11,1.15,3.23,3.23,0,0,0,0,2.23,1.74,1.74,0,0,0,3,.46A3.05,3.05,0,0,0,162.8,33.13Z"/><path class="cls-1" d="M143.08,36.46c-.64,0-1.28,0-1.92,0-.36,0-.52-.09-.52-.48,0-1.77,0-3.55,0-5.32a.74.74,0,0,1,.85-.83c1.17,0,2.35,0,3.52,0,.41,0,.53.15.53.55s-.1.61-.56.6c-.84,0-1.69,0-2.53,0-.38,0-.51.11-.5.49,0,.91,0,.91.92.92.38,0,.75,0,1.12,0s.65-.2.64.3a.68.68,0,0,1-.62.78c-.37,0-.75,0-1.12,0s-.74-.16-.86.13a2.92,2.92,0,0,0,0,1.47c0,.19.27.13.43.13.85,0,1.69,0,2.54,0,.49,0,.58.19.57.62s-.09.61-.55.58C144.36,36.43,143.72,36.46,143.08,36.46Z"/><path class="cls-1" d="M124.61,33.32c0-.85,0-1.7,0-2.54s.2-1,.9-1c1.14,0,2.27,0,3.4,0,.45,0,.55.17.56.59s-.16.58-.56.58c-.81,0-1.61,0-2.41,0-.41,0-.59.07-.54.5a3.37,3.37,0,0,1,0,.55c0,.31.13.39.42.38.51,0,1,0,1.54,0,.26,0,.63-.13.64.34s-.17.73-.63.76a14.61,14.61,0,0,1-1.48,0c-.4,0-.49.12-.49.49,0,1.25,0,1.25,1.18,1.25.62,0,1.24,0,1.86,0s.44.35.45.67,0,.55-.44.54c-1.32,0-2.64,0-4,0-.36,0-.46-.15-.45-.48,0-.89,0-1.78,0-2.66Z"/><path class="cls-1" d="M119.29,41h-1.35c0-2.92,0-7.3,0-10.23h1.33c0,.21,0,.47,0,.8V35.5h0Z"/><path class="cls-1" d="M151.74,36.58c-2.27,0-3.1-1.46-3-3.58a4,4,0,0,1,.34-1.63,3.23,3.23,0,0,1,5.27-.36c.19.32.48.7.16,1.07s-1,0-1.26-.36a1.47,1.47,0,0,0-1.46-.72,1.57,1.57,0,0,0-1.57,1.14,3.42,3.42,0,0,0,0,2.19,1.56,1.56,0,0,0,1.47,1.13,1.47,1.47,0,0,0,1.58-.83,1.09,1.09,0,0,1,1.22-.34c.23.15.13.36.08.55a2.42,2.42,0,0,1-2.24,1.74A5,5,0,0,1,151.74,36.58Z"/><path class="cls-1" d="M132.74,33.3V30.7c0-.44.14-.76.62-.86s.76,0,.76.63c0,1.43,0,2.85,0,4.27,0,.41.11.55.52.53.76,0,1.53,0,2.29,0,.54,0,.44.33.46.65s-.07.56-.51.56c-1.21,0-2.43,0-3.65,0-.38,0-.5-.13-.5-.5,0-.89,0-1.77,0-2.66Z"/><path class="cls-1" d="M124.14,39.71a1.36,1.36,0,0,1-.47.93,1.38,1.38,0,0,1-1,.37,1.42,1.42,0,0,1-1-.41,1.34,1.34,0,0,1-.44-1,1.33,1.33,0,0,1,.44-1,1.49,1.49,0,0,1,2.14.09A1.34,1.34,0,0,1,124,39h-.32a1,1,0,0,0-.41-.38,1.1,1.1,0,0,0-.55-.14,1.14,1.14,0,0,0-.84.34,1.15,1.15,0,0,0,0,1.65,1.21,1.21,0,0,0,.85.33,1.15,1.15,0,0,0,.68-.22,1,1,0,0,0,.42-.58h-1.52v-.25Z"/><path class="cls-1" d="M124.54,38.7v-.46h.25v.46Zm0,2.26V39h.25v2Z"/><path class="cls-1" d="M126.19,41h-.28l-.85-2h.28l.71,1.69.72-1.69h.28Z"/><path class="cls-1" d="M129.31,40.05h-1.83a.7.7,0,0,0,.25.51.76.76,0,0,0,1,.09.63.63,0,0,0,.29-.35h.27a1,1,0,0,1-.38.52,1,1,0,0,1-.61.19,1.06,1.06,0,0,1-1-1,1,1,0,0,1,.31-.75,1,1,0,0,1,.74-.31,1,1,0,0,1,.75.32,1.07,1.07,0,0,1,.31.76Zm-.26-.23a.75.75,0,0,0-.27-.49.71.71,0,0,0-.52-.2.72.72,0,0,0-.52.2.79.79,0,0,0-.26.49Z"/><path class="cls-1" d="M130.18,41a.64.64,0,0,1-.45-.17.6.6,0,0,1-.17-.45v0h.25c0,.27.13.41.37.41a.32.32,0,0,0,.37-.36.34.34,0,0,0-.14-.28.48.48,0,0,0-.16-.08l-.17-.07-.17-.07-.15-.1a.45.45,0,0,1-.14-.36.54.54,0,0,1,.16-.41.58.58,0,0,1,.41-.15.53.53,0,0,1,.39.16.5.5,0,0,1,.16.39h-.26c0-.22-.11-.32-.3-.32a.29.29,0,0,0-.16.54.52.52,0,0,0,.15.07l0,0h0l.09,0a.54.54,0,0,1,.17.08.58.58,0,0,1,.15.11.54.54,0,0,1,.15.4C130.81,40.81,130.6,41,130.18,41Z"/><path class="cls-1" d="M133.14,40.05V41h-.27v-.91l-1-1.81h.3l.78,1.53.8-1.53h.3Z"/><path class="cls-1" d="M135.71,40.7A1,1,0,0,1,135,41a1.08,1.08,0,0,1-1.05-1,1.06,1.06,0,0,1,.31-.75,1,1,0,0,1,.74-.32,1.05,1.05,0,0,1,.75,1.8Zm-.18-1.33a.76.76,0,0,0-.56-.24.72.72,0,0,0-.57.25.84.84,0,0,0-.23.59.81.81,0,0,0,.23.57.78.78,0,0,0,.57.24.72.72,0,0,0,.57-.25.83.83,0,0,0,.22-.59A.77.77,0,0,0,135.53,39.37Z"/><path class="cls-1" d="M137.92,41v-.31h0a.51.51,0,0,1-.27.27.75.75,0,0,1-.37.09.84.84,0,0,1-.7-.3.89.89,0,0,1-.14-.31,1.72,1.72,0,0,1,0-.34V39h.26v1.11a.87.87,0,0,0,.13.52.57.57,0,0,0,.48.2.6.6,0,0,0,.43-.16.73.73,0,0,0,.17-.28,1.41,1.41,0,0,0,0-.33V39h.25v2Z"/><path class="cls-1" d="M141.82,41l-.4-.91h-1.26l-.4.91h-.29l1.17-2.72h.3L142.12,41Zm-1-2.41-.53,1.25h1.06Z"/><path class="cls-1" d="M144.68,40.78a.79.79,0,0,1-.58.23.81.81,0,0,1-.6-.22.78.78,0,0,1-.24-.59h.27a.51.51,0,0,0,.57.56.55.55,0,0,0,.55-.54.47.47,0,0,0-.2-.39.68.68,0,0,0-.19-.11l-.22-.08-.28-.09a.91.91,0,0,1-.22-.13.61.61,0,0,1-.21-.5.67.67,0,0,1,.23-.52.79.79,0,0,1,1.07,0,.69.69,0,0,1,.22.53h-.27a.52.52,0,0,0-.14-.35.49.49,0,0,0-.34-.14.48.48,0,0,0-.35.13.43.43,0,0,0-.15.34.4.4,0,0,0,.22.36l.21.09.22.06a1.11,1.11,0,0,1,.48.28.72.72,0,0,1,.19.51A.75.75,0,0,1,144.68,40.78Z"/><path class="cls-1" d="M147.25,40.05h-1.84a.74.74,0,0,0,.25.51.76.76,0,0,0,.54.22.75.75,0,0,0,.43-.13.67.67,0,0,0,.29-.35h.27a1,1,0,0,1-1,.71,1,1,0,0,1-1-1,1.05,1.05,0,0,1,.3-.75,1,1,0,0,1,.75-.31,1,1,0,0,1,.74.32,1,1,0,0,1,.31.76Zm-.26-.23a.85.85,0,0,0-.27-.49.78.78,0,0,0-1,0,.75.75,0,0,0-.27.49Z"/><path class="cls-1" d="M149.16,41v-1.1a.94.94,0,0,0,0-.3.65.65,0,0,0-.14-.26.66.66,0,0,0-.44-.17.64.64,0,0,0-.44.17.53.53,0,0,0-.15.25.88.88,0,0,0,0,.29V41h-.26V39h.26v.26h0a.68.68,0,0,1,.62-.31.84.84,0,0,1,.66.27,1,1,0,0,1,.23.69V41Z"/><path class="cls-1" d="M150.36,41a.58.58,0,0,1-.62-.62v0H150c0,.27.12.41.36.41a.32.32,0,0,0,.37-.36.31.31,0,0,0-.14-.28.53.53,0,0,0-.15-.08l-.17-.07-.18-.07-.15-.1a.49.49,0,0,1-.14-.36.54.54,0,0,1,.16-.41.59.59,0,0,1,.41-.15.55.55,0,0,1,.55.55h-.26c0-.22-.11-.32-.3-.32a.27.27,0,0,0-.3.3.26.26,0,0,0,.14.24.52.52,0,0,0,.15.07l0,0h.05l.08,0a.75.75,0,0,1,.18.08.58.58,0,0,1,.15.11.57.57,0,0,1,.14.4C151,40.81,150.78,41,150.36,41Z"/><path class="cls-1" d="M153.32,40.05h-1.84a.74.74,0,0,0,.25.51.77.77,0,0,0,1,.09.67.67,0,0,0,.29-.35h.27a1,1,0,0,1-1,.71,1,1,0,0,1-1.05-1,1.05,1.05,0,0,1,.3-.75,1,1,0,0,1,.74-.31,1,1,0,0,1,.75.32,1,1,0,0,1,.31.76Zm-.26-.23a.85.85,0,0,0-.27-.49.78.78,0,0,0-1,0,.75.75,0,0,0-.27.49Z"/><path class="cls-1" d="M157.11,40.6a1.46,1.46,0,0,1-2,0,1.34,1.34,0,0,1-.44-1,1.38,1.38,0,0,1,.42-1,1.47,1.47,0,0,1,2,0,1.37,1.37,0,0,1,.43,1A1.35,1.35,0,0,1,157.11,40.6Zm-.19-1.82a1.13,1.13,0,0,0-.83-.34,1.09,1.09,0,0,0-.82.34,1.15,1.15,0,0,0-.34.83,1.11,1.11,0,0,0,.34.82,1.16,1.16,0,0,0,.82.33,1.13,1.13,0,0,0,.83-.34,1.09,1.09,0,0,0,.34-.82A1.11,1.11,0,0,0,156.92,38.78Z"/><path class="cls-1" d="M158.33,39.18V41h-.25V39.18h-.32V39h.32V38.8q0-.09,0-.15a.52.52,0,0,1,.28-.36.87.87,0,0,1,.46-.1v.24c-.35,0-.52.17-.52.5v0h.52v.23Z"/><path class="cls-1" d="M161.37,40.78a.78.78,0,0,1-.58.23.84.84,0,0,1-.6-.22.86.86,0,0,1-.24-.59h.28a.5.5,0,0,0,.56.56.56.56,0,0,0,.39-.15.51.51,0,0,0,.16-.39.47.47,0,0,0-.19-.39.75.75,0,0,0-.2-.11,1.32,1.32,0,0,0-.22-.08l-.27-.09a1,1,0,0,1-.23-.13.64.64,0,0,1-.2-.5.66.66,0,0,1,.22-.52.8.8,0,0,1,1.08,0,.73.73,0,0,1,.22.53h-.28a.48.48,0,0,0-.48-.49.49.49,0,0,0-.35.13.46.46,0,0,0-.14.34.38.38,0,0,0,.22.36l.21.09.22.06a1.24,1.24,0,0,1,.48.28.76.76,0,0,1,.18.51A.75.75,0,0,1,161.37,40.78Z"/><path class="cls-1" d="M163.94,40.05h-1.83a.7.7,0,0,0,.25.51.76.76,0,0,0,1,.09.63.63,0,0,0,.29-.35h.27a1,1,0,0,1-.38.52,1,1,0,0,1-.61.19,1.06,1.06,0,0,1-1-1,1,1,0,0,1,.31-.75,1,1,0,0,1,.74-.31,1,1,0,0,1,.75.32A1.07,1.07,0,0,1,164,40Zm-.26-.23a.75.75,0,0,0-.27-.49.71.71,0,0,0-.52-.2.72.72,0,0,0-.52.2.79.79,0,0,0-.26.49Z"/><path class="cls-1" d="M166.33,40.37a1.11,1.11,0,0,1-1.76.34,1,1,0,0,1-.32-.75,1,1,0,0,1,.32-.76,1.06,1.06,0,0,1,.76-.3,1.13,1.13,0,0,1,.6.17,1,1,0,0,1,.4.49h-.28a.75.75,0,0,0-.71-.43.81.81,0,0,0-.59.24.78.78,0,0,0-.25.58.8.8,0,0,0,.25.59.79.79,0,0,0,.59.24.74.74,0,0,0,.71-.41Z"/><path class="cls-1" d="M168.23,41v-.31h0a.53.53,0,0,1-.26.27.91.91,0,0,1-1.07-.21.75.75,0,0,1-.15-.31,1.72,1.72,0,0,1,0-.34V39H167v1.11a.87.87,0,0,0,.13.52.57.57,0,0,0,.48.2.6.6,0,0,0,.43-.16.73.73,0,0,0,.17-.28,1.41,1.41,0,0,0,0-.33V39h.25v2Z"/><path class="cls-1" d="M169.79,39.17a.55.55,0,0,0-.57.62V41H169V39h.26v.29h0a.48.48,0,0,1,.22-.26.81.81,0,0,1,.34-.08Z"/><path class="cls-1" d="M170.07,38.7v-.46h.26v.46Zm0,2.26V39h.26v2Z"/><path class="cls-1" d="M171.3,39.18V41H171V39.18h-.42V39H171v-.71h.26V39h.48v.23Z"/><path class="cls-1" d="M172.57,41.67h-.27l.35-.77L171.87,39h.27l.64,1.61.69-1.61h.27Z"/><path class="cls-1" d="M174.2,40.25v-2h.27v2Zm0,.71V40.5h.27V41Z"/><rect class="cls-1" x="115.94" y="29.81" width="5.36" height="1.18"/></g></g></svg>