<?xml version="1.0" encoding="utf-8"?>
<!-- Generator: Adobe Illustrator 19.0.0, SVG Export Plug-In . SVG Version: 6.00 Build 0)  -->
<svg version="1.1" id="Layer_1" xmlns="http://www.w3.org/2000/svg" xmlns:xlink="http://www.w3.org/1999/xlink" x="0px" y="0px"
	 viewBox="0 0 19.1 18.4" style="enable-background:new 0 0 19.1 18.4;" xml:space="preserve">
<style type="text/css">
	.st0{fill:#FFFFFF;}
</style>
<g>
	<path class="st0" d="M6.6,0.4c0.1,0,0.2,0.1,0.3,0.1c0.6,0.2,1,0.8,1,1.5c0,0.9,0,1.7,0,2.6c2.1,0,4.1,0,6.2,0c0,4.5,0,9,0,13.5
		c-3.1,0-6.2,0-9.3,0c0-0.1,0-0.1,0-0.2c0-5.3,0-10.5,0-15.8c0-0.9,0.4-1.4,1.3-1.6c0,0,0,0,0,0C6.4,0.4,6.5,0.4,6.6,0.4z M13.1,17
		c0-2.4,0-4.8,0-7.2c-2.4,0-4.8,0-7.2,0c0,2.4,0,4.8,0,7.2C8.3,17,10.7,17,13.1,17z M5.9,8.7c2.4,0,4.8,0,7.2,0c0-1.1,0-2.1,0-3.2
		c-2.4,0-4.8,0-7.2,0C5.9,6.6,5.9,7.7,5.9,8.7z M5.9,4.5c0.4,0,0.7,0,1,0c0-0.3,0-0.7,0-1c-0.3,0-0.7,0-1,0C5.9,3.8,5.9,4.1,5.9,4.5
		z M6.9,2.4c0-0.2,0-0.4,0-0.5c0-0.3-0.2-0.5-0.5-0.5C6.2,1.4,6,1.6,5.9,1.8c0,0.2,0,0.4,0,0.6C6.3,2.4,6.6,2.4,6.9,2.4z"/>
	<path id="XMLID_39_" class="st0" d="M0.7,7.6c0-0.3,0.1-0.7,0.1-1C0.9,6,1.1,5.4,1.3,4.8c0.3,0.1,0.6,0.3,1,0.4
		c-0.7,2-0.8,3.9,0,5.9c-0.2,0.1-0.3,0.1-0.5,0.2c-0.2,0.1-0.3,0.1-0.5,0.2c-0.1-0.4-0.3-0.8-0.4-1.3C0.8,9.8,0.8,9.3,0.7,8.9
		c0,0,0-0.1,0-0.1C0.7,8.4,0.7,8,0.7,7.6z"/>
	<path id="XMLID_38_" class="st0" d="M17.7,11.5c-0.3-0.1-0.6-0.3-1-0.4c0.8-2,0.7-3.9,0-5.9c0.3-0.1,0.6-0.3,1-0.4
		C18.6,7.1,18.6,9.3,17.7,11.5z"/>
	<path id="XMLID_37_" class="st0" d="M3.3,5.6c0.3,0.1,0.6,0.3,1,0.4c-0.5,1.5-0.6,2.9,0,4.4c-0.3,0.1-0.6,0.3-1,0.4
		C2.6,9,2.6,7.3,3.3,5.6z"/>
	<path id="XMLID_36_" class="st0" d="M15.8,10.7c-0.3-0.1-0.6-0.3-1-0.4c0.6-1.4,0.5-2.9,0-4.4c0.3-0.1,0.6-0.3,1-0.4
		C16.4,7.3,16.5,9,15.8,10.7z"/>
	<path id="XMLID_35_" class="st0" d="M8,10.8c0,0.3,0,0.7,0,1c-0.3,0-0.7,0-1,0c0-0.3,0-0.7,0-1C7.3,10.8,7.6,10.8,8,10.8z"/>
	<path id="XMLID_34_" class="st0" d="M10,11.8c-0.3,0-0.7,0-1,0c0-0.3,0-0.7,0-1c0.3,0,0.7,0,1,0C10,11.1,10,11.5,10,11.8z"/>
	<path id="XMLID_33_" class="st0" d="M12.1,10.8c0,0.3,0,0.7,0,1c-0.3,0-0.7,0-1,0c0-0.3,0-0.7,0-1C11.4,10.8,11.8,10.8,12.1,10.8z"
		/>
	<path id="XMLID_32_" class="st0" d="M7,12.9c0.3,0,0.7,0,1,0c0,0.3,0,0.7,0,1c-0.3,0-0.7,0-1,0C7,13.6,7,13.2,7,12.9z"/>
	<path id="XMLID_31_" class="st0" d="M10,12.9c0,0.3,0,0.7,0,1c-0.3,0-0.7,0-1,0c0-0.3,0-0.7,0-1C9.4,12.9,9.7,12.9,10,12.9z"/>
	<path id="XMLID_30_" class="st0" d="M11.1,13.9c0-0.3,0-0.7,0-1c0.3,0,0.7,0,1,0c0,0.3,0,0.7,0,1C11.8,13.9,11.4,13.9,11.1,13.9z"
		/>
	<path id="XMLID_29_" class="st0" d="M8,16c-0.3,0-0.7,0-1,0c0-0.3,0-0.7,0-1c0.3,0,0.7,0,1,0C8,15.3,8,15.6,8,16z"/>
	<path id="XMLID_28_" class="st0" d="M9,16c0-0.3,0-0.7,0-1c0.3,0,0.7,0,1,0c0,0.3,0,0.7,0,1C9.7,16,9.4,16,9,16z"/>
	<path id="XMLID_27_" class="st0" d="M11.1,16c0-0.3,0-0.7,0-1c0.3,0,0.7,0,1,0c0,0.3,0,0.7,0,1C11.8,16,11.4,16,11.1,16z"/>
</g>
</svg>
