<?xml version="1.0" encoding="utf-8"?>
<!-- Generator: Adobe Illustrator 19.0.0, SVG Export Plug-In . SVG Version: 6.00 Build 0)  -->
<svg version="1.1" id="Layer_1" xmlns="http://www.w3.org/2000/svg" xmlns:xlink="http://www.w3.org/1999/xlink" x="0px" y="0px"
	 viewBox="0 0 19.1 18.4" style="enable-background:new 0 0 19.1 18.4;" xml:space="preserve">
<style type="text/css">
	.st0{fill:#FFFFFF;}
</style>
<path class="st0" d="M0.7,7.7c0.1-0.3,0.3-0.7,0.6-0.8c0.2-0.1,0.4-0.1,0.6-0.1c0.3,0,0.5-0.1,0.8-0.1c0.1,0,0.1-0.1,0.2-0.1
	C3.1,6.2,3.1,6,2.8,5.7C2.6,5.5,2.5,5.3,2.3,5.1C2,4.6,2,4,2.4,3.6c0.4-0.4,0.8-0.8,1.2-1.2C4.1,2,4.6,2,5.2,2.4
	C5.4,2.6,5.7,2.8,6,3c0.1,0,0.1,0,0.2,0C6.6,3,6.8,2.8,6.7,2.4c0-0.3,0.1-0.5,0.1-0.8c0.1-0.6,0.5-1,1.1-1c0.6,0,1.2,0,1.7,0
	c0.6,0,1.1,0.4,1.1,1c0,0.3,0.1,0.7,0.1,1c0,0.1,0.1,0.2,0.2,0.2c0.1,0,0.2,0.1,0.3,0.1c0.2-0.4,0.4-0.7,0.7-0.9
	c0.7-0.5,1.4-0.6,2.2-0.2c0.8,0.3,1.2,1,1.3,1.8c0.1,1.2-0.7,2.3-1.9,2.5c-1.2,0.2-2.3-0.5-2.6-1.7c0-0.2,0-0.3-0.1-0.5
	c0-0.1-0.1-0.1-0.1-0.1c-0.2-0.1-0.4-0.2-0.6-0.2c-0.2-0.1-0.3-0.2-0.4-0.4c0-0.4-0.1-0.9-0.2-1.3c0-0.3-0.1-0.4-0.4-0.4
	c-0.5,0-1,0-1.5,0c-0.3,0-0.3,0.1-0.4,0.3C7.6,2.2,7.5,2.7,7.5,3.1c0,0.3-0.1,0.4-0.4,0.5C6.8,3.7,6.6,3.8,6.3,3.9
	C6.1,4,5.9,4,5.7,3.9C5.4,3.6,5,3.3,4.6,3c-0.2-0.1-0.3-0.1-0.4,0C3.8,3.4,3.4,3.8,3.1,4.2C2.9,4.3,2.9,4.4,3,4.6
	C3.3,5,3.6,5.4,3.9,5.7C4,5.9,4,6.1,3.9,6.3C3.8,6.6,3.7,6.8,3.6,7.1C3.5,7.3,3.4,7.4,3.2,7.4C2.7,7.5,2.3,7.6,1.8,7.6
	C1.5,7.7,1.5,7.7,1.5,8c0,0.5,0,1,0,1.5c0,0.3,0.1,0.3,0.3,0.4C2.3,10,2.7,10,3.2,10.1c0.2,0,0.3,0.1,0.4,0.3
	c0.1,0.3,0.2,0.6,0.4,0.9C4,11.5,4,11.7,3.9,11.8c-0.3,0.4-0.6,0.7-0.8,1.1c-0.1,0.2-0.1,0.3,0,0.4c0.4,0.4,0.8,0.8,1.2,1.1
	c0.2,0.2,0.2,0.2,0.4,0C5,14.3,5.4,14,5.7,13.7c0.2-0.1,0.4-0.2,0.6-0.1c0.3,0.1,0.5,0.2,0.8,0.3c0.2,0.1,0.3,0.2,0.3,0.4
	c0.1,0.5,0.1,0.9,0.2,1.4c0,0.2,0.1,0.3,0.3,0.3c0.8,0,1.7,0,2.5,0c0,0,0,0,0.1,0c0-0.2,0-0.4,0-0.6c-0.3,0.1-0.6,0.2-0.9,0.1
	c-0.6-0.1-1-0.6-1.1-1.2c-0.3-1.9-0.3-3.7,0-5.6c0.2-1.3,1.3-2.2,2.6-2.2c0.6,0,1.1,0.2,1.6,0.6c0.2,0.2,0.4,0.4,0.6,0.6
	c0.2-0.2,0.4-0.4,0.7-0.5c0.6-0.5,1.3-0.7,2.1-0.6c1.1,0.2,1.9,1,2.1,2c0.2,1.1,0.3,2.3,0.2,3.5c0,0.7-0.1,1.5-0.2,2.2
	c-0.1,1-1.1,1.5-1.9,1.2c0,0,0,0-0.1,0c0,0,0,0.1,0,0.1c0,0.6,0,1.1-0.1,1.7c0,0.3-0.3,0.5-0.6,0.4c-0.2-0.1-0.3-0.3-0.3-0.5
	c0-0.4,0-0.8,0-1.2c0-2,0.1-4,0.2-6c0-0.1,0-0.2,0-0.2c0-0.2,0.2-0.3,0.4-0.3c0.2,0,0.4,0.1,0.4,0.3c0,0.1,0,0.2,0,0.3
	c0,1.3-0.1,2.7-0.1,4c0,0.2,0,0.4,0.2,0.5c0.2,0.1,0.3,0.2,0.5,0.1c0.2-0.1,0.3-0.2,0.3-0.4c0.2-1.4,0.3-2.8,0.2-4.2
	c0-0.5-0.1-0.9-0.1-1.4c-0.2-1.2-1.6-1.8-2.7-1c-0.3,0.3-0.7,0.6-1,0.8c-0.2,0.2-0.4,0.2-0.6,0c-0.3-0.2-0.6-0.5-0.9-0.8
	c-0.5-0.4-1.1-0.6-1.7-0.3c-0.6,0.3-1,0.7-1.1,1.4c-0.2,1.4-0.2,2.7-0.1,4.1c0,0.4,0.1,0.8,0.1,1.2c0,0.4,0.3,0.6,0.6,0.5
	c0.3,0,0.5-0.3,0.5-0.6c0-1.1,0-2.2-0.1-3.3c0-0.3,0-0.6,0-0.9c0-0.3,0.2-0.5,0.4-0.5c0.3,0,0.4,0.2,0.4,0.5c0.1,2,0.1,4,0.2,6
	c0,0.6-0.3,1-0.9,1c-0.8,0-1.7,0-2.5,0c-0.7,0-1.1-0.4-1.2-1c0-0.4-0.1-0.7-0.1-1.1c0,0,0-0.1-0.1-0.1c-0.2-0.1-0.3-0.1-0.5-0.2
	c0,0-0.1,0-0.1,0.1c-0.3,0.2-0.6,0.4-0.9,0.7c-0.5,0.4-1,0.3-1.4-0.1c-0.4-0.4-0.9-0.9-1.3-1.3c-0.4-0.4-0.4-1-0.1-1.4
	c0.2-0.3,0.4-0.6,0.7-0.9c0.1-0.1,0.1-0.1,0-0.2C3,11,2.8,10.8,2.4,10.8c-0.2,0-0.5,0-0.7-0.1c-0.5-0.1-0.9-0.3-1-0.9c0,0,0,0,0,0
	C0.7,9.1,0.7,8.4,0.7,7.7z M13.4,2.6C12.6,2.6,12,3.2,12,4c0,0.8,0.6,1.4,1.4,1.4c0.8,0,1.4-0.6,1.4-1.4C14.8,3.2,14.2,2.6,13.4,2.6
	z M6.5,11.2c0.3,0.3,0.6,0.5,1.1,0.7c0.2,0.1,0.3,0,0.4-0.2c0.1-0.1,0.1-0.3,0-0.5c-0.1-0.1-0.2-0.2-0.3-0.2
	c-0.9-0.5-1.3-1.2-1.4-2.1c-0.1-1.3,1-2.5,2.2-2.6c0.4,0,0.7,0,1.1,0.1c0.3,0.1,0.5,0,0.6-0.3c0.1-0.2-0.1-0.4-0.3-0.5
	c-0.5-0.2-1-0.2-1.5-0.1C6.7,5.8,5.5,7.1,5.5,8.8C5.4,9.6,5.9,10.6,6.5,11.2z"/>
</svg>
