<?xml version="1.0" encoding="utf-8"?>
<!-- Generator: Adobe Illustrator 19.0.0, SVG Export Plug-In . SVG Version: 6.00 Build 0)  -->
<svg version="1.1" id="Layer_1" xmlns="http://www.w3.org/2000/svg" xmlns:xlink="http://www.w3.org/1999/xlink" x="0px" y="0px"
	 viewBox="0 0 19.1 18.4" style="enable-background:new 0 0 19.1 18.4;" xml:space="preserve">
<style type="text/css">
	.st0{fill:#FFFFFF;}
</style>
<g id="XMLID_51_">
	<g id="XMLID_212_">
		<path id="XMLID_235_" class="st0" d="M9,8.1c-1.5,0-2.7,1.2-2.7,2.7s1.2,2.7,2.7,2.7c1.5,0,2.7-1.2,2.7-2.7
			C11.7,9.3,10.5,8.1,9,8.1z M9,12.9c-1.2,0-2.1-1-2.1-2.1s1-2.1,2.1-2.1c1.2,0,2.1,1,2.1,2.1C11.1,12,10.2,12.9,9,12.9z"/>
		<path id="XMLID_232_" class="st0" d="M9,9.2c-0.9,0-1.6,0.7-1.6,1.6c0,0.9,0.7,1.6,1.6,1.6c0.9,0,1.6-0.7,1.6-1.6
			C10.6,9.9,9.9,9.2,9,9.2z M9,11.9c-0.6,0-1.1-0.5-1.1-1.1c0-0.6,0.5-1.1,1.1-1.1c0.6,0,1.1,0.5,1.1,1.1C10.1,11.4,9.6,11.9,9,11.9
			z"/>
		<path id="XMLID_231_" class="st0" d="M13,1.7c2.2,0,4,1.8,4,4C17,5.9,17.1,6,17.3,6s0.3-0.1,0.3-0.3c0-2.5-2-4.5-4.5-4.5
			c-0.1,0-0.3,0.1-0.3,0.3S12.9,1.7,13,1.7z"/>
		<path id="XMLID_230_" class="st0" d="M13,2.8c1.6,0,2.9,1.3,2.9,2.9c0,0.1,0.1,0.3,0.3,0.3c0.1,0,0.3-0.1,0.3-0.3
			c0-1.9-1.6-3.5-3.5-3.5c-0.1,0-0.3,0.1-0.3,0.3C12.7,2.7,12.9,2.8,13,2.8z"/>
		<path id="XMLID_229_" class="st0" d="M13,3.9c1,0,1.9,0.8,1.9,1.9C14.9,5.9,15,6,15.1,6c0.1,0,0.3-0.1,0.3-0.3
			c0-1.3-1.1-2.4-2.4-2.4c-0.1,0-0.3,0.1-0.3,0.3S12.9,3.9,13,3.9z"/>
		<path id="XMLID_226_" class="st0" d="M13.5,6c0.2,0,0.4-0.1,0.6-0.2c0.3-0.3,0.3-0.8,0-1.1c-0.3-0.3-0.8-0.3-1.1,0
			c-0.2,0.2-0.3,0.6-0.2,0.9C12.9,5.8,13.2,6,13.5,6z M13.3,5c0.1-0.1,0.2-0.1,0.3-0.1c0.1,0,0.2,0.1,0.2,0.2s0,0.2-0.1,0.3
			c-0.1,0.1-0.3,0.1-0.4,0C13.2,5.3,13.2,5.1,13.3,5z"/>
		<path id="XMLID_220_" class="st0" d="M16.5,7.6h-2.6c-1.4-2.2-4.1-3.2-6.6-2.4c-2.5,0.7-4.2,3-4.2,5.6c0,1.1,0.3,2.3,1,3.2H2.9
			V1.5c0-0.1-0.1-0.3-0.3-0.3c-0.1,0-0.3,0.1-0.3,0.3V14c-0.4,0-0.8,0.4-0.8,0.8v1.6c0,0.5,0.4,0.8,0.9,0.8h14.1c0.6,0,1-0.5,1-1
			V8.6C17.5,8.1,17.1,7.6,16.5,7.6z M3.7,10.8c0-2.9,2.4-5.3,5.3-5.3c1.7,0,3.3,0.8,4.3,2.1h-0.6c-0.6,0-1,0.5-1,1V14H4.7
			C4,13.1,3.7,12,3.7,10.8z M2.1,16.4v-1.6c0-0.2,0.2-0.3,0.3-0.3h9.3v1.6c0,0.2,0,0.3,0.1,0.5H2.4C2.2,16.7,2.1,16.6,2.1,16.4z
			 M17,16.2c0,0.3-0.2,0.5-0.5,0.5h-3.8c-0.3,0-0.5-0.2-0.5-0.5v-0.6H17V16.2z M12.2,15.1V8.6c0-0.3,0.2-0.5,0.5-0.5h3.8
			c0.3,0,0.5,0.2,0.5,0.5v6.4H12.2z"/>
		<path id="XMLID_213_" class="st0" d="M14.6,10c-1,0-1.9,0.8-1.9,1.9s0.8,1.9,1.9,1.9c1,0,1.9-0.8,1.9-1.9
			C16.5,10.8,15.6,10,14.6,10z M15.9,11.6h-0.3c-0.1-0.4-0.4-0.7-0.8-0.8v-0.3C15.4,10.7,15.8,11.1,15.9,11.6z M14.6,12.4
			c-0.3,0-0.5-0.2-0.5-0.5s0.2-0.5,0.5-0.5c0.3,0,0.5,0.2,0.5,0.5S14.9,12.4,14.6,12.4z M14.3,10.6v0.3c-0.4,0.1-0.7,0.4-0.8,0.8
			h-0.3C13.4,11.1,13.8,10.7,14.3,10.6z M13.3,12.1h0.3c0.1,0.4,0.4,0.7,0.8,0.8v0.3C13.8,13.1,13.4,12.7,13.3,12.1z M14.9,13.2
			v-0.3c0.4-0.1,0.7-0.4,0.8-0.8h0.3C15.8,12.7,15.4,13.1,14.9,13.2z"/>
	</g>
</g>
</svg>
