<?xml version="1.0" encoding="utf-8"?>
<!-- Generator: Adobe Illustrator 21.0.0, SVG Export Plug-In . SVG Version: 6.00 Build 0)  -->
<svg version="1.1" id="Layer_1" xmlns="http://www.w3.org/2000/svg" xmlns:xlink="http://www.w3.org/1999/xlink" x="0px" y="0px"
	 viewBox="0 0 12.6 20.1" enable-background="new 0 0 12.6 20.1" xml:space="preserve">
<g>
	<path fill="#3D8DC9" stroke="#3D8DC9" stroke-width="9.556448e-02" stroke-miterlimit="10" d="M11.5,9.9h-0.3V5C11.2,2.3,9,0,6.3,0
		S1.4,2.3,1.4,5v4.9H1.1c-0.6,0-1,0.5-1,1v1.7C0,12.8,0.2,13,0.4,13h4.2v1.4l-0.8,0.8c-0.1,0-0.2-0.1-0.4-0.1
		c-0.5,0-0.9,0.4-0.9,0.9c0,0.5,0.4,0.9,0.9,0.9s0.9-0.4,0.9-0.9c0-0.1,0-0.2-0.1-0.3l0.9-0.9c0.1-0.1,0.1-0.1,0.1-0.2V13H6v5.4
		c-0.3,0.1-0.5,0.4-0.5,0.8c0,0.5,0.4,0.9,0.9,0.9s0.9-0.4,0.9-0.9c0-0.4-0.2-0.7-0.5-0.8V13h0.7v2.7c0,0.1,0,0.2,0.1,0.2l0.9,0.9
		c0,0.1-0.1,0.2-0.1,0.3c0,0.5,0.4,0.9,0.9,0.9s0.9-0.4,0.9-0.9c0-0.5-0.4-0.9-0.9-0.9c-0.1,0-0.2,0-0.4,0.1L8,15.5V13h4.2
		c0.2,0,0.3-0.1,0.3-0.3V11C12.5,10.4,12.1,9.9,11.5,9.9L11.5,9.9z M3.4,16.2c-0.1,0-0.2-0.1-0.2-0.2s0.1-0.2,0.2-0.2
		s0.2,0.1,0.2,0.2S3.6,16.2,3.4,16.2z M6.3,19.4c-0.1,0-0.2-0.1-0.2-0.2s0.1-0.2,0.2-0.2s0.2,0.1,0.2,0.2S6.4,19.4,6.3,19.4z
		 M9.4,17.1c0,0.1-0.1,0.2-0.2,0.2c-0.1,0-0.2-0.1-0.2-0.2s0.1-0.2,0.2-0.2C9.3,16.9,9.4,17,9.4,17.1z M2,5c0-2.4,1.9-4.3,4.3-4.3
		s4.3,1.9,4.3,4.3v4.9H2V5z M11.9,12.3H0.7V11c0-0.2,0.2-0.4,0.4-0.4h10.4c0.2,0,0.4,0.2,0.4,0.4V12.3z"/>
	<path fill="#3D8DC9" stroke="#3D8DC9" stroke-width="9.556448e-02" stroke-miterlimit="10" d="M3,4.7C2.8,4.7,2.7,4.8,2.7,5v0.6
		c0,0.2,0.1,0.3,0.3,0.3c0.2,0,0.3-0.1,0.3-0.3V5C3.3,4.8,3.2,4.7,3,4.7z"/>
	<path fill="#3D8DC9" stroke="#3D8DC9" stroke-width="9.556448e-02" stroke-miterlimit="10" d="M3,6.4c-0.2,0-0.3,0.1-0.3,0.3v2.3
		c0,0.2,0.1,0.3,0.3,0.3c0.2,0,0.3-0.1,0.3-0.3V6.7C3.3,6.5,3.2,6.4,3,6.4L3,6.4z"/>
	<path fill="#3D8DC9" stroke="#3D8DC9" stroke-width="9.556448e-02" stroke-miterlimit="10" d="M9.6,8.1c-0.2,0-0.3,0.1-0.3,0.3v0.6
		c0,0.2,0.1,0.3,0.3,0.3c0.2,0,0.3-0.1,0.3-0.3V8.4C9.9,8.2,9.8,8.1,9.6,8.1z"/>
	<path fill="#3D8DC9" stroke="#3D8DC9" stroke-width="9.556448e-02" stroke-miterlimit="10" d="M6.3,1.4C6.1,1.4,6,1.5,6,1.7
		S6.1,2,6.3,2c1.6,0,3,1.3,3,3v2.3c0,0.2,0.1,0.3,0.3,0.3c0.2,0,0.3-0.1,0.3-0.3V5C9.9,3,8.3,1.4,6.3,1.4L6.3,1.4z"/>
</g>
</svg>
