<?xml version="1.0" encoding="utf-8"?>
<!-- Generator: Adobe Illustrator 19.0.0, SVG Export Plug-In . SVG Version: 6.00 Build 0)  -->
<svg version="1.1" id="Layer_1" xmlns="http://www.w3.org/2000/svg" xmlns:xlink="http://www.w3.org/1999/xlink" x="0px" y="0px"
	 viewBox="0 0 19.1 18.4" style="enable-background:new 0 0 19.1 18.4;" xml:space="preserve">
<style type="text/css">
	.st0{fill:#FFFFFF;}
</style>
<g>
	<path class="st0" d="M2.1,17.3c0.4-0.9,0.9-1.8,1.3-2.7c0.1-0.2,0.2-0.2,0.3-0.2c0.5,0,1,0,1.5,0c0-0.1,0-0.1,0-0.2
		c0-1.4,0-2.7,0-4.1c0-2,1.3-3.6,3.2-4.2c2.4-0.7,4.9,0.9,5.3,3.4c0.1,0.3,0.1,0.7,0.1,1c0,1.3,0,2.5,0,3.8c0,0.1,0,0.1,0,0.2
		c0.2,0,0.4,0,0.7,0c0.3,0,0.6,0,1,0c0.1,0,0.1,0,0.1,0.1c0.5,0.9,0.9,1.8,1.4,2.7c0,0,0,0,0,0C12,17.3,7.1,17.3,2.1,17.3z M9,12.6
		C9.1,12.5,9.1,12.5,9,12.6c0-0.6,0-1.2,0-1.8c0-0.1,0-0.2-0.1-0.2c-0.6-0.3-0.9-1-0.8-1.6c0.2-0.7,0.7-1.1,1.4-1.1
		c0.7,0,1.2,0.5,1.4,1.1c0.1,0.6-0.2,1.3-0.8,1.6c-0.1,0-0.1,0.1-0.1,0.2c0,0.6,0,1.1,0,1.7c0,0.1,0,0.1,0,0.2c1,0,1.9,0,2.8,0
		c0-0.9,0-1.8,0-2.7c0-0.1,0-0.1,0-0.2c-0.2-1.8-2-3.1-3.8-2.8c-1.7,0.3-2.8,1.7-2.8,3.4c0,0.7,0,1.4,0,2.1c0,0.1,0,0.1,0,0.2
		C7.2,12.6,8.1,12.6,9,12.6z M15.4,16.4c-0.1-0.3-0.3-0.5-0.4-0.8c-0.1-0.1-0.1-0.2-0.3-0.2c-3.4,0-6.9,0-10.3,0
		c-0.3,0-0.4,0.1-0.5,0.3c-0.1,0.2-0.2,0.4-0.3,0.6C7.6,16.4,11.5,16.4,15.4,16.4z M6.2,14.5c2.2,0,4.4,0,6.7,0c0-0.3,0-0.6,0-0.9
		c-2.2,0-4.4,0-6.7,0C6.2,13.8,6.2,14.1,6.2,14.5z M10,9.2C10,9,9.8,8.8,9.6,8.7C9.3,8.7,9.1,9,9.1,9.2c0,0.3,0.2,0.5,0.5,0.5
		C9.8,9.7,10,9.5,10,9.2z"/>
	<path id="XMLID_31_" class="st0" d="M9.1,4c0-1,0-1.9,0-2.9c0.3,0,0.6,0,0.9,0C10,2,10,3,10,4C9.7,4,9.4,4,9.1,4z"/>
	<path id="XMLID_30_" class="st0" d="M2.3,5.6C2.5,5.3,2.6,5,2.8,4.8c0.8,0.5,1.6,1,2.5,1.4C5.1,6.5,4.9,6.7,4.8,7
		C3.9,6.5,3.1,6.1,2.3,5.6z"/>
	<path id="XMLID_29_" class="st0" d="M5.1,2.4C5.4,2.3,5.6,2.1,5.9,2c0.5,0.8,0.9,1.6,1.4,2.5C7.1,4.6,6.8,4.8,6.5,4.9
		C6,4.1,5.6,3.3,5.1,2.4z"/>
	<path id="XMLID_28_" class="st0" d="M13.8,6.2c0.8-0.5,1.6-1,2.5-1.4c0.2,0.3,0.3,0.5,0.5,0.8c-0.8,0.5-1.6,1-2.5,1.4
		C14.2,6.7,14,6.5,13.8,6.2z"/>
	<path id="XMLID_27_" class="st0" d="M13.2,2c0.3,0.2,0.5,0.3,0.8,0.5c-0.5,0.8-0.9,1.6-1.4,2.5c-0.3-0.2-0.5-0.3-0.8-0.5
		C12.2,3.6,12.7,2.8,13.2,2z"/>
</g>
</svg>
