<?xml version="1.0" encoding="utf-8"?>
<!-- Generator: Adobe Illustrator 21.0.0, SVG Export Plug-In . SVG Version: 6.00 Build 0)  -->
<svg version="1.1" id="Layer_1" xmlns="http://www.w3.org/2000/svg" xmlns:xlink="http://www.w3.org/1999/xlink" x="0px" y="0px"
	 viewBox="0 0 16 16" enable-background="new 0 0 16 16" xml:space="preserve">
<g>
	<g>
		<path fill="#3D8ECA" d="M7.5,6.9C6,6.9,4.8,8.1,4.8,9.6s1.2,2.7,2.7,2.7c1.5,0,2.7-1.2,2.7-2.7C10.1,8.1,8.9,6.9,7.5,6.9z
			 M7.5,11.7c-1.2,0-2.1-1-2.1-2.1s1-2.1,2.1-2.1c1.2,0,2.1,1,2.1,2.1C9.6,10.8,8.6,11.7,7.5,11.7z"/>
		<path fill="#3D8ECA" d="M7.5,8C6.6,8,5.9,8.7,5.9,9.6c0,0.9,0.7,1.6,1.6,1.6c0.9,0,1.6-0.7,1.6-1.6C9.1,8.7,8.3,8,7.5,8z
			 M7.5,10.7c-0.6,0-1.1-0.5-1.1-1.1c0-0.6,0.5-1.1,1.1-1.1c0.6,0,1.1,0.5,1.1,1.1C8.5,10.2,8.1,10.7,7.5,10.7z"/>
		<path fill="#3D8ECA" d="M11.5,0.5c2.2,0,4,1.8,4,4c0,0.1,0.1,0.3,0.3,0.3c0.1,0,0.3-0.1,0.3-0.3C16,2,14,0,11.5,0
			c-0.1,0-0.3,0.1-0.3,0.3S11.3,0.5,11.5,0.5z"/>
		<path fill="#3D8ECA" d="M11.5,1.6c1.6,0,2.9,1.3,2.9,2.9c0,0.1,0.1,0.3,0.3,0.3s0.3-0.1,0.3-0.3c0-1.9-1.6-3.5-3.5-3.5
			c-0.1,0-0.3,0.1-0.3,0.3S11.3,1.6,11.5,1.6z"/>
		<path fill="#3D8ECA" d="M11.5,2.7c1,0,1.9,0.8,1.9,1.9c0,0.1,0.1,0.3,0.3,0.3c0.1,0,0.3-0.1,0.3-0.3c0-1.3-1.1-2.4-2.4-2.4
			c-0.1,0-0.3,0.1-0.3,0.3C11.2,2.5,11.3,2.7,11.5,2.7z"/>
		<path fill="#3D8ECA" d="M12,4.8c0.2,0,0.4-0.1,0.6-0.2c0.3-0.3,0.3-0.8,0-1.1c-0.3-0.3-0.8-0.3-1.1,0c-0.2,0.2-0.3,0.6-0.2,0.9
			C11.4,4.6,11.7,4.8,12,4.8z M11.8,3.8c0.1-0.1,0.2-0.1,0.3-0.1c0.1,0,0.2,0.1,0.2,0.2c0,0.1,0,0.2-0.1,0.3c-0.1,0.1-0.3,0.1-0.4,0
			C11.7,4.1,11.7,3.9,11.8,3.8z"/>
		<path fill="#3D8ECA" d="M15,6.4h-2.6C11,4.2,8.3,3.2,5.8,4C3.3,4.7,1.6,7,1.6,9.6c0,1.1,0.3,2.3,1,3.2H1.3V0.3
			C1.3,0.1,1.2,0,1.1,0S0.8,0.1,0.8,0.3v12.5c-0.4,0-0.8,0.4-0.8,0.8v1.6C0,15.7,0.4,16,0.9,16H15c0.6,0,1-0.5,1-1V7.4
			C16,6.9,15.5,6.4,15,6.4z M2.1,9.6c0-2.9,2.4-5.3,5.3-5.3c1.7,0,3.3,0.8,4.3,2.1h-0.6c-0.6,0-1,0.5-1,1v5.4H3.2
			C2.5,11.9,2.1,10.8,2.1,9.6z M0.5,15.2v-1.6c0-0.2,0.2-0.3,0.3-0.3h9.3V15c0,0.2,0,0.3,0.1,0.5H0.9C0.7,15.5,0.6,15.4,0.5,15.2z
			 M15.5,15c0,0.3-0.2,0.5-0.5,0.5h-3.8c-0.3,0-0.5-0.2-0.5-0.5v-0.6h4.8V15z M10.7,13.9V7.4c0-0.3,0.2-0.5,0.5-0.5H15
			c0.3,0,0.5,0.2,0.5,0.5v6.4H10.7z"/>
		<path fill="#3D8ECA" d="M13.1,8.8c-1,0-1.9,0.8-1.9,1.9s0.8,1.9,1.9,1.9c1,0,1.9-0.8,1.9-1.9C14.9,9.6,14.1,8.8,13.1,8.8z
			 M14.4,10.4h-0.3C14,10,13.7,9.7,13.3,9.6V9.4C13.9,9.5,14.3,9.9,14.4,10.4z M13.1,11.2c-0.3,0-0.5-0.2-0.5-0.5
			c0-0.3,0.2-0.5,0.5-0.5c0.3,0,0.5,0.2,0.5,0.5C13.6,11,13.4,11.2,13.1,11.2z M12.8,9.4v0.3c-0.4,0.1-0.7,0.4-0.8,0.8h-0.3
			C11.9,9.9,12.3,9.5,12.8,9.4z M11.8,10.9H12c0.1,0.4,0.4,0.7,0.8,0.8V12C12.3,11.9,11.9,11.5,11.8,10.9z M13.3,12v-0.3
			c0.4-0.1,0.7-0.4,0.8-0.8h0.3C14.3,11.5,13.9,11.9,13.3,12z"/>
	</g>
</g>
</svg>
