<?xml version="1.0" encoding="utf-8"?>
<!-- Generator: Adobe Illustrator 19.0.0, SVG Export Plug-In . SVG Version: 6.00 Build 0)  -->
<svg version="1.1" id="Layer_1" xmlns="http://www.w3.org/2000/svg" xmlns:xlink="http://www.w3.org/1999/xlink" x="0px" y="0px"
	 viewBox="0 0 19.1 18.4" style="enable-background:new 0 0 19.1 18.4;" xml:space="preserve">
<style type="text/css">
	.st0{fill:#FFFFFF;}
</style>
<g>
	<path class="st0" d="M17.4,4.9H14V1.4H5v3.5H1.7v9.3h3.1L4.3,17h10.5l-0.4-2.8h3.1L17.4,4.9L17.4,4.9z M5.5,1.9h8v4.3h-8V1.9z
		 M5,5.4v0.8H4.1v0.5h10.8V6.2H14V5.4h2.8v2.2H2.2V5.4L5,5.4L5,5.4z M4.9,12.9H3.8v-0.3H5L4.9,12.9z M4.9,16.5l0.6-3.9h8.1l0.6,3.9
		H4.9z M14.1,12.5h1.2v0.3h-1.1L14.1,12.5z M14.3,13.7l0-0.3h1.6v-1.3H3.3v1.3h1.6l0,0.3H2.2V8h14.7v5.6H14.3z"/>
	<path class="st0" d="M3.3,8.5c-0.4,0-0.8,0.3-0.8,0.8c0,0.4,0.3,0.8,0.8,0.8s0.8-0.3,0.8-0.8C4.1,8.8,3.7,8.5,3.3,8.5z M3.3,9.5
		C3.2,9.5,3,9.4,3,9.2C3,9.1,3.2,9,3.3,9c0.1,0,0.3,0.1,0.3,0.3C3.6,9.4,3.4,9.5,3.3,9.5z"/>
	<path class="st0" d="M5,8.5c-0.4,0-0.8,0.3-0.8,0.8C4.2,9.7,4.6,10,5,10c0.4,0,0.8-0.3,0.8-0.8C5.7,8.8,5.4,8.5,5,8.5z M5,9.5
		c-0.1,0-0.3-0.1-0.3-0.3C4.7,9.1,4.8,9,5,9s0.3,0.1,0.3,0.3C5.2,9.4,5.1,9.5,5,9.5z"/>
</g>
</svg>
