<?xml version="1.0" encoding="utf-8"?>
<!-- Generator: Adobe Illustrator 21.0.0, SVG Export Plug-In . SVG Version: 6.00 Build 0)  -->
<svg version="1.1" id="Layer_1" xmlns="http://www.w3.org/2000/svg" xmlns:xlink="http://www.w3.org/1999/xlink" x="0px" y="0px"
	 viewBox="0 0 10.5 17.2" enable-background="new 0 0 10.5 17.2" xml:space="preserve">
<path fill="#3D8ECA" d="M8.9,1.5C7.9,0.5,6.6,0,5.2,0C2.3,0,0,2.4,0,5.3c0,0.8,0.2,1.6,0.6,2.4c0.6,1.2,1,2.7,1,4.1v1.7
	c0,1.5,1.1,2.7,2.6,2.8c0.1,0.5,0.6,0.9,1.1,0.9s1-0.4,1.1-0.9C7.8,16.1,9,14.9,9,13.4v-1.7c0-1.4,0.3-2.9,1-4.2
	c0.4-0.7,0.6-1.5,0.6-2.3C10.5,3.8,9.9,2.5,8.9,1.5L8.9,1.5z M8.4,12.7v0.6H2.1v-0.6H8.4z M5,4.1C5,4,5.1,3.9,5.2,3.9
	c0.1,0,0.2,0.1,0.2,0.2c0,0.1-0.1,0.2-0.2,0.2C5.1,4.3,5,4.2,5,4.1z M4.4,15.7c-0.6,0-1.1-0.2-1.5-0.6h4.8c-0.4,0.4-0.9,0.6-1.5,0.6
	H4.4L4.4,15.7z M2.4,14.5c-0.1-0.2-0.2-0.4-0.2-0.6h6.1c0,0.2-0.1,0.4-0.2,0.6H2.4L2.4,14.5z M5.2,16.6c-0.2,0-0.4-0.1-0.5-0.3h1
	C5.6,16.5,5.5,16.6,5.2,16.6z M9.4,7.3c-0.7,1.4-1.1,2.9-1.1,4.4v0.4H6.7V6.8L7.4,6c0.1,0,0.2,0.1,0.3,0.1c0.4,0,0.8-0.4,0.8-0.8
	c0-0.4-0.4-0.8-0.8-0.8c-0.4,0-0.8,0.4-0.8,0.8c0,0.1,0,0.2,0.1,0.3L6.2,6.5C6.1,6.5,6.1,6.6,6.1,6.7v5.5H5.5V4.8
	C5.8,4.7,6,4.4,6,4.1c0-0.4-0.4-0.8-0.8-0.8c-0.4,0-0.8,0.4-0.8,0.8c0,0.3,0.2,0.6,0.5,0.7v7.3H4.3V8.9c0-0.1,0-0.2-0.1-0.2L3.4,7.9
	c0-0.1,0.1-0.2,0.1-0.3c0-0.4-0.4-0.8-0.8-0.8S1.8,7.2,1.8,7.6c0,0.4,0.4,0.8,0.8,0.8c0.1,0,0.2,0,0.3-0.1l0.7,0.7v3.1H2.1v-0.4
	c0-1.6-0.4-3.1-1-4.4C0.8,6.7,0.6,6,0.6,5.3c0-2.5,2-4.6,4.6-4.7c1.3,0,2.4,0.5,3.3,1.3C9.4,2.8,9.9,4,9.9,5.3
	C9.9,6,9.7,6.7,9.4,7.3L9.4,7.3z M7.5,5.3c0-0.1,0.1-0.2,0.2-0.2s0.2,0.1,0.2,0.2c0,0.1-0.1,0.2-0.2,0.2S7.5,5.4,7.5,5.3z M2.6,7.8
	c-0.1,0-0.2-0.1-0.2-0.2c0-0.1,0.1-0.2,0.2-0.2c0.1,0,0.2,0.1,0.2,0.2C2.8,7.7,2.7,7.8,2.6,7.8z"/>
</svg>
