<?xml version="1.0" encoding="utf-8"?>
<!-- Generator: Adobe Illustrator 21.1.0, SVG Export Plug-In . SVG Version: 6.00 Build 0)  -->
<svg version="1.1" id="Layer_1" xmlns="http://www.w3.org/2000/svg" xmlns:xlink="http://www.w3.org/1999/xlink" x="0px" y="0px"
	 viewBox="0 0 12 10.1" style="enable-background:new 0 0 12 10.1;" xml:space="preserve">
<style type="text/css">
	.st0{fill:#555555;}
</style>
<g>
	<g>
		<g>
			<g>
				<path class="st0" d="M3.6,8.5L3.2,5.8c0-0.1-0.1-0.2-0.3-0.2c-0.1,0-0.2,0.1-0.2,0.3l0.5,2.7c0,0.1,0.1,0.2,0.2,0.2c0,0,0,0,0,0
					C3.6,8.7,3.7,8.6,3.6,8.5z"/>
			</g>
		</g>
		<g>
			<g>
				<path class="st0" d="M6.9,6.5c-0.1,0-0.2,0.1-0.2,0.2v1.8c0,0.1,0.1,0.2,0.2,0.2c0.1,0,0.2-0.1,0.2-0.2V6.7
					C7.2,6.6,7.1,6.5,6.9,6.5z"/>
			</g>
		</g>
		<g>
			<g>
				<path class="st0" d="M7.1,5.6c0,0-0.1-0.1-0.2-0.1c-0.1,0-0.1,0-0.2,0.1S6.7,5.7,6.7,5.8c0,0.1,0,0.1,0.1,0.2C6.8,6,6.9,6,6.9,6
					C7,6,7.1,6,7.1,6c0,0,0.1-0.1,0.1-0.2C7.2,5.7,7.2,5.7,7.1,5.6z"/>
			</g>
		</g>
		<g>
			<g>
				<path class="st0" d="M5.1,5.6c-0.1,0-0.2,0.1-0.2,0.2v2.7c0,0.1,0.1,0.2,0.2,0.2c0.1,0,0.2-0.1,0.2-0.2V5.8
					C5.3,5.7,5.2,5.6,5.1,5.6z"/>
			</g>
		</g>
		<g>
			<g>
				<path class="st0" d="M9.1,5.6C9,5.6,8.9,5.6,8.8,5.8L8.4,8.5c0,0.1,0.1,0.2,0.2,0.3c0,0,0,0,0,0c0.1,0,0.2-0.1,0.2-0.2l0.5-2.7
					C9.3,5.7,9.2,5.6,9.1,5.6z"/>
			</g>
		</g>
		<g>
			<g>
				<path class="st0" d="M6.1,9.7c0,0-0.1-0.1-0.2-0.1c-0.1,0-0.1,0-0.2,0.1c0,0-0.1,0.1-0.1,0.2c0,0.1,0,0.1,0.1,0.2
					c0,0,0.1,0.1,0.2,0.1c0.1,0,0.1,0,0.2-0.1c0,0,0.1-0.1,0.1-0.2C6.2,9.8,6.2,9.8,6.1,9.7z"/>
			</g>
		</g>
		<g>
			<g>
				<path class="st0" d="M11.3,2.5h-0.6c-0.1,0-0.2,0.1-0.2,0.2c0,0.1,0.1,0.2,0.2,0.2h0.6c0.1,0,0.2,0.1,0.2,0.2V4
					c0,0.1-0.1,0.2-0.2,0.2H0.7C0.6,4.2,0.5,4.1,0.5,4V3.2C0.5,3.1,0.6,3,0.7,3h0.5c0.1,0,0.2-0.1,0.2-0.2c0-0.1-0.1-0.2-0.2-0.2
					H0.7C0.3,2.5,0,2.8,0,3.2V4c0,0.3,0.2,0.6,0.6,0.7L1.4,9c0.1,0.6,0.7,1.1,1.3,1.1h2.2c0.1,0,0.2-0.1,0.2-0.2
					c0-0.1-0.1-0.2-0.2-0.2H2.7c-0.4,0-0.8-0.3-0.9-0.7L1,4.7H11l-0.8,4.2c-0.1,0.4-0.5,0.7-0.9,0.7H6.9c-0.1,0-0.2,0.1-0.2,0.2
					c0,0.1,0.1,0.2,0.2,0.2h2.3c0.7,0,1.2-0.5,1.3-1.1l0.8-4.3C11.8,4.6,12,4.3,12,4V3.2C12,2.8,11.7,2.5,11.3,2.5z"/>
			</g>
		</g>
		<g>
			<g>
				<path class="st0" d="M9.9,2.6L7.5,0.2c-0.3-0.3-0.8-0.3-1,0c-0.3,0.3-0.3,0.8,0,1l1.3,1.3H4.3l1.3-1.3c0.3-0.3,0.3-0.8,0-1
					c-0.3-0.3-0.8-0.3-1,0L2.1,2.6c-0.3,0.3-0.3,0.8,0,1c0.1,0.1,0.3,0.2,0.5,0.2c0.2,0,0.4-0.1,0.5-0.2L3.8,3h4.4c0,0,0,0,0,0
					l0.6,0.6C9,3.8,9.2,3.8,9.4,3.8s0.4-0.1,0.5-0.2C10.2,3.3,10.2,2.9,9.9,2.6z M2.8,3.3C2.8,3.3,2.7,3.4,2.6,3.4s-0.1,0-0.2-0.1
					C2.4,3.2,2.4,3,2.5,2.9l2.4-2.4C4.9,0.5,4.9,0.5,5,0.5c0.1,0,0.1,0,0.2,0.1c0.1,0.1,0.1,0.3,0,0.4L2.8,3.3z M9.5,3.3
					C9.5,3.3,9.4,3.4,9.4,3.4c-0.1,0-0.1,0-0.2-0.1L6.8,0.9c-0.1-0.1-0.1-0.3,0-0.4C6.8,0.5,6.9,0.5,7,0.5c0.1,0,0.1,0,0.2,0.1
					l2.4,2.4C9.6,3,9.6,3.2,9.5,3.3z"/>
			</g>
		</g>
	</g>
</g>
</svg>
