<?xml version="1.0" encoding="utf-8"?>
<!-- Generator: Adobe Illustrator 21.1.0, SVG Export Plug-In . SVG Version: 6.00 Build 0)  -->
<svg version="1.1" id="Layer_1" xmlns="http://www.w3.org/2000/svg" xmlns:xlink="http://www.w3.org/1999/xlink" x="0px" y="0px"
	 viewBox="0 0 13.7 11.6" style="enable-background:new 0 0 13.7 11.6;" xml:space="preserve">
<style type="text/css">
	.st0{fill:#555555;}
</style>
<g>
	<g>
		<path class="st0" d="M11.6,3.7C11.5,1.6,9.8,0,7.8,0C6.5,0,5.3,0.6,4.6,1.6c0,0,0,0-0.1,0c0,0-0.1,0-0.1-0.1c0,0-0.1,0-0.1,0
			c0,0-0.1,0-0.1,0c0,0-0.1,0-0.1,0c-0.1,0-0.1,0-0.2,0c0,0,0,0-0.1,0c-0.1,0-0.2,0-0.2,0c-1.1,0-2.1,0.9-2.1,2.1c0,0,0,0.1,0,0.1
			C0.7,4,0,5.1,0,6.2c0,1.6,1.3,2.9,2.9,2.9h1.2c0.1,0,0.2-0.1,0.2-0.2c0-0.1-0.1-0.2-0.2-0.2H2.9c-1.4,0-2.5-1.1-2.5-2.5
			c0-0.9,0.6-1.9,1.5-2.3l0.1-0.1V3.6c0,0,0-0.1,0-0.1l0,0l0,0c0,0,0,0,0-0.1c0-0.9,0.7-1.6,1.6-1.6c0.1,0,0.1,0,0.2,0
			c0,0,0,0,0.1,0c0.1,0,0.1,0,0.2,0c0,0,0,0,0,0c0.1,0,0.1,0,0.2,0.1c0,0,0,0,0,0C4.4,2,4.5,2,4.5,2.1c0.4,0.3,0.7,0.8,0.7,1.3
			c0,0.1,0.1,0.2,0.2,0.2c0.1,0,0.2-0.1,0.2-0.2c0-0.6-0.3-1.2-0.7-1.6C5.6,1,6.7,0.5,7.8,0.5c1.8,0,3.2,1.4,3.4,3.2
			c-0.2,0-0.6,0-0.9,0c-0.1,0-0.2,0.1-0.2,0.3c0,0.1,0.1,0.2,0.2,0.2c0,0,0,0,0,0c0.5-0.1,1,0,1.1,0c1.1,0.2,1.9,1.2,1.9,2.3
			c0,1.3-1,2.3-2.3,2.3H10c-0.1,0-0.2,0.1-0.2,0.2C9.8,9,9.9,9.1,10,9.1h0.9c1.5,0,2.7-1.2,2.7-2.7C13.7,5.1,12.8,4,11.6,3.7z"/>
		<path class="st0" d="M8.7,9.4l-1.4,1.4V6.2c0-0.1-0.1-0.2-0.2-0.2C6.9,5.9,6.8,6,6.8,6.2v4.7L5.4,9.4c-0.1-0.1-0.2-0.1-0.3,0
			C5,9.5,5,9.6,5.1,9.7l1.8,1.8c0,0,0,0,0.1,0c0,0,0.1,0,0.1,0c0,0,0.1,0,0.1,0c0,0,0.1,0,0.1,0L9,9.7c0.1-0.1,0.1-0.2,0-0.3
			C9,9.3,8.8,9.3,8.7,9.4z"/>
	</g>
</g>
</svg>
